<?xml version="1.0" standalone="no"?><!DOCTYPE svg PUBLIC "-//W3C//DTD SVG 1.1//EN" "http://www.w3.org/Graphics/SVG/1.1/DTD/svg11.dtd"><svg class="icon" width="200px" height="163.84px" viewBox="0 0 1250 1024" version="1.1" xmlns="http://www.w3.org/2000/svg"><path fill="#333333" d="M1016.164824 274.418108l145.834015-160.554867c28.039716 12.184906 48.038632 21.03666 59.928022 42.176407 11.064692 19.717144 16.76885 67.625199 12.164288 89.342234z m186.244195-102.283113c-9.002948-15.222542-16.012877-28.122186-35.943068-35.36578l-88.380087 104.777823 131.814158-13.958006a86.517645 86.517645 0 0 0-7.491003-55.454037zM1001.526442 38.63708c29.070588-9.264102 49.894201-15.806703 72.642109-7.635325 21.167237 7.559727 56.697956 40.004703 67.350299 59.440076l-145.765291 165.743588z m19.655292 151.83369l90.44183-97.492994a85.218746 85.218746 0 0 0-41.715951-36.939578c-16.700125-5.594198-30.37636-10.693578-50.1691-3.030763zM513.580395 1023.99945a511.999725 511.999725 0 1 1 513.580396-511.999725A512.803805 512.803805 0 0 1 513.580395 1023.99945z m0-971.486834A459.487109 459.487109 0 1 0 974.448873 511.999725 460.222464 460.222464 0 0 0 513.580395 52.512616z m332.009487 437.639497l-217.239078-28.4933 0.755972-5.580454-3.504964 2.68714-20.273815-26.294107 173.323934-133.229888 20.273815 26.294106-139.030261 106.84644 189.886609 24.905866zM658.383539 518.562943a143.854742 143.854742 0 0 1-283.077432 0h36.630316a111.286061 111.286061 0 0 0 214.83371 0h31.613406zM225.279879 370.041788h112.777389V469.046728H225.279879V370.041788z m1008.673821-93.204568c12.164289 28.177166 20.754888 48.389128 15.119455 71.989224-5.291809 21.991935-33.67515 60.931404-51.749771 73.64549L1018.501467 293.66105z m-10.102545 70.312339c3.848589-17.270541 7.422278-31.537809-2.199193-50.52647l-135.594022 15.676126 105.698736 80.49048a85.658585 85.658585 0 0 0 32.094479-45.640136z"  /></svg>