<?xml version="1.0" standalone="no"?><!DOCTYPE svg PUBLIC "-//W3C//DTD SVG 1.1//EN" "http://www.w3.org/Graphics/SVG/1.1/DTD/svg11.dtd"><svg class="icon" width="200px" height="181.40px" viewBox="0 0 1129 1024" version="1.1" xmlns="http://www.w3.org/2000/svg"><path fill="#333333" d="M941.413038 1023.993129h-753.13043A187.952287 187.952287 0 0 1 0 836.371162v-31.803244a187.747489 187.747489 0 0 1 130.727587-178.657072 187.430381 187.430381 0 0 1 140.498464-274.324457 95.191723 95.191723 0 0 1 62.615528-146.437624C534.729212 91.089144 599.947665 0 599.947665 0S685.566703 98.06551 647.427914 204.798626h85.883295c52.851258 0 112.308924 39.796997 125.521738 92.489702a68.462199 68.462199 0 0 1-6.2893 53.511899c63.07137 5.034082 163.898358 75.313043 168.648366 186.611186a171.799621 171.799621 0 0 1-22.223954 88.4664A187.747489 187.747489 0 0 1 1129.695646 804.561311v31.809851a187.952287 187.952287 0 0 1-188.282608 187.621967z m143.603475-228.231552c0-75.313043-79.554357-124.946981-147.243605-146.774551 12.65127-23.736821 44.005279-78.906929 44.005279-107.717471 0-87.376343-106.217816-150.844098-190.799649-159.657045 27.647814-19.158581 17.41449-62.100228 15.003151-77.717775-8.746883-56.603698-104.751194-59.457666-151.947368-59.457665l-61.142299 3.858141a194.281225 194.281225 0 0 0 0.660641-190.806255s-47.850208 82.864167-229.764239 177.837878c-40.556734 14.864416-57.218094 27.786549-57.218094 69.961853 0 17.533405 23.16867 56.154462 32.133565 69.717416-82.025153 11.19786-171.654281 80.723691-171.65428 166.263452 0 28.810542 24.522984 83.729606 37.174253 107.466428-67.689249 21.834176-146.79437 51.899936-146.794369 127.206372v44.520579c0 93.328716 88.010558 159.009617 180.837186 159.009617H910.561116c92.826629 0 174.455397-59.318931 174.455397-152.647647v-31.050114z"  /></svg>