<?xml version="1.0" standalone="no"?><!DOCTYPE svg PUBLIC "-//W3C//DTD SVG 1.1//EN" "http://www.w3.org/Graphics/SVG/1.1/DTD/svg11.dtd"><svg class="icon" width="200px" height="200.00px" viewBox="0 0 1024 1024" version="1.1" xmlns="http://www.w3.org/2000/svg"><path fill="#333333" d="M512 1024A512 512 0 1 1 1024 512 512 512 0 0 1 512 1024z m0-971.491923A459.491923 459.491923 0 1 0 971.47871 512 459.491923 459.491923 0 0 0 512 52.508077zM647.432258 416.206452v-46.245162h251.045161v52.851613z m6.540387-211.452697h31.116387a111.371561 111.371561 0 0 0 105.769291 82.772232 104.96991 104.96991 0 0 0 41.55458-8.588387v38.978065a135.590813 135.590813 0 0 1-39.110193 5.813677C724.727742 323.716129 667.515871 272.707716 653.972645 204.753755zM839.019355 508.696774h19.621161c0.066065 2.199948 0.198194 4.39329 0.198194 6.606452a330.322581 330.322581 0 0 1-660.645162 0c0-2.213161 0.132129-4.406503 0.198194-6.606452H839.019355z m-310.503226 300.593549a293.167897 293.167897 0 0 0 206.517677-84.780594 265.077265 265.077265 0 0 0-416.668903-3.719432A293.002735 293.002735 0 0 0 528.516129 809.290323zM235.784258 541.729032a291.734297 291.734297 0 0 0 60.382968 153.580181 298.050065 298.050065 0 0 1 461.460645 4.122426A292.665806 292.665806 0 0 0 821.314065 541.729032H235.784258zM125.522581 369.96129h251.045161v52.851613l-251.045161-6.606451v-46.245162z m105.703225-46.634942a139.78591 139.78591 0 0 1-39.638709-5.774038V278.792258a108.345806 108.345806 0 0 0 42.083097 8.548748 112.448413 112.448413 0 0 0 107.156645-82.197471h31.512774A145.566555 145.566555 0 0 1 231.225806 323.319742z"  /></svg>