<?xml version="1.0" standalone="no"?><!DOCTYPE svg PUBLIC "-//W3C//DTD SVG 1.1//EN" "http://www.w3.org/Graphics/SVG/1.1/DTD/svg11.dtd"><svg class="icon" width="200px" height="166.91px" viewBox="0 0 1227 1024" version="1.1" xmlns="http://www.w3.org/2000/svg"><path fill="#333333" d="M1183.393703 418.183563l-160.70508 60.732348c0.735339 10.776064 1.270132 21.598923 1.270131 32.55548a511.956648 511.956648 0 1 1-14.238844-119.345582l143.39118-54.201197c30.884254-11.671841 62.704395-3.168644 71.060524 18.998496s-9.893657 49.595299-40.777911 61.260455zM513.365826 52.519343a458.945364 458.945364 0 1 0 458.183285 458.945363c0-4.398666-0.200547-8.730484-0.334245-13.095726l-276.688155 104.571946v17.380749H503.472169v-46.192683h24.667294l432.245859-163.365672A458.464051 458.464051 0 0 0 513.365826 52.526027z m697.569679 306.837069c-6.083262-16.010344-29.012481-22.15377-51.340059-13.724106L926.62656 433.685854l21.859634 57.964798 183.500601-69.349188-10.896393-28.885468a3.509574 3.509574 0 0 1 6.21696-2.346401l10.896393 28.878783 43.251326-16.351274c22.260729-8.396239 35.496837-28.203608 29.480424-44.207267z m-117.253207 74.469825l-8.021884-21.425115a0.514738 0.514738 0 0 1 0.401094-0.668491 0.608326 0.608326 0 0 1 0.802188 0.207232l8.088733 21.391691a0.72197 0.72197 0 0 1-1.270131 0.528108z m-39.641478 14.994239l-8.088733-21.391691a0.628381 0.628381 0 0 1 0.467943-0.668491 0.528107 0.528107 0 0 1 0.73534 0.207232l8.088733 21.391691a0.628381 0.628381 0 0 1-0.467943 0.668491 0.528107 0.528107 0 0 1-0.73534-0.173808z m-39.908874 15.067772l-8.021884-21.391691a0.521422 0.521422 0 0 1 0.401094-0.66849 0.608326 0.608326 0 0 1 0.802189 0.207232l8.088733 21.391691a0.621696 0.621696 0 0 1-0.467943 0.66849 0.66849 0.66849 0 0 1-0.802189-0.173807z m-39.641477 15.000924l-8.088734-21.391691a0.621696 0.621696 0 0 1 0.467944-0.668491 0.528107 0.528107 0 0 1 0.735339 0.207232l8.088733 21.391691a0.628381 0.628381 0 0 1-0.467943 0.668491 0.528107 0.528107 0 0 1-0.735339-0.173808z m-183.099507-191.662868a104.952985 104.952985 0 0 0 41.513251-8.596786V317.60919a135.121954 135.121954 0 0 1-39.039836 5.809181c-68.386563 0-125.408789-50.972389-138.912295-118.844214h31.017952a111.096411 111.096411 0 0 0 105.420928 82.685571z m113.977605 138.430981l-250.349636-6.604684v-46.185999h250.349636v52.810738z m-770.836221-52.810737h250.349635v52.810737l-250.349635-6.604684v-46.185999z m98.802873-49.88275a139.24654 139.24654 0 0 1-39.507779-5.769072v-38.685536a107.914397 107.914397 0 0 0 41.981194 8.536621 112.18605 112.18605 0 0 0 106.824757-82.097299h31.419047a145.102515 145.102515 0 0 1-140.717219 118.068765z"  /></svg>