<?xml version="1.0" standalone="no"?><!DOCTYPE svg PUBLIC "-//W3C//DTD SVG 1.1//EN" "http://www.w3.org/Graphics/SVG/1.1/DTD/svg11.dtd"><svg class="icon" width="200px" height="200.00px" viewBox="0 0 1024 1024" version="1.1" xmlns="http://www.w3.org/2000/svg"><path fill="#333333" d="M512 1024A512 512 0 1 1 1024 512 512 512 0 0 1 512 1024zM53.776516 479.720877l101.210839-39.202683-100.352 27.925471c-0.396387 3.739252-0.594581 7.511535-0.858839 11.277212z m26.557936-125.52258l620.742193-224.553291-594.118193 165.286813a457.443923 457.443923 0 0 0-26.624 59.246658zM512 52.527897a457.166452 457.166452 0 0 0-251.243355 74.851097L456.770065 56.471948a471.898839 471.898839 0 0 1 74.256516-3.303225L203.214452 171.747923a463.112258 463.112258 0 0 0-80.004129 95.489651l595.373419-165.630348A457.582658 457.582658 0 0 0 512 52.508077z m254.612645 76.991587L71.613935 380.914787A460.172387 460.172387 0 0 0 57.476129 444.482065l310.106839-86.260439 461.39458-178.684697a465.378271 465.378271 0 0 0-62.364903-50.050477z m79.409549 67.181006L585.595871 297.567794l280.708129-78.101471a436.369342 436.369342 0 0 0-20.281806-22.785652z m35.146322 41.805626l-508.168258 141.378065L52.719484 503.92031c-0.066065 2.702039-0.198194 5.377652-0.198194 8.092903a458.540594 458.540594 0 0 0 17.242839 124.564645l853.025032-330.322581a456.367071 456.367071 0 0 0-41.620645-67.762374z m-70.094451 134.771613H905.083871v52.851613l-215.832774-5.681548-612.946581 237.376412a459.465497 459.465497 0 1 0 855.997936-331.498529zM541.002323 630.784a113.188335 113.188335 0 0 0-107.817291 82.765626h-36.731871a144.27169 144.27169 0 0 1 284.07742 0h-31.710968a113.188335 113.188335 0 0 0-107.81729-82.778839z"  /></svg>