<?xml version="1.0" standalone="no"?><!DOCTYPE svg PUBLIC "-//W3C//DTD SVG 1.1//EN" "http://www.w3.org/Graphics/SVG/1.1/DTD/svg11.dtd"><svg class="icon" width="200px" height="200.00px" viewBox="0 0 1024 1024" version="1.1" xmlns="http://www.w3.org/2000/svg"><path fill="#333333" d="M512 1024A512 512 0 1 1 1024 512 512 512 0 0 1 512 1024z m0-971.485316A459.485316 459.485316 0 1 0 971.47871 512 459.491923 459.491923 0 0 0 512 52.514684z m141.972645 150.587458h31.116387a111.371561 111.371561 0 0 0 105.769291 82.772232 104.96991 104.96991 0 0 0 41.55458-8.588387v38.978065a135.590813 135.590813 0 0 1-39.110193 5.813677c-68.574968 0.006606-125.786839-51.021626-139.330065-118.975587zM515.303226 636.716594a139.78591 139.78591 0 0 1-39.63871-5.774039v-38.733626a108.345806 108.345806 0 0 0 42.083097 8.548748 112.448413 112.448413 0 0 0 107.156645-82.197471h31.512774A145.566555 145.566555 0 0 1 515.303226 636.716594zM231.225806 321.668129a139.78591 139.78591 0 0 1-39.638709-5.774039v-38.733625a108.345806 108.345806 0 0 0 42.083097 8.548748 112.448413 112.448413 0 0 0 107.156645-82.197471h31.512774A145.566555 145.566555 0 0 1 231.225806 321.668129zM330.322581 469.058065H218.012903V369.96129h112.309678v99.096775z m475.664516 0h-112.309678V369.96129h112.309678v99.096775z"  /></svg>