<?xml version="1.0" standalone="no"?><!DOCTYPE svg PUBLIC "-//W3C//DTD SVG 1.1//EN" "http://www.w3.org/Graphics/SVG/1.1/DTD/svg11.dtd"><svg class="icon" width="200px" height="198.83px" viewBox="0 0 1030 1024" version="1.1" xmlns="http://www.w3.org/2000/svg"><path fill="#333333" d="M1018.796108 589.691658a44.004277 44.004277 0 0 1-1.651316 24.102613c-51.521069 152.469337-161.564787 234.916258-185.806111 237.597995s-63.740809-10.568424-79.659499 6.605265c-7.001581 7.516792 0.924737 13.263373 6.605265 39.631592l-13.21053 59.90315c0 21.592612-17.371848 39.096565-30.978694 39.096565h-64.203178c-13.606846 0-24.637639-17.503953-24.637639-39.096565l-7.001581-38.006696 0.858684-6.479765 1.585264-3.36208h-0.066053a15.020373 15.020373 0 0 1-1.387105 2.424132l-0.132106 0.964369-1.519211 3.302632a1.122895 1.122895 0 0 1 0.066053 0.092474l0.594474 3.058238-11.493162 83.497157c-9.247371 23.250534-62.221598 23.640244-72.591864 16.156479-15.258163-10.938319-15.654479-60.055071-14.795795-88.550185a6.882686 6.882686 0 0 0-4.755791-7.265792 7.094055 7.094055 0 0 0-6.010791 7.655502c0.858684 28.508325 0.462369 77.644893-14.663689 88.583212-10.370266 7.490371-63.080283 7.10066-72.327654-16.163084l-11.361056-83.523579 0.528421-3.064843a1.605079 1.605079 0 0 1 0.132105-0.092473l-1.585263-3.302633-0.132105-0.957763a14.307004 14.307004 0 0 1-1.321054-2.424133h-0.066052l1.519211 3.355475 0.924737 6.492976-7.001581 38.019906c0 21.599217-10.96474 39.109775-24.571587 39.109776h-63.872915c-13.540794 0-30.780536-17.510558-30.780535-39.109776l-13.210531-59.929571c5.680528-26.348403 13.540794-32.101589 6.605265-39.631591-15.852637-17.17369-55.087912-3.923528-79.263182-6.605266S64.467389 766.607082 13.21053 614.078297a44.024093 44.024093 0 0 1-1.651316-24.109218A357.741164 357.741164 0 0 1 0 511.736318 511.815581 511.815581 0 0 1 511.908055 0c0.660527 0 1.387106 0 2.047632 0.052842S515.342793 0 516.069372 0C800.161829 0 1030.421375 229.004545 1030.421375 511.491923a353.593058 353.593058 0 0 1-11.625267 78.199735zM516.069372 52.459016H515.210687v0.085869c-0.528421 0-1.122895 0-1.651316-0.039632h-0.792632v-0.039631h-0.858684A459.316933 459.316933 0 0 0 52.511859 511.683476a453.966668 453.966668 0 0 0 6.473159 76.304024c29.195272 126.50404 120.612143 211.005198 139.172939 217.517989s117.375563 2.126895 125.500039 46.236856v26.421061c-32.035536 5.284212-6.076844 71.911522-6.076844 71.911522 0 12.95953 6.605265 23.468507 14.729741 23.468508h32.762116c8.124476 0 8.454739-10.508977 8.454739-23.468508a222.51157 222.51157 0 0 1 9.907898-39.86938 36.144011 36.144011 0 0 1 5.020002-8.851056 11.45353 11.45353 0 0 1 3.831054-4.920922l5.878686-12.622662c9.181319-6.057028 26.222903 3.507396 39.697644 21.453901a0.911527 0.911527 0 0 1 0.198158-0.323658l6.935528 79.494367a25.146245 25.146245 0 0 0 32.035536 12.602846c5.746581-3.500791 5.812633-54.988833 5.020002-79.57363-0.726579-23.560981 20.013954-23.415665 30.912641-21.731323 10.040003-1.908922 33.885011-3.837659 33.092379 21.361428-0.792632 24.571587-0.726579 76.039813 5.020001 79.540604a25.258534 25.258534 0 0 0 32.167642-12.596241l7.067634-79.467946a0.832263 0.832263 0 0 0 0.198158 0.330264c13.474741-17.9399 30.648431-27.497719 39.829749-21.447297l5.878686 12.616057a11.110056 11.110056 0 0 1 3.897107 4.920923 36.144011 36.144011 0 0 1 5.020001 8.851055 218.9117 218.9117 0 0 1 9.973951 39.849565c0 12.95953 0.330263 23.461902 8.520792 23.461902h32.894221c8.190529 0 14.795794-10.502372 14.795794-23.461902 0 0 26.090798-66.587679-6.076844-71.878496v-26.421061c8.124476-44.07033 107.467665-39.691039 126.094513-46.197225s110.506087-90.980923 139.833465-217.43212a453.576958 453.576958 0 0 0 6.47316-76.270998c0-253.516684-206.612696-459.032907-461.575934-459.032907z m248.886393 620.736405c-44.981856-51.620148-25.16606-28.805562-79.659498-65.99981s-79.329235-12.464135-90.492134-41.82454c-14.927899-39.413618 0.264211-67.902126 32.960274-72.968364 396.646177-61.627125 233.760336 291.642275 137.191358 180.792714z m-250.80192 115.090141c-19.617638 22.807981-45.840541 47.161594-54.757649 31.348589-31.969484-57.023255 9.313424-134.615305 53.370543-164.537157v-1.981579c0.462369 0.297237 0.924737 0.660527 1.387106 0.997395 0.396316-0.224579 0.726579-0.515211 1.056842-0.733185v1.466369c44.255277 29.908641 85.736343 107.47427 53.568701 164.471104-8.851055 15.720531-35.007906-8.322634-54.625543-31.031536zM343.473792 607.440006c-54.229227 37.207459-34.479484 14.386268-79.263183 66.052652C168.104 784.36864 6.010791 430.980345 400.807494 492.627286c32.431852 5.072844 47.623962 33.567958 32.762115 72.994785-11.096846 29.353799-35.86659 4.60387-90.095817 41.817935z"  /></svg>