<?xml version="1.0" standalone="no"?><!DOCTYPE svg PUBLIC "-//W3C//DTD SVG 1.1//EN" "http://www.w3.org/Graphics/SVG/1.1/DTD/svg11.dtd"><svg class="icon" width="200px" height="200.00px" viewBox="0 0 1024 1024" version="1.1" xmlns="http://www.w3.org/2000/svg"><path fill="#333333" d="M945.432256 550.38804c-49.693957 89.640783-128.970619 128.156717-215.290157 114.37946l27.24602 46.602442c77.885153 73.126453 81.390181 218.650784-35.851062 297.225128-23.517824 15.752938-98.153933 37.413229-118.147038-38.725973-42.165365-160.27302-144.651356-215.460814-181.19161-230.386723v0.098456c-1.923171-0.767956-3.537847-1.437456-5.32318-2.166029-5.014685-1.857534-7.928979-2.664872-7.928979-2.664873l-0.085328-0.623553c-41.18737-17.229776-42.664208-22.841761-70.625674-46.641825L72.535688 714.139834l-0.656372-11.276478-2.467961 0.492279-57.065019-412.201886-2.474524-9.950607 1.089578-0.072201-0.052509-0.341313 9.845586-0.33475 216.261589-14.827453 13.521272-33.159936a249.36245 249.36245 0 0 1 264.518089-153.236707l18.017423-16.041742c101.271702-90.165881 254.482155-83.037676 342.199767 15.923595 1.188034 1.312745 2.166029 2.80271 3.321245 4.167965l-1.384946 1.23398 42.237566 49.444535c196.609798 219.937274 25.985785 416.428925 25.985784 416.428925zM873.572603 182.018704l-43.038341-55.831039-0.774519 0.656373c-1.148652-1.371818-2.13321-2.822401-3.327808-4.161401-68.22335-76.972795-187.387765-82.519142-266.152457-12.392312l-41.712468 37.137552 1.693441 0.77452c-0.833593 1.62124-1.79846 3.13746-2.586108 4.798082a184.847604 184.847604 0 0 0 88.13769 249.369014l72.85734 33.219009-23.38655 49.103221-82.571651-37.649522c-115.521548-52.680451-166.895818-186.40977-120.116155-304.825921a194.56848 194.56848 0 0 0-156.275712 119.584493l-30.77074 75.48283-23.800064-9.189214-152.160257 5.60542L128.084487 649.526532l216.248461-26.254897 1.739387 6.255229 3.163715-3.24248c21.246776 17.846766 31.217073 15.490389 48.978511 28.020539l-0.210039-1.575294s192.868475 94.097552 225.936518 222.694039 70.809458 87.868577 76.073565 84.514514c95.90914-61.082018 81.711804-166.974583 27.777681-215.191701L651.062349 638.131907c-1.726259-0.886103-3.459083-1.726259-5.185343-2.62549-1.588421-0.853284-3.006186-1.877225-4.594607-2.756764a27.790809 27.790809 0 0 1 5.080323-35.58195c17.662982-16.461821 20.793879-16.087688 25.85451-14.564904 92.607586 27.915519 180.449909 25.165319 231.469738-66.871223 0.019691-0.05251 128.018879-176.524802-30.114367-333.712872z"  /></svg>