<?xml version="1.0" standalone="no"?><!DOCTYPE svg PUBLIC "-//W3C//DTD SVG 1.1//EN" "http://www.w3.org/Graphics/SVG/1.1/DTD/svg11.dtd"><svg class="icon" width="200px" height="183.51px" viewBox="0 0 1116 1024" version="1.1" xmlns="http://www.w3.org/2000/svg"><path fill="#333333" d="M742.805458 1009.644644a36.572136 36.572136 0 0 1-28.142576 14.34875 28.301126 28.301126 0 0 1-20.082965-7.927486c-12.353666 0.98433-24.707332 1.625135-37.259185 1.625134-253.613496 0-459.199639-204.13277-459.199639-455.969188a452.078114 452.078114 0 0 1 13.080352-108.097881l-54.171156 21.998775-5.747427-12.994471 0.990936-0.402981 26.226766-50.749124-42.279926 17.17622-5.747427-13.001078 64.344763-26.11446 5.747427 13.001077-0.264249 0.099094 0.330312 0.099093-26.094643 50.45845 41.090804-16.660934 0.066062 0.198188a452.527338 452.527338 0 0 1 51.726848-115.741299L44.063611 240.6983l18.56353-52.149647 3.765556 1.367492 206.973452-79.446625-162.31528-58.319873 18.563531-52.149647 247.007257 88.768027-18.497467 52.149647-0.990936-0.356737 0.660624 1.116454L152.009548 220.681397l148.970678 53.510532A459.411038 459.411038 0 0 1 657.320732 105.732847c253.547434 0 459.133576 204.13277 459.133576 455.969188a456.887455 456.887455 0 0 1-373.64885 447.942609z m-29.331699-10.979569c36.466437-0.858811 34.154253-96.721938 34.154253-96.721938s23.518209 10.629438 28.869262-16.693964c8.389923-42.94055-13.476727-82.901687-13.476726-82.901687s-69.23338 11.138118-76.566305 18.418193-18.167156 178.963001 27.019516 177.899396zM603.017451 764.308764h89.052095c24.509145 0 72.602561-4.346905 91.364279 13.476727a192.565246 192.565246 0 0 0 71.083126-132.554176H466.004064a193.397632 193.397632 0 0 0 88.787846 145.436341 59.839308 59.839308 0 0 1 48.225541-26.358892z m-27.085578 38.038722a195.471991 195.471991 0 0 0 84.361666 19.158091c1.783684 0 3.501306-0.125519 5.284991-0.171762a24.026889 24.026889 0 0 1 4.492242-12.64434c6.738363-4.32048 37.787684-13.212477 64.939324-20.47934a276.286107 276.286107 0 0 0-47.432792-0.852205H607.509693a38.904139 38.904139 0 0 0-29.397761 14.982949h-2.180059z m81.388859-649.855683c-227.584917 0-412.097158 183.204206-412.097159 409.203626s184.512242 409.203626 412.097159 409.203626c4.888616 0 9.711171-0.198187 14.599787-0.369949-10.041483-38.976807-11.494855-90.710261-9.116609-125.161795-0.858811 0-1.717622 0.066062-2.510371 0.066062a218.441883 218.441883 0 0 1-219.261056-217.609496c0-1.459979 0.132125-2.900139 0.132125-4.353512h438.1918c0 1.453372 0.132125 2.893532 0.132125 4.353512a216.684623 216.684623 0 0 1-89.778782 175.560788 170.143673 170.143673 0 0 1 7.861424 87.618541c-7.531112 37.569678-31.84207 31.670307-31.842069 31.670308a238.333267 238.333267 0 0 1-2.972808 34.649721 409.837825 409.837825 0 0 0 306.595529-395.627806c0-225.999419-184.446179-409.203626-412.031095-409.203626z m233.926905 402.841818a140.224019 140.224019 0 0 1-135.956388-114.050101h35.145189a106.776633 106.776633 0 0 0 206.378891 0h30.322634a140.210806 140.210806 0 0 1-135.890326 114.050101z m-467.919873 0a140.15135 140.15135 0 0 1-135.890326-114.050101h35.145188a106.730389 106.730389 0 0 0 206.312829 0h30.388697a140.276868 140.276868 0 0 1-135.956388 114.050101zM77.953614 296.025548l21.6024-9.380859 45.054547 102.396697-21.6024 9.380858-0.198187-0.409586-0.132125 0.521892-84.824102-40.958678 28.737137 65.348911-21.6024 9.380859L0 329.908945l21.536338-9.380859 0.726686 1.585497 85.286539 41.163473z"  /></svg>