<?xml version="1.0" standalone="no"?><!DOCTYPE svg PUBLIC "-//W3C//DTD SVG 1.1//EN" "http://www.w3.org/Graphics/SVG/1.1/DTD/svg11.dtd"><svg class="icon" width="200px" height="200.00px" viewBox="0 0 1024 1024" version="1.1" xmlns="http://www.w3.org/2000/svg"><path fill="#333333" d="M512 1024A512 512 0 1 1 1024 512 512 512 0 0 1 512 1024z m0-971.485316A459.491923 459.491923 0 1 0 971.47871 512 459.485316 459.485316 0 0 0 512 52.508077zM766.348387 587.974194a145.341935 145.341935 0 1 1 145.341936-145.341936 145.341935 145.341935 0 0 1-145.341936 145.341936z m0-277.52382A132.181884 132.181884 0 1 0 898.543484 442.632258 132.195097 132.195097 0 0 0 766.348387 310.450374zM763.045161 429.419355a52.851613 52.851613 0 1 1 52.851613-52.851613 52.851613 52.851613 0 0 1-52.851613 52.851613zM627.612903 746.529032H396.387097v-39.638709h231.225806v39.638709zM257.651613 587.974194a145.341935 145.341935 0 1 1 145.341935-145.341936 145.341935 145.341935 0 0 1-145.341935 145.341936z m0-277.52382A132.181884 132.181884 0 1 0 389.84671 442.632258 132.195097 132.195097 0 0 0 257.651613 310.450374zM254.348387 429.419355a52.851613 52.851613 0 1 1 52.851613-52.851613 52.851613 52.851613 0 0 1-52.851613 52.851613z"  /></svg>