<?xml version="1.0" standalone="no"?><!DOCTYPE svg PUBLIC "-//W3C//DTD SVG 1.1//EN" "http://www.w3.org/Graphics/SVG/1.1/DTD/svg11.dtd"><svg class="icon" width="200px" height="200.00px" viewBox="0 0 1024 1024" version="1.1" xmlns="http://www.w3.org/2000/svg"><path fill="#333333" d="M512 1024A512 512 0 1 1 1024 512 512 512 0 0 1 512 1024z m0-971.491923A459.491923 459.491923 0 1 0 971.47871 512 459.491923 459.491923 0 0 0 512 52.508077zM654.03871 419.509677v-46.245161h251.045161v52.851613z m-0.066065-214.755922h31.116387a111.371561 111.371561 0 0 0 105.769291 82.772232 104.96991 104.96991 0 0 0 41.55458-8.588387v38.978065a135.590813 135.590813 0 0 1-39.110193 5.813677C724.727742 323.716129 667.515871 272.707716 653.972645 204.753755zM680.464516 640.825806H488.877419v-46.245161h191.587097v46.245161zM132.129032 373.264516h251.045162v52.851613l-251.045162-6.606452v-46.245161z m99.096774-49.944774a139.78591 139.78591 0 0 1-39.638709-5.774039V278.792258a108.345806 108.345806 0 0 0 42.083097 8.548748 112.448413 112.448413 0 0 0 107.156645-82.197471h31.512774A145.566555 145.566555 0 0 1 231.225806 323.319742z"  /></svg>