<?xml version="1.0" standalone="no"?><!DOCTYPE svg PUBLIC "-//W3C//DTD SVG 1.1//EN" "http://www.w3.org/Graphics/SVG/1.1/DTD/svg11.dtd"><svg class="icon" width="200px" height="200.00px" viewBox="0 0 1024 1024" version="1.1" xmlns="http://www.w3.org/2000/svg"><path fill="#333333" d="M512 1024A512 512 0 1 1 1024 512 512 512 0 0 1 512 1024z m0-971.491923A459.491923 459.491923 0 1 0 971.47871 512 459.491923 459.491923 0 0 0 512 52.508077zM654.03871 419.509677v-46.245161h251.045161v52.851613z m-19.88542 333.473858c0 40.220077-45.188129 72.822916-100.880516 72.822917-1.585548 0-3.171097-0.118916-4.756645-0.171768v-18.907665c1.585548 0.066065 3.171097 0.178374 4.756645 0.178375 45.584516 0 76.965161-21.015123 76.965161-53.921859 0-32.642477-30.786065-59.121135-75.908129-59.537341-1.915871 0.138735-3.897806 0.151948-5.813677 0.218012v-18.980335c1.585548-0.059458 3.105032 5.483355 4.756645 5.483355 0 0 0.066065-5.661729 0.132129-5.661729 41.026065-3.435355 67.385806-22.924387 67.385807-53.512258 0-31.750606-28.870194-51.959742-72.274581-53.743484v-18.901058c53.512258 1.796955 96.123871 33.580594 96.123871 72.670968 0 27.958503-21.80129 52.190968-53.842581 64.406296 37.128258 10.76191 63.355871 36.930065 63.355871 67.557574zM132.129032 373.264516h251.045162v52.851613l-251.045162-6.606452v-46.245161z"  /></svg>