<?xml version="1.0" standalone="no"?><!DOCTYPE svg PUBLIC "-//W3C//DTD SVG 1.1//EN" "http://www.w3.org/Graphics/SVG/1.1/DTD/svg11.dtd"><svg class="icon" width="200px" height="200.00px" viewBox="0 0 1024 1024" version="1.1" xmlns="http://www.w3.org/2000/svg"><path fill="#333333" d="M512 1024A512 512 0 1 1 1024 512 512 512 0 0 1 512 1024z m459.47871-512v-0.799381l-154.789162 75.624052c5.945806 29.933832 13.543226 84.886297 3.105033 137.235819a400.853058 400.853058 0 0 1-41.620646 108.484542l58.533162 4.545239a458.130994 458.130994 0 0 0 134.771613-325.090271z m-392.951742 353.16769c12.221935-0.046245 20.678194-0.09249 22.660129-0.151948v0.383174a727.178735 727.178735 0 0 0 133.978838-12.552258c15.987613-30.046142 42.149161-84.754168 52.983742-138.940284a327.058994 327.058994 0 0 0 0.330323-113.34689l-1.453419 0.70689L780.882581 587.974194H236.510968l-6.210065 13.298787-1.387355-0.706891a327.058994 327.058994 0 0 0 0.330323 113.346891c10.834581 54.172903 36.996129 108.894142 52.983742 138.940284A727.370323 727.370323 0 0 0 419.972129 865.445161c7.267097 0 97.709419-0.085884 148.18271-0.244438v-0.191588c3.435355 0.099097 6.936774 0.085884 10.372129 0.151949zM512 971.491923a457.43071 457.43071 0 0 0 290.419613-103.483458l-43.206194-3.415536a363.777652 363.777652 0 0 1-11.297032 16.88609l-6.342193-1.255225c-15.525161 4.624516-67.716129 18.260232-146.795355 18.260232-5.615484 0-11.297032-0.138735-16.978581-0.244439-47.037935 0.151948-148.248774 0.244439-155.185548 0.244439-79.079226 0-131.270194-13.615897-146.795355-18.260232l-6.342194 1.255225s-4.492387-6.183639-11.363096-16.88609l-37.128259 2.946477a457.41089 457.41089 0 0 0 291.014194 103.94591z m-325.169548-134.877317l52.389161-4.069574a400.853058 400.853058 0 0 1-41.620645-108.484542c-10.438194-52.349523-2.840774-107.301987 3.105032-137.235819L52.587355 514.444387a458.005471 458.005471 0 0 0 134.243097 322.163613zM512 52.514684A459.379613 459.379613 0 0 0 53.908645 477.917316l169.25729 82.699561 6.27613-1.255225L231.225806 554.941935h554.941936l1.783742 4.41311 6.210064 1.255226L969.827097 474.805677A459.379613 459.379613 0 0 0 512 52.508077zM654.03871 419.509677v-46.245161h251.045161v52.851613z m-0.066065-214.749316h31.116387a111.364955 111.364955 0 0 0 105.769291 82.765626 104.963303 104.963303 0 0 0 41.55458-8.588387v38.978065a135.590813 135.590813 0 0 1-39.110193 5.813677C724.727742 323.716129 667.515871 272.70111 653.972645 204.753755zM132.129032 373.264516h251.045162v52.851613l-251.045162-6.606452v-46.245161z m99.096774-49.938168a139.78591 139.78591 0 0 1-39.638709-5.774038V278.792258a108.345806 108.345806 0 0 0 42.083097 8.548748 112.448413 112.448413 0 0 0 107.156645-82.197471h31.512774A145.566555 145.566555 0 0 1 231.225806 323.319742z"  /></svg>