<?xml version="1.0" standalone="no"?><!DOCTYPE svg PUBLIC "-//W3C//DTD SVG 1.1//EN" "http://www.w3.org/Graphics/SVG/1.1/DTD/svg11.dtd"><svg class="icon" width="200px" height="195.98px" viewBox="0 0 1045 1024" version="1.1" xmlns="http://www.w3.org/2000/svg"><path fill="#333333" d="M1044.285269 200.967345l-8.377432 35.686542a146.176299 146.176299 0 0 1-83.246611-165.180537c0.197892-1.055425 0.593676-2.058078 0.857532-3.10031l35.092866 8.219119-0.197892 0.692622a113.035968 113.035968 0 0 0 55.871537 123.682564zM219.075207 481.538766V382.592715h112.138857v98.946051H219.075207z m7.519899-226.071937l189.250813 77.41539-14.973835 36.629828-189.250813-77.41539zM694.01625 481.538766V382.592715h112.138857v98.946051h-112.138857z m57.652565-246.573558l8.377432-35.693139a146.222474 146.222474 0 0 1 83.312575 165.187133c-0.263856 1.055425-0.593676 2.051481-0.857532 3.10031l-35.092866-8.225715 0.197892-0.659641a109.262826 109.262826 0 0 0-3.496094-61.544443L624.160338 369.340541l-14.973836-35.970188 175.596258-70.469377a116.466098 116.466098 0 0 0-33.113945-27.935768z m164.844121 149.197451a2.711122 2.711122 0 0 0-0.131929 0.705815l-35.092866-8.225715c0.197892-1.055425 0.32982-2.104253 0.593677-3.166273a146.169702 146.169702 0 0 1 148.023292-110.971294l-8.377433 35.693138a117.758993 117.758993 0 0 0-40.106132 9.439454 511.979848 511.979848 0 1 1-144.988946-191.711272 109.790538 109.790538 0 0 0 43.074514-64.163215c0.065964-0.230874 0.065964-0.468345 0.131928-0.705816l35.092866 8.225715c-0.197892 1.055425-0.32982 2.110849-0.593677 3.166274a146.209281 146.209281 0 0 1-148.023291 110.971294l8.377432-35.686542c1.253317-0.07256 2.506633-0.250663 3.75995-0.356206a458.865608 458.865608 0 1 0 159.962782 202.780036 108.213997 108.213997 0 0 0-21.702167 44.004607zM622.841057 633.295622a111.439639 111.439639 0 0 0-215.306606 0h-36.676003a144.052257 144.052257 0 0 1 283.645345 0h-31.662736z"  /></svg>