<?xml version="1.0" standalone="no"?><!DOCTYPE svg PUBLIC "-//W3C//DTD SVG 1.1//EN" "http://www.w3.org/Graphics/SVG/1.1/DTD/svg11.dtd"><svg class="icon" width="200px" height="200.00px" viewBox="0 0 1024 1024" version="1.1" xmlns="http://www.w3.org/2000/svg"><path fill="#333333" d="M512 1024A512 512 0 1 1 1024 512 512 512 0 0 1 512 1024z m0-971.485316A459.485316 459.485316 0 1 0 971.47871 512 459.491923 459.491923 0 0 0 512 52.514684zM693.677419 369.96129h112.309678v99.096775h-112.309678V369.96129zM515.303226 636.716594a145.454245 145.454245 0 0 1-141.113807-118.156388h36.467613a110.902503 110.902503 0 0 0 214.247226 0h31.512774A145.566555 145.566555 0 0 1 515.303226 636.716594zM218.012903 369.96129h112.309678v99.096775H218.012903V369.96129z"  /></svg>