<?xml version="1.0" standalone="no"?><!DOCTYPE svg PUBLIC "-//W3C//DTD SVG 1.1//EN" "http://www.w3.org/Graphics/SVG/1.1/DTD/svg11.dtd"><svg class="icon" width="200px" height="200.00px" viewBox="0 0 1024 1024" version="1.1" xmlns="http://www.w3.org/2000/svg"><path fill="#333333" d="M512 1024A512 512 0 1 1 1024 512 512 512 0 0 1 512 1024z m0-971.485316A459.485316 459.485316 0 1 0 971.47871 512 459.491923 459.491923 0 0 0 512 52.514684zM792.774194 469.058065v-52.851613H654.03871v-46.245162h251.045161v99.096775h-112.309677zM653.972645 204.753755h31.116387a111.364955 111.364955 0 0 0 105.769291 82.765626 104.963303 104.963303 0 0 0 41.55458-8.588387v38.978064a135.590813 135.590813 0 0 1-39.110193 5.813677C724.727742 323.716129 667.515871 272.707716 653.972645 204.753755zM680.464516 640.825806H488.877419v-46.245161h191.587097v46.245161zM270.864516 416.206452H132.129032v-46.245162h251.045162v99.096775H270.864516v-52.851613z m-39.63871-92.88671a139.78591 139.78591 0 0 1-39.638709-5.767432V278.792258a108.471329 108.471329 0 0 0 42.083097 8.542142 112.448413 112.448413 0 0 0 107.156645-82.197471h31.512774A145.566555 145.566555 0 0 1 231.225806 323.319742z"  /></svg>