<?xml version="1.0" standalone="no"?><!DOCTYPE svg PUBLIC "-//W3C//DTD SVG 1.1//EN" "http://www.w3.org/Graphics/SVG/1.1/DTD/svg11.dtd"><svg class="icon" width="200px" height="200.00px" viewBox="0 0 1024 1024" version="1.1" xmlns="http://www.w3.org/2000/svg"><path fill="#333333" d="M512 1024A512 512 0 1 1 1024 512 512 512 0 0 1 512 1024z m0-971.485316A459.485316 459.485316 0 1 0 971.47871 512 459.491923 459.491923 0 0 0 512 52.514684z m344.988903 378.549677l-1.32129 97.531045-88.130065-45.544877-95.000774 28.586116 16.648258-96.117264-57.410064-79.865394 98.436129-13.873548 59.524129-77.956129 44.197161 87.548696 94.141936 31.710968z m-36.401548-80.975277l-34.485678-66.797832-46.245161 59.319329-76.568774 10.418374 44.791742 60.957729-12.816516 73.232516 73.860129-21.649342 68.707097 34.849032 0.858838-74.335793 55.229936-51.695484zM822.503226 528.516129h19.621161c0.066065 2.206555 0.198194 4.39329 0.198194 6.606452a330.322581 330.322581 0 0 1-660.645162 0c0-2.213161 0.132129-4.399897 0.198194-6.606452h640.627613z m-310.503226 300.593548a293.167897 293.167897 0 0 0 206.517677-84.780593 265.090477 265.090477 0 0 0-416.668903-3.719432A293.002735 293.002735 0 0 0 512 829.109677zM219.268129 561.548387a291.734297 291.734297 0 0 0 60.382968 153.580181 298.050065 298.050065 0 0 1 461.460645 4.122426A292.665806 292.665806 0 0 0 804.797935 561.548387H219.268129z m131.138065-55.348852l-94.604388-28.645574-87.799741 45.643974-1.321291-97.775483-70.755097-68.112517 93.745549-31.763819L233.670194 237.832258l59.325935 78.114684 97.973677 13.873548-57.145806 80.043768z m9.182967-158.951225l-76.238451-10.438194-46.046968-59.458064-34.353548 66.943174-73.001291 24.35138 54.965678 51.807794 0.924903 74.494348 68.31071-34.921703 73.595871 21.695587-12.750452-73.391071z"  /></svg>