<?xml version="1.0" standalone="no"?><!DOCTYPE svg PUBLIC "-//W3C//DTD SVG 1.1//EN" "http://www.w3.org/Graphics/SVG/1.1/DTD/svg11.dtd"><svg class="icon" width="200px" height="200.00px" viewBox="0 0 1024 1024" version="1.1" xmlns="http://www.w3.org/2000/svg"><path fill="#333333" d="M1004.275032 547.7899c-47.226684 299.595513-262.950249 424.13525-460.839961 462.973418-266.715173 52.365475-530.193832-68.448968-530.193832-68.448968s153.76744-77.999987 83.554902-394.52445C31.339297 252.38204 299.969958 0 550.568612 0s504.235669 227.071179 453.70642 547.7899zM550.568612 56.183241c-224.904696 0-476.494121 229.032903-407.2063 491.606659 77.147925 292.488393-32.36514 371.082841-32.36514 371.082842s222.857106 97.716302 425.37041 42.411543c226.555979-61.863653 398.949887-190.604253 421.34128-413.481175 30.713857-305.031536-182.301604-491.61987-407.14025-491.619869z m184.08499 410.323922a56.546523 56.546523 0 1 1 56.738072-56.546523 56.65881 56.65881 0 0 1-56.738072 56.546523z m-65.324742 121.607059l28.79837 81.15724c12.087389 30.87238-9.445337 63.917849-40.423399 75.959002s-78.270797-6.704208-90.358187-37.576588l-25.760009-65.859757a157.420077 157.420077 0 0 1-141.283743-126.818508h34.280627a163.014623 163.014623 0 0 0 25.165548 39.974251 118.700802 118.700802 0 0 0 199.078636-11.651451h-4.095181a160.266889 160.266889 0 0 0 16.050467-28.276564h0.330257v-0.046236h34.016422a161.165186 161.165186 0 0 1-35.799808 73.138611z m-19.815391 19.359638a152.869142 152.869142 0 0 1-78.997362 33.686166l21.929033 58.501642A41.718005 41.718005 0 0 0 647.399827 723.922312a44.399688 44.399688 0 0 0 24.571086-56.513497zM352.216541 494.314763a120.160536 120.160536 0 1 1 120.543633-120.167141 120.338874 120.338874 0 0 1-120.543633 120.167141z"  /></svg>