<?xml version="1.0" standalone="no"?><!DOCTYPE svg PUBLIC "-//W3C//DTD SVG 1.1//EN" "http://www.w3.org/Graphics/SVG/1.1/DTD/svg11.dtd"><svg class="icon" width="200px" height="200.00px" viewBox="0 0 1024 1024" version="1.1" xmlns="http://www.w3.org/2000/svg"><path fill="#333333" d="M715.809032 362.859355l0.72671 1.651613-4.82271 4.18849-4.492387 6.368619-1.585548-1.090064-13.609291 11.891613-15.987612-32.794426-2.708646-1.942297 1.057033-1.506271-4.756646-9.81058a123.190503 123.190503 0 0 0-162.38658-56.43231c-1.057032 0.488877-22.924387 7.89471-23.915355 8.410013l2.576516-38.20511-1.32129-0.105703 19.356903-203.016258-2.378323-8.000413 3.831742-7.366194 3.105033-32.424464 7.002838 13.265755 34.816 66.315561c11.891613 20.209135 20.810323 26.564542 34.816 41.409239v2.424567a121.228387 121.228387 0 0 0 67.716129-49.297341L709.070452 0.019819l1.057032 52.4288-1.123097 1.697858-5.747613 51.173575A117.944981 117.944981 0 0 0 724.067097 186.169806l1.585548-1.896051a123.798297 123.798297 0 0 0 58.533161-24.443871l37.656775-16.595407 0.990967-1.32129L898.477419 104.646194z m-23.056516-139.07902l5.285161-6.401651a151.23489 151.23489 0 0 1-30.653935-102.4 156.724852 156.724852 0 0 1-82.250323 50.922529v8.172181c-21.404903-14.943794-42.941935-32.312155-56.881548-54.694813l-1.717677 115.381677a157.748852 157.748852 0 0 1 170.776774 82.864723l79.805935-111.708491a161.342761 161.342761 0 0 1-84.364387 17.863845z m8.456258 293.167897l50.076903 20.6848 0.264258-0.70689c1.123097 0.376568 2.246194 0.660645 3.303226 1.037213 80.929032 29.867768 128.759742 118.143174 98.105807 197.156335l-1.585549 41.514942 1.189162 0.059458c0 1.142916 0.066065 2.259406 0 3.408929-4.756645 84.344568-78.682839 148.935845-165.095226 144.271691l-15.393032-0.832413a159.347613 159.347613 0 0 1-193.106581 28.896619l-22.329807-12.552258-231.886451 83.7632-0.198194 0.132129h-0.066064l-0.660645 0.237832-2.840775-6.428077L128.231226 854.782348l1.387355-0.739922-4.096-5.879742 227.328-120.613987a139.521652 139.521652 0 0 1-4.426323-45.181523l-112.309677-253.443303c-10.041806-18.716077-2.642581-55.414916 16.582193-65.205677 72.803097-37.187716 155.780129-2.893626 193.899355 68.218219L522.438194 556.923871a159.268335 159.268335 0 0 1 178.77058-39.975639zM416.206452 446.840568c-24.642065-48.762219-74.256516-80.129652-132.129033-57.826271-4.426323 1.704465-21.603097 25.064877-10.570322 38.561858l115.612903 247.3984-2.708645 1.083458 0.924903 1.836593a116.128206 116.128206 0 0 0 1.717677 55.289394l-6.804645 6.216671 6.408258 15.280723-209.160258 106.628129 65.866323 115.665754 194.626064-74.282942 5.020904-8.522322 45.254193 25.415019a124.20129 124.20129 0 0 0 125.720774-2.64258 150.977239 150.977239 0 0 1-60.581161-199.944258l26.491871-51.688878 31.116387 15.194839-23.320774 45.584516a117.641084 117.641084 0 0 0 54.503226 159.598658c1.057032 0.508697 2.114065 0.885265 3.171097 1.360929l-0.528517 1.057032 35.608775 1.922478a120.898065 120.898065 0 0 0 128.429419-112.210581c0.066065-1.149523-0.066065-2.266013 0-3.402322h0.660645l-0.528516-45.016362a118.189419 118.189419 0 0 0-70.887226-153.342348c-1.123097-0.4096-2.246194-0.660645-3.36929-1.04382l2.180129-5.62209-44.857807-18.557522a122.979097 122.979097 0 0 0-159.744 63.157677c-0.462452 1.057032-0.792774 2.133884-1.189161 3.197523l-38.515613-15.908336c0.462452-1.057032 0.792774-2.14049 1.255226-3.190916 0.198194-0.469058 0.462452-0.891871 0.660645-1.360929z"  /></svg>