<?xml version="1.0" standalone="no"?><!DOCTYPE svg PUBLIC "-//W3C//DTD SVG 1.1//EN" "http://www.w3.org/Graphics/SVG/1.1/DTD/svg11.dtd"><svg class="icon" width="200px" height="200.00px" viewBox="0 0 1024 1024" version="1.1" xmlns="http://www.w3.org/2000/svg"><path d="M304.63876 986.265896c-9.618497-11.098266-21.456647-25.156069-21.456647-25.156069l82.127167-8.878613 26.635839 22.936416S360.869974 999.583815 304.63876 986.265896z" fill="#FFE700" /><path d="M283.182113 961.109827l2.219653 2.219653c16.277457 11.83815 71.028902 2.959538 72.508671-2.219653 0.739884-5.179191-36.99422-25.156069-36.99422-25.15607s-49.572254 10.358382-37.734104 25.15607z" fill="#CB281F" /><path d="M488.869974 1005.50289c-7.398844-2.219653-24.416185-22.196532-24.416185-22.196532l59.190752-34.034682 38.473988 24.416185s-16.277457 27.375723-24.416185 31.815029c-8.138728 5.179191-41.433526 2.219653-48.83237 0z" fill="#FFE700" /><path d="M464.453789 983.306358c0.739884 0.739884 1.479769 1.479769 2.219653 1.479769 17.757225 9.618497 81.387283-11.098266 82.127168-16.277456 0-5.179191-51.052023-16.277457-51.052023-16.277457s-47.352601 17.757225-33.294798 31.075144z" fill="#CB281F" /><path d="M311.29772 876.023121s-9.618497 59.930636-5.919075 66.589596c2.959538 5.919075 65.109827 35.514451 105.803468 34.034682 40.693642-1.479769 48.092486 11.098266 59.190751 6.658959 11.83815-4.439306 19.236994-18.49711 48.83237-17.757225 28.855491 0.739884 22.196532 11.098266 55.49133 23.676301 33.294798 12.578035 45.132948-6.65896 45.132948-6.65896s-19.976879-15.537572-17.757226-32.554913c2.219653-17.757225-1.479769-45.872832-1.479769-45.872833s-65.109827-19.236994-113.202312-11.098266-77.687861 2.219653-104.323699-10.358381c-26.635838-12.578035-48.092486-13.317919-48.092486-13.317919l-23.6763 6.658959z" fill="#FDD100" /><path d="M404.523153 564.531792s-25.895954 2.959538-51.052023 22.936416-39.953757 76.208092-46.612717 97.66474c-6.65896 20.716763-32.554913 27.375723-56.231213 91.745665-23.676301 64.369942 53.271676 119.861272 53.271676 119.861271s21.456647 5.179191 34.034682-18.497109c11.83815-23.676301 61.410405 42.913295 98.404624 25.156069s175.352601 4.439306 176.83237 2.959538c0.739884-1.479769-30.33526-25.895954-5.179191-50.312139 26.635838-25.156069 44.393064-71.768786 32.554914-112.462428s-15.537572-113.202312-34.034682-138.358381c-18.49711-25.156069-96.924855-37.734104-96.924856-37.734105l-105.063584-2.959537z" fill="#E74D47" /><path d="M309.817951 341.086705s-61.410405 92.485549-19.236994 177.572255c41.433526 85.086705 125.780347 97.66474 173.872832 99.144508s164.99422-36.99422 175.352601-109.50289c10.358382-72.508671-12.578035-155.375723-25.895953-161.294798-12.578035-5.919075-61.410405-38.473988-162.774567-36.254335-102.104046 2.959538-141.317919 30.33526-141.317919 30.33526z" fill="#F8E4CC" /><path d="M271.343963 765.040462l6.658959 7.398844 2.219653 24.416185s-14.057803 16.277457 22.936416 99.144509c-3.699422-0.739884-14.797688-11.83815-19.976878-14.797688-41.433526-70.289017-11.83815-116.16185-11.83815-116.16185z" fill="#FDD100" /><path d="M300.199454 753.942197c-34.774566 0-21.456647 97.66474-21.456648 97.664739s4.439306 49.572254 34.774567 44.393064 29.595376-41.433526 16.277457-78.427746c-11.83815-36.254335 5.919075-63.630058-29.595376-63.630057z" fill="#CE551D" /><path d="M581.355523 759.121387h-11.098266l-1.479768 25.895954s5.919075 26.635838-31.815029 108.763006c3.699422-0.739884 14.057803-2.219653 19.236994-5.919075 42.17341-68.809249 25.156069-128.739884 25.156069-128.739885z" fill="#FDD100" /><path d="M552.500032 759.861272c34.774566 5.919075 5.179191 99.884393 5.179191 99.884393s-12.578035 48.092486-42.173411 37.734104c-29.595376-10.358382-22.196532-45.872832-2.959537-79.907515 18.49711-33.294798 5.179191-62.890173 39.953757-57.710982z" fill="#CE551D" /><path d="M340.893095 604.485549c15.537572 5.179191 76.208092-1.479769 113.202313 1.479769s89.526012 5.919075 99.884393 8.138728c9.618497 2.219653 54.751445-8.138728 54.751445-8.138728l5.919075 11.098266s-31.815029 14.057803-58.450867 11.098266c-26.635838-3.699422-50.312139-7.398844-93.965318-8.878613s-54.011561-0.739884-78.427746 1.479769c-24.416185 1.479769-47.352601-6.65896-47.352601-6.65896s1.479769-7.398844 4.439306-9.618497z" fill="#FDD100" /><path d="M279.482691 827.930636c0.739884 0.739884 19.976879-4.439306 19.976878-5.179191-0.739884-0.739884-14.797688-36.99422-14.797687-36.99422l-5.179191 2.959538s-1.479769 20.716763 0 39.213873zM562.858413 829.410405c-1.479769 0.739884-20.716763-6.65896-19.976878-7.398844 0.739884-0.739884 19.976879-34.034682 19.976878-34.034682l5.179191 3.699422c-0.739884 0-0.739884 20.716763-5.179191 37.734104z" fill="#A2C08C" /><path d="M90.812171 268.578035m-11.838151 0a11.83815 11.83815 0 1 0 23.676301 0 11.83815 11.83815 0 1 0-23.676301 0Z" fill="#F4C5D4" /><path d="M67.13587 276.716763m-11.83815 0a11.83815 11.83815 0 1 0 23.6763 0 11.83815 11.83815 0 1 0-23.6763 0Z" fill="#F4C5D4" /><path d="M291.320841 304.83237s-17.017341-2.219653-36.254335 12.578035-40.693642 33.294798-59.930636 46.612716c-18.49711 13.317919-38.473988 12.578035-60.67052-7.398844-9.618497 2.219653-44.393064 2.219653-44.393064 2.219654s17.757225 53.271676 62.150289 51.052023S229.910437 368.462428 242.488471 355.884393c12.578035-12.578035 31.075145-31.075145 41.433526-31.815029 10.358382-1.479769 17.017341-2.219653 17.017341-2.219653l-9.618497-17.017341z" fill="#E74D47" /><path d="M133.725465 304.83237s24.416185-11.098266 31.815029 13.317919-14.057803 37.734104-29.595375 39.213873c-16.277457 1.479769-51.791908 5.179191-70.289018-9.618497-19.236994-14.797688-32.554913-23.676301-17.017341-44.393064 15.537572-20.716763 34.034682 2.219653 34.034682 2.219653s1.479769-22.196532 24.416185-22.196531c22.936416 0 26.635838 21.456647 26.635838 21.456647z" fill="#E74D47" /><path d="M106.349743 315.930636m-19.236994 0a19.236994 19.236994 0 1 0 38.473988 0 19.236994 19.236994 0 1 0-38.473988 0Z" fill="#F4C5D4" /><path d="M828.47691 277.456647m-11.83815 0a11.83815 11.83815 0 1 0 23.676301 0 11.83815 11.83815 0 1 0-23.676301 0Z" fill="#F4C5D4" /><path d="M852.153211 285.595376m-11.83815 0a11.83815 11.83815 0 1 0 23.6763 0 11.83815 11.83815 0 1 0-23.6763 0Z" fill="#F4C5D4" /><path d="M630.927778 312.971098s16.277457-2.219653 35.51445 12.578035c18.49711 14.797688 39.953757 32.554913 58.450867 45.872832 18.49711 13.317919 37.734104 12.578035 59.190752-7.398844 8.878613 2.219653 43.653179 2.219653 43.653179 2.219654s-17.757225 51.791908-61.410405 50.312138c-43.653179-2.219653-76.208092-40.693642-88.786127-53.271676s-30.33526-30.33526-40.693641-31.815029c-10.358382-1.479769-16.277457-2.219653-16.277457-2.219653l10.358382-16.277457z" fill="#E74D47" /><path d="M787.043384 312.971098s-23.676301-11.098266-31.075144 12.578035 13.317919 37.734104 29.595376 38.473988c15.537572 1.479769 50.312139 5.179191 69.549133-9.618497 18.49711-14.797688 31.815029-23.676301 16.277456-43.653179-15.537572-20.716763-34.034682 2.219653-34.034682 2.219653s-1.479769-22.196532-23.6763-22.196532-26.635838 22.196532-26.635839 22.196532z" fill="#E74D47" /><path d="M793.702344 324.069364c0 10.358382 8.878613 19.236994 19.236994 19.236994s19.236994-8.878613 19.236994-19.236994-8.878613-19.236994-19.236994-19.236994-19.236994 8.878613-19.236994 19.236994z" fill="#F4C5D4" /><path d="M477.031824 54.011561m-54.011561 0a54.011561 54.011561 0 1 0 108.023121 0 54.011561 54.011561 0 1 0-108.023121 0Z" fill="#E74D47" /><path d="M289.841072 192.369942m-31.075144 0a31.075145 31.075145 0 1 0 62.150289 0 31.075145 31.075145 0 1 0-62.150289 0Z" fill="#F19B94" /><path d="M402.3035 130.959538c0 17.017341-14.057803 31.075145-31.075144 31.075144s-31.075145-14.057803-31.075145-31.075144 14.057803-31.075145 31.075145-31.075145c17.757225 0 31.075145 14.057803 31.075144 31.075145zM332.014483 244.901734c0 17.017341-14.057803 31.075145-31.075145 31.075145s-31.075145-14.057803-31.075144-31.075145 14.057803-31.075145 31.075144-31.075144 31.075145 14.057803 31.075145 31.075144z" fill="#F19B94" /><path d="M559.158991 192.369942m-31.075144 0a31.075145 31.075145 0 1 0 62.150289 0 31.075145 31.075145 0 1 0-62.150289 0Z" fill="#F19B94" /><path d="M607.991361 139.098266c0 17.017341-14.057803 31.075145-31.075144 31.075144-17.017341 0-31.075145-14.057803-31.075145-31.075144 0-17.017341 14.057803-31.075145 31.075145-31.075145s31.075145 14.057803 31.075144 31.075145z" fill="#F19B94" /><path d="M658.3035 196.069364m-31.075144 0a31.075145 31.075145 0 1 0 62.150289 0 31.075145 31.075145 0 1 0-62.150289 0Z" fill="#F19B94" /><path d="M643.505812 250.080925m-31.075144 0a31.075145 31.075145 0 1 0 62.150289 0 31.075145 31.075145 0 1 0-62.150289 0Z" fill="#F19B94" /><path d="M607.991361 209.387283m-31.075144 0a31.075145 31.075145 0 1 0 62.150289 0 31.075145 31.075145 0 1 0-62.150289 0Z" fill="#A2C08C" /><path d="M377.147431 200.508671c0 17.017341-14.057803 31.075145-31.075145 31.075144S314.997142 217.526012 314.997142 200.508671s14.057803-31.075145 31.075144-31.075145 31.075145 14.057803 31.075145 31.075145z" fill="#A2C08C" /><path d="M420.80061 200.508671m-31.075145 0a31.075145 31.075145 0 1 0 62.150289 0 31.075145 31.075145 0 1 0-62.150289 0Z" fill="#A2C08C" /><path d="M426.719685 86.566474c0 13.317919-10.358382 23.676301-23.676301 23.676301s-23.676301-10.358382-23.6763-23.676301 10.358382-23.676301 23.6763-23.676301c12.578035 0 23.676301 10.358382 23.676301 23.676301z" fill="#8DB2DD" /><path d="M545.841072 95.445087m-23.6763 0a23.676301 23.676301 0 1 0 47.352601 0 23.676301 23.676301 0 1 0-47.352601 0Z" fill="#8DB2DD" /><path d="M544.361304 225.66474c0 9.618497-8.138728 17.757225-17.757226 17.757225S508.846853 235.283237 508.846853 225.66474c0-9.618497 8.138728-17.757225 17.757225-17.757226 9.618497 0 17.757225 8.138728 17.757226 17.757226z" fill="#8DB2DD" /><path d="M594.673442 250.080925m-17.757225 0a17.757225 17.757225 0 1 0 35.514451 0 17.757225 17.757225 0 1 0-35.514451 0Z" fill="#8DB2DD" /><path d="M418.580957 225.66474c0 8.138728-6.65896 14.797688-14.797688 14.797688s-14.797688-6.65896-14.797688-14.797688 6.65896-14.797688 14.797688-14.797688 14.797688 6.65896 14.797688 14.797688z" fill="#8DB2DD" /><path d="M346.072286 244.16185m-14.797688 0a14.797688 14.797688 0 1 0 29.595376 0 14.797688 14.797688 0 1 0-29.595376 0Z" fill="#8DB2DD" /><path d="M638.326621 135.398844c0 9.618497-7.398844 17.017341-17.017341 17.017341s-17.017341-7.398844-17.017341-17.017341c0-9.618497 7.398844-17.017341 17.017341-17.017341 9.618497-0.739884 17.017341 7.398844 17.017341 17.017341zM349.771708 159.075145c0 9.618497-7.398844 17.017341-17.017341 17.017341s-17.017341-7.398844-17.017341-17.017341c0-9.618497 7.398844-17.017341 17.017341-17.017342 8.878613-0.739884 17.017341 7.398844 17.017341 17.017342zM343.852633 121.34104c0 9.618497-7.398844 17.017341-17.017341 17.017342s-17.017341-7.398844-17.017341-17.017342 7.398844-17.017341 17.017341-17.017341 17.017341 7.398844 17.017341 17.017341zM283.921997 271.537572c0 9.618497-7.398844 17.017341-17.017341 17.017341s-17.017341-7.398844-17.017341-17.017341S257.286159 254.520231 266.904656 254.520231s17.017341 7.398844 17.017341 17.017341z" fill="#F4C5D4" /><path d="M670.14165 281.156069m-17.017341 0a17.017341 17.017341 0 1 0 34.034682 0 17.017341 17.017341 0 1 0-34.034682 0Z" fill="#F4C5D4" /><path d="M583.575176 236.023121c0 9.618497-7.398844 17.017341-17.017341 17.017341s-17.017341-7.398844-17.017341-17.017341 7.398844-17.017341 17.017341-17.017341c8.878613 0 17.017341 8.138728 17.017341 17.017341z" fill="#F4C5D4" /><path d="M371.96824 227.144509m-17.017341 0a17.017341 17.017341 0 1 0 34.034682 0 17.017341 17.017341 0 1 0-34.034682 0Z" fill="#F4C5D4" /><path d="M613.170552 167.213873m-17.017341 0a17.017341 17.017341 0 1 0 34.034682 0 17.017341 17.017341 0 1 0-34.034682 0Z" fill="#F4C5D4" /><path d="M403.783269 184.971098c0 14.057803-11.098266 25.156069-25.156069 25.15607S353.47113 199.028902 353.47113 184.971098s11.098266-25.156069 25.15607-25.156069 25.156069 11.098266 25.156069 25.156069z" fill="#F4C5D4" /><path d="M295.020263 369.942197s-26.635838-3.699422-31.075144 17.757225c-3.699422 21.456647 9.618497 23.676301 7.398844 38.473988s-44.393064 48.092486-31.075145 76.208093c13.317919 27.375723 54.011561 29.595376 48.092486 12.578035-22.936416-30.33526 6.65896-145.017341 6.658959-145.017341z" fill="#EDD6BC" /><path d="M542.14165 155.375723c0 39.953757-31.815029 71.768786-71.768786 71.768786s-71.768786-31.815029-71.768786-71.768786 31.815029-71.768786 71.768786-71.768787 71.768786 32.554913 71.768786 71.768787z" fill="#FAD100" /><path d="M622.789049 362.543353s34.034682-9.618497 37.734104 11.098265-9.618497 28.115607-7.398844 38.473989c2.219653 11.098266 44.393064 48.092486 31.075145 76.208092-13.317919 27.375723-48.83237 32.554913-44.393064 13.317919 7.398844-29.595376-17.017341-139.098266-17.017341-139.098265z" fill="#EDD6BC" /><path d="M432.63876 589.687861c-17.757225 93.965318 25.895954 124.300578 30.33526 125.040463s34.034682-5.919075 35.514451-122.82081c-0.739884-2.959538-60.67052-8.878613-65.849711-2.219653z" fill="#241915" /><path d="M280.222575 292.254335c4.439306-5.179191 51.791908-17.017341 81.387283-41.433526s160.554913-28.115607 196.809249 2.959538c36.99422 30.33526 85.82659 25.895954 88.046243 39.213873 2.959538 13.317919-24.416185 60.67052-24.416185 60.67052s-63.630058-40.693642-159.075145-41.433526C367.528934 311.491329 302.419107 343.306358 302.419107 343.306358s-25.895954-45.872832-22.196532-51.052023z" fill="#E74D47" /><path d="M292.060726 315.930636c0-4.439306 41.433526-13.317919 69.549132-26.635838 28.855491-12.578035 149.456647-14.797688 184.971099 1.479768 35.514451 16.277457 87.306358 31.815029 84.346821 38.473989-2.959538 5.919075-9.618497 18.49711-9.618498 18.49711s-69.549133-40.693642-162.774566-39.953757c-92.485549 2.219653-154.635838 29.595376-154.635838 29.595375s-11.098266-17.017341-11.83815-21.456647z" fill="#FFD522" /><path d="M472.592517 141.317919s19.236994 0 35.514451-6.658959c21.456647-8.138728 23.676301 10.358382 17.757226 24.416185-6.65896 14.057803-23.676301 31.075145-51.791908 31.075144h-0.739884c-28.855491 0-45.872832-16.277457-52.531792-30.33526-6.65896-14.057803-5.179191-31.815029 17.017341-24.416185 20.716763 6.65896 34.774566 5.919075 34.774566 5.919075" fill="#FFE700" /><path d="M484.430668 149.456647s17.757225 1.479769 10.358381 14.057804-32.554913 24.416185-66.589595 4.439306c0 0 30.33526 36.99422 79.16763 10.358382 34.774566-28.115607 19.976879-51.791908 0-41.433526-19.236994 10.358382-22.936416 12.578035-22.936416 12.578034z" fill="#F9BC00" /><path d="M427.459569 676.99422s64.369942 0.739884 118.381503-22.936417c72.508671-25.895954 79.907514 34.034682 58.450867 80.647399-21.456647 46.612717-77.687861 103.583815-173.872832 104.3237H427.459569c-96.184971 0.739884-153.156069-55.491329-175.352601-101.364162s-16.277457-106.543353 56.971099-81.387283c69.549133 22.196532 118.381503 20.716763 118.381502 20.716763" fill="#FFE700" /><path d="M466.673442 708.069364s58.450867 5.919075 33.294798 48.092486c-25.156069 42.17341-110.982659 82.127168-224.924856 14.797688 0 0 95.445087 123.560694 265.618498 34.034682 122.080925-102.843931 70.289017-182.751445 6.658959-153.895954-62.890173 28.855491-80.647399 56.971098-80.647399 56.971098z" fill="#FFC524" /><path d="M292.80061 650.358382s30.33526 69.549133 133.179191 68.809248 122.820809-67.32948 122.820809-67.32948-100.624277 51.052023-256-1.479768z" fill="#F99E26" /><path d="M299.459569 692.531792c0 12.578035-9.618497 22.196532-22.196531 22.196532s-22.196532-9.618497-22.196532-22.196532 9.618497-22.196532 22.196532-22.196532c11.83815 0 22.196532 10.358382 22.196531 22.196532z" fill="#FFF9BB" /><path d="M427.459569 719.16763c60.67052-2.219653 76.947977-18.49711 76.947977-18.49711-8.138728-37.734104-40.693642-63.630058-81.387283-62.890173-39.213873 0-71.768786 26.635838-81.387283 62.150289 0-0.739884 18.49711 21.456647 85.826589 19.236994z" fill="#FFE700" /><path d="M422.280379 637.780347s21.456647 9.618497 15.537572 40.693641c-4.439306 29.595376-71.028902 34.034682-95.445087 21.456648 0 0 25.156069 19.236994 79.16763 18.49711s73.248555-8.138728 84.346821-17.757226c-1.479769 0-13.317919-62.890173-83.606936-62.890173z" fill="#FFC524" /><path d="M412.661882 665.895954c0 9.618497-7.398844 17.017341-17.017341 17.017341s-17.017341-7.398844-17.017341-16.277457c0-9.618497 7.398844-17.017341 17.017341-17.017341 8.878613 0 16.277457 7.398844 17.017341 16.277457zM429.679223 667.375723c0 3.699422-2.959538 7.398844-7.398844 7.398843-3.699422 0-7.398844-2.959538-7.398844-7.398843 0-3.699422 2.959538-7.398844 7.398844-7.398844 3.699422 0 7.398844 2.959538 7.398844 7.398844z" fill="#FFF9BB" /><path d="M365.30928 683.653179m-7.398843 0a7.398844 7.398844 0 1 0 14.797687 0 7.398844 7.398844 0 1 0-14.797687 0Z" fill="#FFF9BB" /><path d="M394.904656 694.011561c0 2.959538-2.219653 5.179191-5.179191 5.17919s-5.179191-2.219653-5.17919-5.17919c0-2.959538 2.219653-5.179191 5.17919-5.179191 2.959538 0 5.179191 2.959538 5.179191 5.179191z" fill="#FFF9BB" /><path d="M300.939338 760.601156c-8.878613-5.179191-31.075145 13.317919-14.057803 47.352601 17.017341 34.034682 42.913295 16.277457 42.913295 8.878613s-13.317919-6.65896-12.578035-7.398844c0-0.739884 6.65896-2.959538 2.959537-11.098266-2.959538-7.398844-10.358382-0.739884-11.83815-2.219653-1.479769-1.479769 9.618497-8.878613 5.179191-15.537572-4.439306-6.65896-14.057803 0.739884-14.797688 0-0.739884-1.479769 11.098266-14.797688 2.219653-19.976879zM536.222575 756.16185c7.398844-6.65896 32.554913 7.398844 22.936416 43.653179-9.618497 36.254335-39.213873 24.416185-39.953757 17.017341-1.479769-7.398844 11.098266-8.878613 11.098266-9.618497 0-1.479769-6.65896-2.219653-5.179191-10.358382 1.479769-8.138728 11.098266-2.959538 11.098266-4.439306 0-1.479769-11.098266-6.65896-8.138728-14.797688 2.959538-7.398844 14.057803 0 14.057803-2.959537 0.739884-2.219653-13.317919-11.83815-5.919075-18.49711z" fill="#F8E4CC" /><path d="M432.63876 133.179191s8.878613 20.716763 39.953757 20.716763 36.99422-20.716763 36.99422-20.716763-30.33526 16.277457-76.947977 0z" fill="#F99E26" /><path d="M434.858413 146.49711c0 3.699422-2.959538 6.65896-6.658959 6.658959s-6.65896-2.959538-6.65896-6.658959 2.959538-6.65896 6.65896-6.65896c2.959538 0 5.919075 2.959538 6.658959 6.65896z" fill="#FFF9BB" /><path d="M473.332402 153.895954c19.976879 0 23.676301-4.439306 23.6763-4.439307-2.219653-11.098266-12.578035-19.976879-25.156069-19.976878-11.83815 0-21.456647 8.138728-24.416185 18.49711 0 0 5.179191 5.919075 25.895954 5.919075z" fill="#FFE700" /><path d="M471.112749 129.479769s6.65896 2.959538 5.17919 11.83815-21.456647 10.358382-28.855491 6.65896c0 0 7.398844 5.919075 23.676301 5.919075s22.196532-1.479769 25.895953-4.439307c-0.739884 0-3.699422-18.49711-25.895953-19.976878z" fill="#F9BC00" /><path d="M468.153211 138.358382c0 2.959538-2.219653 5.179191-5.179191 5.17919s-5.179191-2.219653-5.17919-5.17919c0-2.959538 2.219653-5.179191 5.17919-5.179191s5.179191 2.219653 5.179191 5.179191z" fill="#FFF9BB" /><path d="M471.112749 138.358382m-2.219654 0a2.219653 2.219653 0 1 0 4.439307 0 2.219653 2.219653 0 1 0-4.439307 0Z" fill="#FFF9BB" /><path d="M456.315061 143.537572c0 1.479769-0.739884 2.219653-2.219653 2.219653s-2.219653-0.739884-2.219654-2.219653 0.739884-2.219653 2.219654-2.219653c1.479769 0 2.219653 0.739884 2.219653 2.219653zM462.97402 146.49711c0 0.739884-0.739884 1.479769-1.479768 1.479769s-1.479769-0.739884-1.479769-1.479769 0.739884-1.479769 1.479769-1.479769 1.479769 0.739884 1.479768 1.479769z" fill="#FFF9BB" /><path d="M436.338182 377.34104s-6.65896-14.797688-44.393063-18.497109-42.17341 0-42.173411 0 6.65896 11.098266 27.375723 8.878612c20.716763-1.479769 59.190751 9.618497 59.190751 9.618497zM490.349743 377.34104s6.65896-14.797688 44.393063-18.497109 42.17341 0 42.173411 0-6.65896 11.098266-27.375723 8.878612c-20.716763-1.479769-59.190751 9.618497-59.190751 9.618497zM423.020263 410.635838s-9.618497-19.236994-30.33526-19.236994c-20.716763 0.739884-28.855491 24.416185-28.855491 24.416185s14.797688-11.83815 29.595375-12.578035c14.797688 0 29.595376 7.398844 29.595376 7.398844z" fill="#241915" /><path d="M465.933558 571.190751c-61.410405-2.219653-63.630058-51.052023-57.710983-56.971098 5.919075-5.179191 21.456647 10.358382 60.67052 7.398844s59.190751-9.618497 62.150289-8.878613c3.699422 0.739884-3.699422 60.67052-65.109826 58.450867z" fill="#C82A23" /><path d="M408.96246 514.959538c54.011561 18.49711 120.601156-1.479769 120.601156-1.479769s-2.959538 11.098266-3.699422 12.578034c-0.739884 1.479769-18.49711 11.83815-59.930636 11.838151-40.693642 0-53.271676-12.578035-54.751445-14.797688 0-2.219653-2.959538-8.138728-2.219653-8.138728z" fill="#FFFFFF" /><path d="M467.413327 544.554913c-42.913295-2.219653-42.913295 8.138728-42.913295 8.138729s14.057803 15.537572 44.393063 14.057803c30.33526-0.739884 40.693642-14.057803 40.693642-14.057803s0.739884-5.919075-42.17341-8.138729z" fill="#DD6B73" /><path d="M496.268818 412.855491s9.618497-19.236994 30.33526-19.236994c20.716763 0.739884 28.855491 24.416185 28.855491 24.416185s-14.797688-11.83815-29.595375-12.578035c-14.797688 0-29.595376 7.398844-29.595376 7.398844zM462.234136 474.265896s-68.069364-8.138728-94.705202 0c-27.375723 7.398844 6.65896 49.572254 0 82.867052S354.211015 654.057803 354.211015 654.057803s31.815029-39.953757 28.115606-69.549132 10.358382-78.427746 17.017342-79.167631c65.109827 14.057803 63.630058-5.179191 63.630057-5.17919s5.919075 17.757225 78.427746 2.959537c0 3.699422 7.398844 58.450867 5.919075 81.387284s30.33526 68.809249 30.33526 68.809248-12.578035-56.971098-10.358381-76.208092c2.219653-19.236994 17.757225-91.00578 4.439306-103.583815-14.057803-11.83815-109.50289 0.739884-109.50289 0.739884z" fill="#241915" /></svg>