<?xml version="1.0" standalone="no"?><!DOCTYPE svg PUBLIC "-//W3C//DTD SVG 1.1//EN" "http://www.w3.org/Graphics/SVG/1.1/DTD/svg11.dtd"><svg class="icon" width="200px" height="156.93px" viewBox="0 0 1305 1024" version="1.1" xmlns="http://www.w3.org/2000/svg"><path d="M913.375888 286.001541s119.3035-70.274664 183.858133-26.965859 63.737486-18.794387 53.114572 62.920339c-10.622914 81.714726-74.360401 24.514418-53.931719 73.543253s-155.25798-7.354325-111.949175-4.085736c43.308805 2.451442 72.726106 49.028836 132.377857 53.114572 58.834603 4.085736-40.857363 44.943099-67.006076 96.423377-26.148712 52.297425-69.457517 69.457517-151.172243-0.817148s4.902884-119.3035 4.902884-119.3035l9.805767-134.829298z" fill="#FFFFFE" /><path d="M990.18773 596.5175c-27.783007 0-59.65175-16.342945-98.057671-49.028835-27.783007-23.697271-40.857363-49.028836-38.405921-73.543254 3.268589-31.051596 28.600154-51.480277 40.040215-58.834603l10.622915-134.829298 4.902883-2.451441c4.902884-3.268589 125.840678-73.543253 194.481048-26.96586 25.331565 17.160092 38.405921 15.525798 44.9431 15.525798 4.085736 0 9.805767-0.817147 13.891503 4.085736 4.902884 5.720031 4.085736 11.440062 1.634295 28.600154-0.817147 6.537178-2.451442 13.891503-3.268589 23.697271-6.537178 53.114572-35.954479 56.383161-52.297425 58.834603-1.634295 0-4.085736 0.817147-4.902884 0.817147 0 1.634295 0.817147 4.902884 3.268589 8.98862 6.537178 15.525798-1.634295 24.514418-4.902883 26.965859-4.902884 4.085736-11.440062 5.720031-19.611534 6.537179 10.622914 4.902884 22.880123 8.171473 36.771626 8.988619 7.354325 0.817147 23.697271 1.634295 26.96586 13.891504 4.085736 13.074356-8.98862 23.697271-31.868743 41.67451-19.611534 15.525798-44.125952 35.137332-54.748867 56.383161-14.708651 28.600154-32.68589 44.943099-55.566013 49.845983-4.902884 0-8.98862 0.817147-13.891504 0.817147z m-67.006075-304.795928l-10.622915 134.829298-4.902883 2.451442s-31.868743 18.794387-34.320185 46.577394c-1.634295 17.97724 8.98862 36.771627 31.868743 56.383161 39.223069 33.503038 71.091812 48.211688 93.971935 43.308805 16.342945-3.268589 30.234449-16.342945 41.67451-39.223069 12.257209-24.514418 38.405921-45.760247 59.65175-62.920339 7.354325-5.720031 16.342945-13.074356 21.245829-18.794387-1.634295 0-3.268589-0.817147-5.720031-0.817147-34.320185-2.451442-58.834603-17.97724-80.897578-31.868743-0.817147-0.817147-2.451442-1.634295-3.26859-2.451442-26.96586-5.720031-53.114572-14.708651-58.017455-18.794387-5.720031-4.085736-6.537178-9.805767-4.902884-13.891504 3.268589-8.171473 13.074356-8.171473 17.160093-7.354325 20.428682 1.634295 36.771627 10.622914 53.931719 20.428681 34.320185 6.537178 47.394541 2.451442 49.028836 0.817148 0 0 0-0.817147-0.817148-3.268589-4.085736-8.98862-7.354325-20.428682-2.451441-28.600154 4.902884-8.171473 13.074356-8.98862 21.245828-9.805768 14.708651-1.634295 29.417301-3.268589 34.320185-40.857363 1.634295-10.622914 2.451442-17.97724 3.268589-24.514417 0.817147-3.268589 0.817147-6.537178 1.634295-8.98862-9.805767 0-26.96586-1.634295-53.114572-18.794387-53.114572-33.503038-147.903654 14.708651-169.96663 26.148712z" fill="#545971" /><path d="M949.330367 509.082743c0 221.446908-186.309575 400.402158-416.745103 400.402158s-416.745103-178.95525-416.745103-400.402158 186.309575-400.402158 416.745103-400.402157c229.61838 0 416.745103 178.95525 416.745103 400.402157" fill="#FFE04A" /><path d="M531.768117 921.74211c-236.155558 0-429.002312-184.675281-429.002312-412.659367s192.029606-412.659367 429.002312-412.659366 429.002312 184.675281 429.002312 412.659366-192.029606 412.659367-429.002312 412.659367z m0-800.804315c-223.081202 0-405.305041 174.052367-405.305041 388.144948s181.406692 388.144949 405.305041 388.144949 405.305041-174.052367 405.305041-388.144949-181.406692-388.144949-405.305041-388.144948z" fill="#545971" /><path d="M528.499528 797.535726c-164.246599 0-306.430223-48.211688-374.253446-152.806537 46.577394 148.720801 196.115343 257.401387 374.253446 257.401387S856.175579 793.44999 902.752973 645.546336c-67.823223 103.777702-210.006846 151.98939-374.253445 151.98939" fill="#FFD05A" /><path d="M290.709675 577.723113h-11.440062c-6.537178 0-11.440062-5.720031-11.440061-13.074356 0-6.537178 6.537178-11.440062 13.074356-11.440061 30.234449 1.634295 53.114572-4.085736 67.823223-17.97724 17.160092-15.525798 17.160092-37.588774 17.160092-37.588774 0-6.537178 5.720031-12.257209 12.257209-12.257209s12.257209 5.720031 12.257209 12.257209c0 1.634295 0 31.868743-24.514418 54.748866-18.794387 17.160092-43.308805 25.331565-75.177548 25.331565zM780.180884 554.025843c-37.588774 0-68.64037-9.805767-91.520493-30.234449-40.040216-35.137332-40.857363-86.61761-40.857363-88.251904 0-6.537178 4.902884-12.257209 12.257209-12.257209 6.537178 0 12.257209 4.902884 12.257209 11.440062 0 0.817147 0.817147 43.308805 32.68589 71.091811 22.880123 20.428682 57.200308 27.783007 101.326261 22.880124 6.537178-0.817147 12.257209 4.085736 13.074356 10.622914 0.817147 6.537178-4.085736 12.257209-10.622915 13.074356-9.805767 0.817147-18.794387 1.634295-28.600154 1.634295zM557.916829 756.678363c13.074356 17.97724-13.074356 15.525798-30.234448 15.525798-16.342945-0.817147-31.868743-2.451442-22.062976-14.70865 10.622914-13.074356 39.223069-18.794387 52.297424-0.817148z" fill="#545971" /><path d="M542.391031 782.827076H527.682381c-14.708651-0.817147-28.600154-1.634295-33.503038-12.257209-1.634295-4.085736-2.451442-10.622914 4.085736-19.611534 7.354325-9.805767 22.062976-15.525798 35.95448-15.525798 13.074356 0 24.514418 5.720031 31.868743 15.525798 5.720031 8.171473 6.537178 14.708651 3.268589 21.245828-4.085736 8.98862-15.525798 10.622914-26.96586 10.622915z m-26.148712-22.062976c2.451442 0 6.537178 0.817147 12.257209 0.817147h3.268589c4.902884 0 13.074356 0.817147 17.97724 0-4.085736-5.720031-10.622914-6.537178-15.525798-6.537178-7.354325 0-14.708651 3.268589-17.97724 5.720031z" fill="#545971" /><path d="M131.365959 353.007617c303.161634-117.669206 556.477285-82.531873 801.621463 31.868743 8.171473-5.720031-27.783007-336.664671-371.802004-344.018997-343.201849-7.354325-450.248141 312.150254-429.819459 312.150254z" fill="#FFFFFE" /><path d="M933.804569 396.316421l-5.720031-2.451441c-270.475743-126.657825-522.974247-136.463593-793.44999-31.051596l-1.634294 0.817147h-1.634295c-4.085736 0-8.171473-2.451442-10.622914-6.537178-8.171473-14.708651 12.257209-67.006075 37.588774-108.680586 40.857363-67.006075 160.97801-223.081202 403.670747-218.178318 260.669976 5.720031 344.836144 193.663901 368.533414 273.744332 0.817147 3.268589 22.880123 78.446137 8.171473 88.251904l-4.902884 4.085736zM496.630785 270.475743c140.549329 0 281.098658 32.68589 426.55087 98.874819-3.268589-31.868743-22.062976-116.852058-80.897579-190.395312C776.095148 96.423377 681.306066 53.114572 561.185418 50.66313 387.950199 47.394541 280.903908 128.29212 221.252158 196.93249c-51.480277 59.65175-75.177548 118.486353-80.897579 142.183623 121.754942-45.760247 239.424147-68.64037 356.276206-68.64037z" fill="#545971" /><path d="M155.06323 299.893045c-3.268589 0-7.354325-1.634295-9.805767-4.902884-4.085736-5.720031-2.451442-13.074356 2.451441-17.160092 95.60623-71.091812 171.600925-87.434757 174.869514-88.251905 6.537178-1.634295 13.074356 2.451442 13.891504 8.98862 1.634295 6.537178-2.451442 13.074356-8.98862 13.891504-0.817147 0-75.177548 16.342945-165.880894 84.166168-1.634295 2.451442-4.085736 3.268589-6.537178 3.268589zM925.633097 330.944641c-3.268589 0-5.720031-0.817147-8.171473-3.268589-75.177548-74.360401-190.395312-89.069051-191.212459-89.069052-6.537178-0.817147-11.440062-6.537178-10.622914-13.074356 0.817147-6.537178 6.537178-11.440062 13.074356-10.622914 4.902884 0.817147 124.206384 16.342945 205.103962 96.423376 4.902884 4.902884 4.902884 12.257209 0 17.160093-1.634295 1.634295-4.902884 2.451442-8.171472 2.451442z" fill="#545971" /><path d="M1076.80534 428.185165c42.491658 3.268589 89.069051 44.125952 125.023531 116.034911 35.954479 71.908959 41.67451 185.492428 41.67451 185.492428l-176.503808-8.171473-21.245829-30.234448-13.074356 29.417301-53.114572-0.817147s-36.771627-204.286815-4.902884-248.412768c31.051596-44.125952 59.65175-46.577394 102.143408-43.308804z" fill="#818181" /><path d="M1254.126295 741.152565l-192.846753-8.988619-13.891504-19.611535-8.171472 18.794387-68.64037-0.817147-1.634295-8.171473c-4.085736-21.245829-35.954479-209.189699-3.268589-256.584239 34.320185-49.028836 67.823223-50.66313 111.132028-48.211689 47.394541 3.268589 96.423377 47.394541 133.195003 121.754942 36.771627 73.543253 42.491658 185.492428 42.491658 189.578165l1.634294 12.257208z m-182.223839-29.417301l160.160863 7.354325c-2.451442-30.234449-11.440062-114.400616-40.040215-170.783777-33.503038-67.006075-76.811843-107.863438-116.852059-111.132028-42.491658-2.451442-65.371781 0-93.154787 39.223069-22.880123 31.868743-4.902884 171.600925 4.902883 232.886969l37.588774 0.817148 17.160093-40.040216 30.234448 41.67451z" fill="#545971" /><path d="M1225.526141 663.523576c2.451442 4.902884 8.98862 57.200308 8.98862 57.200308l-165.063747-3.268589-26.965859-35.95448-13.891504 37.588774-41.67451-7.354325s-12.257209-58.017456-8.98862-60.468897c4.085736-2.451442 243.509884 3.268589 247.59562 12.257209z" fill="#E7E7E7" /><path d="M1031.045093 412.659367c9.805767-10.622914 25.331565-12.257209 35.95448-3.268589 9.805767 8.98862 10.622914 25.331565 0.817147 35.954479l-504.17986 569.551641c-9.805767 10.622914-25.331565 12.257209-35.954479 3.268589-9.805767-8.98862-10.622914-25.331565-0.817148-35.95448l504.17986-569.55164z" fill="#545971" /><path d="M729.517754 688.037994c-58.834603 75.177548-31.868743 131.560709 22.880123 175.686661 55.566014 44.125952 151.172243 69.457517 176.503809-16.342946 25.331565-84.983315 30.234449-148.720801-11.440062-177.320955-41.67451-27.783007-129.109267-57.200308-187.94387 17.97724" fill="#FFE04A" /><path d="M856.175579 916.839227c-39.223069 0-81.714726-19.611534-111.132027-43.308805-71.908959-58.017456-80.897579-122.572089-25.331565-192.846754 64.554634-81.714726 158.526569-50.66313 204.286815-19.611534 53.931719 36.771627 39.223069 116.852058 16.342945 190.395312-9.805767 31.868743-28.600154 52.297425-56.383161 61.286044-8.171473 2.451442-17.97724 4.085736-27.783007 4.085737zM739.323521 695.392319c-46.577394 59.65175-40.040216 110.31488 21.245829 158.526568 31.051596 24.514418 80.897579 46.577394 117.669205 35.137333 19.611534-5.720031 32.68589-21.245829 40.040216-44.9431 27.783007-91.520493 25.331565-141.366476-6.537178-163.429452-11.440062-6.537178-107.046291-67.823223-172.418072 14.708651z" fill="#545971" /><path d="M729.517754 688.037994c-58.834603 75.177548-31.868743 131.560709 22.880123 175.686661 55.566014 44.125952 151.172243 69.457517 176.503809-16.342946 25.331565-84.983315 30.234449-148.720801-11.440062-177.320955-41.67451-27.783007-129.109267-57.200308-187.94387 17.97724z" fill="#FFE04A" /><path d="M856.175579 916.839227c-39.223069 0-81.714726-19.611534-111.132027-43.308805-71.908959-58.017456-80.897579-122.572089-25.331565-192.846754 64.554634-81.714726 158.526569-50.66313 204.286815-19.611534 53.931719 36.771627 39.223069 116.852058 16.342945 190.395312-9.805767 31.868743-28.600154 52.297425-56.383161 61.286044-8.171473 2.451442-17.97724 4.085736-27.783007 4.085737zM739.323521 695.392319c-46.577394 59.65175-40.040216 110.31488 21.245829 158.526568 31.051596 24.514418 80.897579 46.577394 117.669205 35.137333 19.611534-5.720031 32.68589-21.245829 40.040216-44.9431 27.783007-91.520493 25.331565-141.366476-6.537178-163.429452-11.440062-6.537178-107.046291-67.823223-172.418072 14.708651z" fill="#545971" /><path d="M191.834856 451.065288c-6.537178 26.96586 17.160092 52.297425 45.760247 55.566014 28.600154 3.268589 44.125952-26.96586 40.857363-54.748867-7.354325-58.834603 26.96586-89.069051 26.96586-89.069051s-91.520493 0-113.58347 88.251904" fill="#FFFFFF" /><path d="M241.680839 514.802774h-4.902883c-17.97724-1.634295-35.137332-12.257209-44.9431-26.148712-8.171473-12.257209-10.622914-26.148712-7.354325-39.223069C207.360654 356.276206 304.601178 354.641911 305.418326 354.641911h22.062976l-16.342945 14.708651c-0.817147 0.817147-30.234449 27.783007-24.514418 81.714726 2.451442 19.611534-4.085736 40.040216-16.342945 51.480277-8.171473 8.171473-17.97724 12.257209-28.600155 12.257209z m44.9431-141.366476c-26.148712 4.902884-72.726106 22.062976-87.434757 79.263284-2.451442 10.622914 1.634295 20.428682 4.902883 25.331566 7.354325 10.622914 20.428682 17.97724 33.503038 19.611534 8.171473 0.817147 14.708651-1.634295 20.428682-7.354326 8.171473-8.171473 13.074356-23.697271 11.440061-38.405921-4.085736-36.771627 7.354325-62.920339 17.160093-78.446137z" fill="#545971" /><path d="M122.377339 839.210237c-31.868743-0.817147-72.726106-33.503038-91.520493-71.908959-71.908959-125.023531 129.926414-288.452983 174.869514-205.92111 0 0 58.017456 0 47.394541 50.66313 0 0 52.297425-2.451442 38.405921 45.760247-14.708651 51.480277-62.103192 5.720031-109.497733 74.360401-3.268589 30.234449 7.354325 91.520493-59.65175 107.046291" fill="#FFE04A" /><path d="M122.377339 851.467446s-0.817147 0 0 0c-37.588774-1.634295-81.714726-35.954479-102.143407-78.446137-24.514418-43.308805-22.062976-96.423377 8.171472-147.903655 33.503038-57.200308 93.154788-99.691966 139.732182-98.874818 18.794387 0 35.137332 8.171473 44.943099 22.880123 10.622914 0.817147 31.051596 4.902884 44.125952 20.428682 6.537178 8.171473 10.622914 18.794387 10.622915 30.234448 9.805767 1.634295 22.880123 5.720031 31.051596 16.342946 8.98862 11.440062 10.622914 25.331565 5.72003 43.308804-8.98862 31.868743-30.234449 35.954479-49.028835 39.223069-18.794387 3.268589-39.223069 7.354325-60.468897 36.771627 0 4.085736-0.817147 8.171473-0.817148 13.074356-0.817147 32.68589-3.268589 86.61761-68.64037 102.143407-1.634295 0.817147-2.451442 0.817147-3.268589 0.817148zM166.503291 550.757254C129.731665 550.757254 78.251387 589.980322 49.651233 637.374863c-14.708651 25.331565-35.954479 75.177548-8.171472 123.389237 0 0 0 0.817147 0.817147 0.817147 16.342945 33.503038 52.297425 62.920339 79.263284 64.554634 45.760247-11.440062 47.394541-47.394541 48.211688-78.446137 0-6.537178 0.817147-12.257209 0.817148-17.97724 0-1.634295 0.817147-4.085736 2.451441-5.720031 27.783007-40.040216 56.383161-45.760247 77.62899-49.028836 17.97724-3.268589 25.331565-4.902884 30.234449-22.062976 2.451442-9.805767 2.451442-17.160092-0.817147-21.245828-5.720031-7.354325-20.428682-8.98862-25.331565-8.171473-4.085736 0-7.354325-1.634295-9.805768-4.085736-2.451442-3.268589-3.268589-6.537178-2.451441-10.622915 2.451442-10.622914 0.817147-17.97724-3.268589-23.69727-8.171473-9.805767-26.148712-12.257209-31.868744-12.257209-4.085736 0-8.98862-2.451442-10.622914-6.537178-5.720031-10.622914-14.708651-15.525798-27.783007-16.342946-1.634295 0.817147-2.451442 0.817147-2.451442 0.817148z" fill="#545971" /><path d="M210.629243 562.197315c-31.051596 1.634295-75.994695 13.074356-93.154787 59.65175" fill="#FFE04A" /><path d="M117.474456 634.106274c-1.634295 0-3.268589 0-4.085737-0.817147-6.537178-2.451442-9.805767-9.805767-7.354325-15.525798 15.525798-40.857363 53.114572-66.188928 104.594849-67.823223 6.537178-0.817147 12.257209 4.902884 13.074357 11.440062 0 6.537178-4.902884 12.257209-11.440062 13.074356-23.697271 0.817147-66.188928 8.98862-82.531873 51.480278-3.268589 5.720031-7.354325 8.171473-12.257209 8.171472z" fill="#545971" /><path d="M258.840932 610.409004c17.97724 3.268589-76.811843-8.98862-99.691966 57.200308" fill="#FFE04A" /><path d="M159.148966 679.866521c-1.634295 0-2.451442 0-4.085736-0.817147-6.537178-2.451442-9.805767-8.98862-7.354326-15.525798 8.98862-26.96586 35.137332-59.65175 105.411997-63.737487 2.451442-0.817147 4.902884-1.634295 7.354325-0.817147 12.257209 2.451442 12.257209 10.622914 12.257209 13.891504-0.817147 10.622914-12.257209 11.440062-15.525798 11.440061-47.394541 2.451442-76.811843 17.97724-86.617609 47.394541-1.634295 4.902884-6.537178 8.171473-11.440062 8.171473z" fill="#545971" /></svg>