<?xml version="1.0" standalone="no"?><!DOCTYPE svg PUBLIC "-//W3C//DTD SVG 1.1//EN" "http://www.w3.org/Graphics/SVG/1.1/DTD/svg11.dtd"><svg class="icon" width="200px" height="141.83px" viewBox="0 0 1444 1024" version="1.1" xmlns="http://www.w3.org/2000/svg"><path d="M97.501357 700.700476c-60.23004 16.426375-68.443227 84.869602-40.381504 134.148726 28.061723 49.279124 62.283337 52.016853 112.246893 54.070149 49.963556 2.053297 374.384454-99.24268 374.384454-99.242679L376.065293 693.171721s-218.333895-8.89762-278.563936 7.528755z" fill="#BC8D42" /><path d="M97.501357 700.700476c-43.119233 8.213187-76.656415 78.025279-40.381504 134.148726 35.590478 56.807879 85.554034 64.336634 112.246893 54.070149 26.692859-10.266484 38.328207-69.812092 21.901833-114.984622-15.741942-45.17253-50.647988-81.447441-93.767222-73.234253z" fill="#ECBC78" /><path d="M126.931945 867.701951s-3.422161-1.368865-8.213187-6.159891-10.950916-12.319781-16.426375-21.901832c-2.737729-4.791026-5.475458-10.266484-8.213187-16.426375-2.737729-6.15989-4.791026-12.319781-7.528755-19.164104-2.053297-6.844323-4.791026-13.688645-6.15989-21.2174-0.684432-4.106594-1.368865-7.528755-0.684433-11.635349 0-4.106594 0.684432-8.89762 4.106594-13.004213 2.737729-4.106594 8.89762-6.15989 13.688645-5.475458 4.791026 0 8.89762 1.368865 12.319781 3.422161 7.528755 3.422161 13.688645 8.213187 19.164104 13.688646 5.475458 5.475458 9.582052 11.635349 12.319781 17.795239l1.368865 2.053297v1.368864l0.684432 1.368865 2.053297 4.106593c0.684432 2.737729 2.053297 6.15989 2.737729 8.89762 1.368865 6.15989 1.368865 11.635349-0.684433 17.110807-0.684432 2.737729-2.737729 4.791026-4.791025 6.15989-2.053297 1.368865-4.791026 1.368865-6.844323 1.368865-4.106594-0.684432-6.15989-2.737729-7.528755-4.106594-1.368865-1.368865-1.368865-2.053297-1.368865-2.053297l0.684433-0.684432s0.684432 0.684432 2.053296 1.368865c1.368865 0.684432 3.422161 2.053297 6.159891 2.053296s4.791026-2.053297 5.475458-5.475458c0.684432-3.422161 0-8.213187-1.368865-13.004213-0.684432-2.737729-2.053297-4.791026-2.737729-7.528755l-2.053296-4.106594-0.684433-1.368864v-1.368865l-1.368864-2.053297c-3.422161-4.791026-6.844323-10.266484-11.635349-15.05751-4.106594-4.791026-9.582052-8.89762-15.741942-12.31978-5.475458-3.422161-12.319781-4.791026-15.05751-0.684433-1.368865 2.053297-2.737729 4.791026-2.737729 8.213188v10.266484c0.684432 6.844323 2.737729 13.688645 4.791026 20.532968 2.053297 6.844323 4.106594 13.004213 6.15989 19.164104 2.053297 6.15989 4.791026 11.635349 6.844323 16.426374 4.791026 10.266484 10.266484 17.795239 14.373078 22.586265 4.106594 4.791026 7.528755 6.15989 7.528755 6.159891l-0.684433 0.684432zM202.903928 793.783265s33.537181-2.737729 67.758795-3.422161c17.110807-0.684432 33.537181 0 46.541394 0.684432 6.15989 0.684432 11.635349 1.368865 15.05751 1.368865 3.422161 0.684432 5.475458 0.684432 5.475459 0.684432s-2.053297 0-5.475459-0.684432h-15.05751c-12.319781 0-29.430588 2.053297-45.856962 4.106593-33.537181 4.106594-66.389931 10.266484-66.389931 10.266484l-2.053296-13.004213zM237.125541 708.913663s33.537181-2.737729 67.758795-3.422161c17.110807-0.684432 33.537181 0 46.541395 0.684432 6.15989 0.684432 11.635349 1.368865 15.05751 1.368865 3.422161 0.684432 5.475458 0.684432 5.475458 0.684432s-2.053297 0-5.475458-0.684432h-15.05751c-12.319781 0-29.430588 2.053297-45.856962 4.106593-33.537181 4.106594-66.389931 10.266484-66.389931 10.266485l-2.053297-13.004214zM397.967126 828.004879s-2.053297 0-6.159891-0.684432c-3.422161-0.684432-8.89762-1.368865-15.05751-2.053297-6.15989-0.684432-13.688645-1.368865-21.2174-2.053297-8.213187-0.684432-16.426375-0.684432-24.639562-0.684432-4.106594 0-8.213187 0.684432-12.319781 0.684432-4.106594 0.684432-8.213187 1.368865-11.635349 2.053297-7.528755 2.053297-14.373078 4.791026-21.2174 6.15989-6.15989 2.053297-11.635349 3.422161-15.05751 4.106594-3.422161 0.684432-5.475458 0.684432-5.475458 0.684432s2.053297-0.684432 5.475458-1.368864c3.422161-1.368865 8.89762-2.737729 14.373078-5.475458 6.15989-2.737729 12.319781-5.475458 20.532968-8.213188 4.106594-1.368865 8.213187-2.737729 12.319781-3.422161 4.106594-0.684432 8.213187-2.053297 13.004213-2.053297 8.89762-1.368865 17.110807-2.053297 25.323994-2.053297h22.586265c6.844323 0 11.635349 0.684432 15.741942 0.684433h6.159891l-2.737729 13.688645zM153.624804 869.070815s6.15989-4.791026 11.635349-14.373077c1.368865-2.053297 2.737729-4.791026 4.106593-8.213188 1.368865-2.737729 2.737729-6.15989 3.422162-9.582051 1.368865-3.422161 2.053297-6.844323 2.737729-10.266485 0.684432-3.422161 0.684432-7.528755 1.368864-10.950916v-10.950916c-0.684432-3.422161-0.684432-6.844323-1.368864-10.266484s-0.684432-6.844323-1.368865-9.582052c-0.684432-3.422161-1.368865-6.15989-1.368864-8.89762 0-1.368865-0.684432-2.737729-0.684433-4.106593 0-1.368865-0.684432-2.737729-0.684432-3.422162-0.684432-2.053297-0.684432-4.106594-0.684432-6.15989-0.684432-3.422161-0.684432-5.475458-0.684432-5.475458l0.684432-0.684433s1.368865 1.368865 2.737729 4.791026c2.053297 2.737729 4.791026 6.844323 6.844323 12.319781 1.368865 2.737729 2.053297 5.475458 3.422161 8.89762l2.053297 10.266484c0.684432 3.422161 0 7.528755 0 11.635348 0 4.106594-0.684432 8.213187-1.368865 11.635349-0.684432 4.106594-1.368865 7.528755-2.737729 11.635349-1.368865 3.422161-2.053297 7.528755-4.106593 10.950916-1.368865 3.422161-3.422161 6.844323-4.791026 9.582052-2.053297 2.737729-3.422161 5.475458-5.475459 7.528755-7.528755 8.89762-14.373078 13.004213-14.373077 13.004213l0.684432 0.684432z" fill="#A36E46" /><path d="M1144.682736 668.532159c60.23004 17.795239 68.443227 88.976196 40.381505 140.993049-28.061723 52.016853-62.283337 54.754582-112.246893 56.807878-49.963556 2.053297-365.486834-97.189383-365.486835-97.189383l158.788288-108.140299c0-0.684432 218.333895-9.582052 278.563935 7.528755z" fill="#BC8D42" /><path d="M1144.682736 668.532159c43.119233 8.89762 76.656415 81.447441 40.381505 140.993049-35.590478 59.545608-85.554034 67.758795-112.246893 56.807878-26.692859-10.950916-38.328207-73.234253-21.901833-120.46008 15.741942-47.910259 50.647988-86.238466 93.767221-77.340847z" fill="#ECBC78" /><path d="M1154.264788 775.988026s0-2.737729-0.684432-6.844323-1.368865-10.266484-4.106594-17.795239c-1.368865-3.422161-2.737729-6.844323-5.475458-9.582052-2.737729-2.737729-6.15989-3.422161-9.582052-2.053296-3.422161 1.368865-7.528755 4.106594-10.266484 7.528755-2.737729 3.422161-5.475458 7.528755-7.528755 11.635348-2.053297 4.106594-4.106594 8.89762-4.791026 13.004214-0.684432 2.053297-0.684432 4.791026-1.368864 6.844322l-0.684433 3.422162v3.422161c-0.684432 2.737729-0.684432 4.791026-0.684432 6.844323v6.15989c0 4.106594 0.684432 7.528755 1.368865 10.266484 0.684432 2.737729 2.737729 4.791026 4.106593 6.159891 2.053297 1.368865 4.106594 0.684432 5.475459 0 3.422161-1.368865 4.791026-4.106594 4.791025-4.106594l0.684433 0.684432s0 0.684432-0.684433 2.053297c0 1.368865-1.368865 2.737729-2.737729 4.791026-2.053297 2.053297-5.475458 3.422161-9.582051 2.737729-4.106594-0.684432-7.528755-4.106594-9.582052-8.213187-1.368865-2.053297-2.053297-4.106594-2.737729-6.159891-0.684432-2.053297-1.368865-4.791026-1.368865-6.844322 0-2.053297-0.684432-4.791026-0.684432-7.528755 0-2.737729 0-4.791026 0.684432-7.528755l0.684432-3.422162 0.684433-4.106593c0.684432-2.737729 1.368865-4.791026 2.053296-7.528755 2.053297-4.791026 4.106594-9.582052 6.844323-14.373078 2.737729-4.791026 6.15989-8.89762 9.582052-12.319781 4.106594-3.422161 8.213187-6.844323 13.688645-8.213187 2.737729-0.684432 5.475458-0.684432 8.213188 0 2.737729 0.684432 4.791026 2.737729 6.844322 4.106593 3.422161 4.106594 4.791026 8.213187 5.475459 11.635349 2.053297 7.528755 2.053297 14.373078 2.053296 18.479671v6.844323h-0.684432zM1037.226869 780.09462s-32.852749-6.844323-66.38993-10.950917c-16.426375-2.053297-33.537181-3.422161-45.856962-4.106593h-15.057511c-3.422161 0-5.475458 0.684432-5.475458 0.684432s2.053297-0.684432 5.475458-1.368864 8.89762-1.368865 15.057511-2.053297c12.319781-0.684432 29.430588-1.368865 46.541394-0.684433 33.537181 0.684432 67.758795 4.106594 67.758795 4.106594l-2.053297 14.373078zM1003.005256 691.118424s-32.852749-6.844323-66.389931-10.950916c-16.426375-2.053297-33.537181-3.422161-45.856962-4.106594h-15.05751c-3.422161 0-5.475458 0.684432-5.475458 0.684432s2.053297-0.684432 5.475458-1.368864 8.89762-1.368865 15.05751-2.053297c12.319781-0.684432 29.430588-1.368865 46.541394-0.684432 33.537181 0.684432 67.758795 4.106594 67.758796 4.106593l-2.053297 14.373078zM844.216968 787.623375s33.537181 4.791026 67.074363 10.266484c16.426375 2.737729 33.537181 6.15989 45.856962 8.213187 12.319781 2.737729 20.532968 4.791026 20.532969 4.791026s-8.213187-1.368865-21.217401-2.737729c-12.319781-1.368865-29.430588-2.737729-46.541395-3.422161-33.537181-2.053297-67.758795-3.422161-67.758795-3.422162l2.053297-13.688645zM1064.60416 810.894072s-1.368865-2.053297-2.737729-4.791026c-1.368865-3.422161-3.422161-8.213187-5.475458-14.373078l-2.053297-10.266484v-5.475458-6.15989c0-2.053297 0-4.106594 0.684433-6.159891 0.684432-2.053297 0.684432-4.106594 1.368864-6.15989 0.684432-4.106594 2.737729-8.213187 4.791026-12.319781 2.053297-3.422161 4.106594-8.213187 6.844323-10.950917 2.737729-3.422161 4.791026-6.844323 8.213187-9.582051 3.422161-2.737729 6.15989-5.475458 9.582052-7.528755 3.422161-2.053297 6.15989-3.422161 8.897619-4.791026 2.737729-1.368865 5.475458-2.737729 8.213188-3.422162 2.737729-0.684432 4.791026-1.368865 6.15989-2.053296 3.422161-1.368865 5.475458-1.368865 5.475458-1.368865l0.684433 0.684432s-1.368865 1.368865-4.791026 4.106594c-1.368865 1.368865-3.422161 2.737729-5.475458 4.106594-2.053297 1.368865-4.106594 2.737729-6.844323 4.791025-2.053297 2.053297-4.791026 4.106594-7.528755 6.159891-2.737729 2.053297-4.791026 4.791026-8.213188 7.528755-2.737729 2.053297-5.475458 5.475458-8.213187 8.213187-2.737729 2.737729-4.791026 6.15989-6.844323 8.89762-1.368865 3.422161-4.106594 6.844323-4.791025 10.266484-0.684432 2.053297-1.368865 3.422161-2.053297 5.475458-0.684432 2.053297-0.684432 3.422161-1.368865 5.475458-0.684432 3.422161-0.684432 7.528755-0.684432 10.950917s0 6.844323 0.684432 9.582051c0.684432 6.15989 2.053297 10.950916 3.422162 14.373078s2.053297 5.475458 2.053296 5.475458v-0.684432z" fill="#A36E46" /><path d="M550.595523 810.20964c-108.824732 3.422161-243.657889-25.323994-288.145988-162.210449s62.283337-201.223088 86.922899-271.03518c24.639562-69.12766-17.110807 132.095429 13.688646 93.767221 31.483885-38.328207 172.476933-216.280599 106.771434-339.478408C404.127016 8.739447 525.271529 348.217855 528.009258 300.307596c6.844323-147.152939 85.554034-180.69012 65.705498-297.728039 69.12766-28.746155 60.23004 188.903308 121.828945 347.007163 99.24268-136.886455 45.856962-124.566674 50.647988-143.730778 49.963556-200.538656 6.844323 151.943965 56.807879 242.973457 43.803666 80.078576 58.176743 197.116495 21.901832 277.879503-36.274911 82.131873-185.481146 80.078576-294.305877 83.500738z" fill="#FFE04A" /><path d="M658.05139 810.20964c-108.824732 3.422161-243.657889-25.323994-288.145988-162.210449s19.164104-223.124921 43.119234-292.937013c24.639562-69.12766 26.008426 153.997262 57.492311 115.669054 31.483885-38.328207 172.476933-216.280599 106.771434-339.478408C511.582883 8.739447 632.727396 348.217855 635.465125 300.307596c6.844323-146.468507 101.980409-99.927112 82.131873-216.280599 61.598905 34.221614 43.803666 108.140299 104.718137 266.928587 99.24268-136.886455 31.483885-146.468507 50.647989-143.730777 62.967769 9.582052 6.844323 151.943965 56.807878 242.973457 43.803666 80.078576 58.176743 197.116495 21.901833 277.879503-34.906046 80.763008-184.796714 78.709711-293.621445 82.131873z" fill="#FFE04A" /><path d="M657.366957 767.090407c93.767222 2.053297 210.80514-15.05751 248.448916-95.820519 38.328207-80.763008-54.07015-119.091216-74.603118-160.157152-21.2174-41.065936 15.05751 78.025279-12.319781 55.439014-26.692859-22.586265-149.206236-127.988835-91.713925-200.538656 56.807879-72.549821-47.910259 127.988835-49.963556 99.927112-6.15989-86.922899-73.918686-106.771435-56.807878-175.899094-60.23004-17.110807-52.016853 111.562461-104.718138 205.329682-85.554034-80.763008-2.737729-88.976196-43.803666-84.869602-41.750369 4.106594 10.266484 139.624184-49.279123 152.628397-58.861176 13.004213-49.963556 107.455867-19.164104 155.366126 31.483885 47.910259 160.157152 46.541395 253.924373 48.594692z" fill="#FFB000" /><path d="M623.829776 747.241871c55.439014 1.368865 123.882242-8.89762 146.468507-56.123447 22.586265-47.225827-31.483885-69.812092-43.803666-94.451654-12.319781-23.95513 8.89762 45.856962-6.844323 32.85275-15.741942-13.688645-87.607331-75.28755-54.070149-118.406784 33.537181-42.434801-28.061723 75.28755-29.430588 58.861176-3.422161-51.332421-43.803666-62.967769-33.537181-103.349274-35.590478-10.266484-30.799452 65.705498-61.598905 121.144513-50.647988-47.910259-1.368865-52.016853-26.008426-49.963556-24.639562 2.053297 6.15989 82.131873-28.746156 89.660628-34.906046 7.528755-29.430588 62.967769-10.950916 91.713924 17.110807 28.061723 93.082789 27.377291 148.521803 28.061724z" fill="#FF6D00" /><path d="M682.006519 747.241871c55.439014 1.368865 123.882242-8.89762 146.468507-56.123447 22.586265-47.225827-31.483885-69.812092-43.803666-94.451654-12.319781-23.95513 8.89762 45.856962-6.844322 32.85275-15.741942-13.688645-87.607331-75.28755-54.07015-118.406784 33.537181-42.434801-28.061723 75.28755-29.430588 58.861176-3.422161-51.332421-43.803666-62.967769-33.537181-103.349274-35.590478-10.266484-30.799452 65.705498-61.598905 121.144513-50.647988-47.910259-1.368865-52.016853-26.008426-49.963556-24.639562 2.053297 6.15989 82.131873-28.746156 89.660628-34.906046 7.528755-29.430588 62.967769-10.950916 91.713924 17.110807 28.061723 93.082789 27.377291 148.521803 28.061724z" fill="#FF6D00" /><path d="M780.564767 893.710377s-249.133348 15.741942-247.764483 0.684433c1.368865-15.05751 2.053297-86.922899 40.381504-102.664842 39.01264-15.741942 98.558247-16.426375 137.570887-4.791025 39.01264 12.319781 69.812092 106.771435 69.812092 106.771434z" fill="#BC8D42" /><path d="M662.842416 820.476124c50.647988 0 125.251106 15.741942 118.406783 106.087002s-60.23004 99.24268-143.730777 97.189383c-83.500737-1.368865-108.824732-59.545608-103.349274-123.882241 4.791026-64.336634 78.025279-79.394144 128.673268-79.394144z" fill="#ECBC78" /><path d="M669.002306 981.317708s5.475458-0.684432 14.373078-2.737729c4.791026-1.368865 10.266484-3.422161 15.741942-6.15989 5.475458-3.422161 11.635349-7.528755 16.426375-13.688646 4.791026-6.15989 7.528755-14.373078 7.528755-23.270697 0-8.89762-2.053297-18.479671-5.475458-27.377291-4.106594-8.89762-10.950916-16.426375-19.848536-19.848536-8.89762-3.422161-19.848536-2.737729-29.430588 0s-19.164104 7.528755-28.061723 13.004213c-8.213187 6.15989-15.741942 12.319781-21.217401 20.532968-0.684432 0.684432-1.368865 2.053297-1.368864 2.73773-0.684432 1.368865-1.368865 2.737729-1.368865 3.422161-0.684432 1.368865-0.684432 3.422161-0.684432 5.475458 0 3.422161 2.053297 6.844323 4.791026 9.582052 5.475458 5.475458 13.688645 8.89762 21.2174 10.266484 7.528755 1.368865 15.05751 1.368865 21.217401-0.684432 6.15989-1.368865 10.950916-4.106594 14.373077-7.528755 3.422161-2.737729 5.475458-6.15989 6.159891-8.213187 0.684432-2.053297 1.368865-3.422161 1.368864-3.422162h0.684433s-0.684432 1.368865-1.368865 4.106594c-0.684432 2.737729-2.737729 6.15989-5.475458 10.266484-3.422161 4.106594-8.213187 7.528755-15.05751 10.266484-6.844323 2.053297-14.373078 3.422161-23.270697 2.737729-8.89762-0.684432-18.479671-3.422161-26.692859-10.950916-4.106594-3.422161-7.528755-8.89762-8.213187-15.05751-0.684432-3.422161 0-6.15989 1.368864-9.582052 0.684432-1.368865 0.684432-2.737729 1.368865-3.422162l2.053297-4.106593c6.15989-9.582052 14.373078-17.795239 23.955129-23.95513 9.582052-6.15989 19.848536-10.950916 31.483885-13.688645 10.950916-2.737729 23.270697-2.737729 34.906046 2.053297 10.950916 4.791026 19.164104 14.373078 23.270697 23.955129 4.106594 10.266484 6.15989 20.532968 5.475458 30.11502-0.684432 10.266484-4.106594 19.164104-10.266484 25.323994-5.475458 6.844323-12.319781 10.950916-18.479671 13.688646-6.15989 2.737729-11.635349 4.791026-16.426375 5.475458-9.582052 2.053297-15.05751 2.053297-15.05751 2.053297v-1.368865zM733.33894 831.42704v-0.684432c0-0.684432 0-2.737729-0.684432-4.106594-0.684432-4.106594-3.422161-8.89762-6.159891-14.373077s-6.15989-10.266484-8.897619-13.688646-4.791026-6.15989-4.791026-6.15989 2.737729 2.053297 6.15989 4.791026c3.422161 2.737729 8.213187 6.844323 13.004213 10.950916 4.106594 4.106594 8.213187 9.582052 10.950917 13.688646 1.368865 2.053297 2.053297 4.106594 2.737729 6.15989 0 0.684432 0.684432 1.368865 0.684432 2.053297v0.684432l-13.004213 0.684432zM556.755413 829.373744s0.684432 0 1.368865-0.684433 2.053297-1.368865 3.422161-2.737729c2.737729-2.737729 6.15989-6.844323 8.89762-11.635348s5.475458-10.266484 6.844322-14.373078c1.368865-4.106594 2.737729-6.844323 2.73773-6.844323s0 2.737729-0.684433 7.528755c0 4.106594-1.368865 10.266484-2.737729 16.426375-1.368865 6.15989-3.422161 11.635349-6.15989 16.426374-1.368865 2.053297-2.053297 4.106594-3.422162 5.475458-0.684432 0.684432-0.684432 1.368865-1.368864 1.368865l-0.684433 0.684432-8.213187-11.635348zM631.358531 805.418614s0.684432 0 0 0c0 0.684432 0.684432 0.684432 0 0 0.684432 0 0.684432-0.684432 1.368865-1.368865 0.684432-1.368865 1.368865-4.106594 1.368864-7.528755 0-3.422161-0.684432-6.844323-2.053297-8.897619-0.684432-2.737729-1.368865-4.106594-1.368864-4.106594s1.368865 1.368865 3.422161 2.737729c2.053297 2.053297 4.791026 4.791026 6.844323 8.213188 2.053297 3.422161 3.422161 7.528755 3.422161 10.950916 0 2.053297 0 3.422161-0.684432 4.791026 0 0.684432 0 1.368865-0.684432 1.368864v0.684433l-11.635349-6.844323zM560.177575 893.710377s3.422161-9.582052 13.688645-20.532968l8.213187-8.213187c3.422161-2.737729 6.844323-5.475458 10.950917-8.213188 4.106594-2.737729 8.213187-4.791026 12.319781-7.528755 4.791026-2.053297 8.89762-4.106594 13.688645-5.475458 4.791026-1.368865 9.582052-3.422161 14.373078-4.106593 4.791026-0.684432 9.582052-2.053297 14.373078-2.053297h13.688645c4.106594 0.684432 8.213187 0.684432 11.635349 1.368864s6.844323 1.368865 9.582052 2.053297c2.737729 0.684432 5.475458 1.368865 7.528755 2.053297l6.15989 2.053297v0.684432h-36.27491c-4.106594 0.684432-8.213187 0.684432-12.319781 0.684432-4.106594 0-8.89762 0.684432-13.688646 1.368865-4.791026 0-8.89762 1.368865-13.688645 2.737729s-8.89762 2.737729-13.004214 4.106594c-4.106594 2.053297-8.213187 3.422161-12.31978 5.475458-2.053297 1.368865-4.106594 2.053297-5.475459 3.422161-2.053297 1.368865-3.422161 2.053297-5.475458 3.422162-3.422161 2.053297-6.15989 4.791026-8.897619 7.528755-10.266484 9.582052-15.05751 18.479671-15.05751 18.479671v0.684432zM676.531061 1014.85489h-6.15989c-4.106594 0-9.582052 0-16.426375-0.684433-3.422161-0.684432-7.528755-0.684432-10.950916-1.368864-4.106594-0.684432-8.213187-1.368865-12.319781-2.737729-4.106594-0.684432-8.213187-2.737729-13.004213-4.106594-4.106594-2.053297-8.89762-4.106594-13.004214-6.15989-4.106594-2.737729-8.213187-4.791026-11.635348-8.213188-2.053297-1.368865-3.422161-2.737729-5.475458-4.791025-2.053297-1.368865-3.422161-3.422161-4.791026-4.791026-1.368865-2.053297-2.737729-3.422161-4.106594-5.475459-1.368865-2.053297-2.053297-4.106594-3.422161-5.475458-0.684432-2.053297-2.053297-3.422161-2.737729-5.475458-0.684432-2.053297-1.368865-3.422161-2.053297-5.475458-0.684432-3.422161-2.053297-6.844323-2.737729-9.582052 0-2.737729-0.684432-5.475458-0.684433-7.528755v-6.15989h0.684433s1.368865 2.053297 2.737729 5.475458c0.684432 2.053297 2.053297 4.106594 2.737729 6.844322 1.368865 2.737729 2.737729 4.791026 4.106593 8.213188 0.684432 1.368865 1.368865 2.737729 2.73773 4.791026 0.684432 1.368865 2.053297 2.737729 3.422161 4.106593 1.368865 1.368865 2.053297 2.737729 3.422161 4.791026l4.106594 4.106594c1.368865 1.368865 2.737729 3.422161 4.106594 4.791026 1.368865 1.368865 2.737729 2.737729 4.791025 4.106593 2.737729 3.422161 6.844323 5.475458 10.266485 8.213188 3.422161 2.053297 7.528755 4.791026 11.635348 6.844322 4.106594 2.053297 7.528755 4.106594 11.635349 4.791026 4.106594 1.368865 7.528755 2.737729 11.635349 4.106594 3.422161 1.368865 7.528755 2.053297 10.950916 2.737729 13.688645 2.737729 22.586265 2.737729 22.586265 2.737729l-2.053297 1.368865z" fill="#A36E46" /></svg>