<?xml version="1.0" standalone="no"?><!DOCTYPE svg PUBLIC "-//W3C//DTD SVG 1.1//EN" "http://www.w3.org/Graphics/SVG/1.1/DTD/svg11.dtd"><svg class="icon" width="200px" height="165.16px" viewBox="0 0 1240 1024" version="1.1" xmlns="http://www.w3.org/2000/svg"><path d="M767.487513 550.189962c0 195.294945-164.307186 353.11632-367.529232 353.116321s-367.529232-157.821376-367.529231-353.116321 164.307186-353.11632 367.529231-353.11632 367.529232 157.821376 367.529232 353.11632" fill="#FFE04A" /><path d="M399.958281 914.115966C191.691717 914.115966 21.619367 750.529426 21.619367 550.189962s169.351705-363.926004 378.338914-363.926003c208.266565 0 378.338915 162.865895 378.338915 363.926003 0 200.339463-169.351705 363.926004-378.338915 363.926004z m0-706.953286C203.222046 207.16268 43.238733 361.380828 43.238733 550.189962c0 188.809135 159.983313 342.306637 357.440194 342.306638 196.736236 0 357.440194-153.497503 357.440194-342.306638-0.720646-188.809135-161.424604-343.027283-358.16084-343.027282z" fill="#545971" /><path d="M399.237636 803.136551c-147.011693 0-273.84531-43.238733-334.379536-135.481364 41.797442 131.878136 175.837515 228.44464 334.379536 228.44464s292.582094-96.566504 334.379536-228.44464c-60.534226 92.242631-187.367844 135.481364-334.379536 135.481364" fill="#FFD05A" /><path d="M398.51699 824.755918c-220.517539-7.206456-206.104628-201.060109-206.104628-201.060109s87.198112 40.356151 227.003349 38.194214 212.590438-46.121315 212.590438-46.121315c-0.720646 2.161937-13.692265 216.914311-233.489159 208.98721z" fill="#545971" /><path d="M409.326674 836.286247h-11.530329c-72.785201-2.161937-128.995554-25.222594-166.469123-67.020037-55.489708-61.975517-50.445189-142.687819-49.724543-146.291047 0-3.603228 2.161937-6.48581 5.044519-8.647746 2.882582-1.441291 6.48581-2.161937 10.089038-0.720646 0.720646 0.720646 86.477466 39.635505 221.95883 37.473569 134.760718-2.161937 206.104628-43.959379 206.825273-44.680024 3.603228-2.161937 8.647747-2.161937 12.250975 0.720645 2.882582 2.161937 4.323873 6.48581 3.603227 10.089038v0.720645c-2.882582 37.473569-31.708404 218.355602-232.047867 218.355603zM203.222046 639.550011c1.441291 24.501949 8.647747 74.947137 44.680024 115.303288 33.870341 37.473569 84.31553 56.930999 150.61492 59.092935 167.189768 5.765164 208.98721-123.951035 219.076248-179.440742-30.267113 13.692265-97.28715 36.752923-198.177527 38.194214-108.096833 1.441291-185.205907-21.619367-216.193665-33.149695z" fill="#545971" /><path d="M195.294945 626.578391C389.148598 692.877782 626.240985 620.092581 626.240985 620.092581s-10.089038 39.635505-12.250975 44.680024c-2.161937 5.044519-66.299391 43.238733-213.311083 43.238733-146.291047 0-189.52978-45.40067-194.574299-53.327771-3.603228-8.647747-15.133557-28.105177-10.809683-28.105176z" fill="#FFFFFF" /><path d="M405.723446 810.343007h-12.250975c-75.667783-2.161937-132.598782-25.222594-168.631059-67.020037-50.445189-57.651644-43.238733-129.716199-43.238733-133.319427 0.720646-3.603228 2.161937-6.48581 5.765165-7.927101 2.882582-1.441291 6.48581-2.161937 10.089037-0.720645 0.720646 0.720646 82.874238 37.473569 212.590438 37.473568h9.368392c135.481364-2.161937 206.104628-43.959379 206.825274-44.680024 3.603228-2.161937 8.647747-2.161937 12.250974 0.720646 2.882582 2.161937 4.323873 6.48581 3.603228 10.089037v0.720646c-4.323873 34.590986-36.752923 204.663337-236.371741 204.663337zM203.222046 627.299037c0.720646 22.340012 6.48581 66.299391 38.194214 102.331668 32.42905 37.473569 84.31553 56.930999 152.776857 59.813581 32.42905 0.720646 190.971071-2.161937 223.400121-166.469123-30.987759 13.692265-97.28715 36.752923-198.177527 38.194214-108.096833 0.720646-185.205907-22.340012-216.193665-33.87034z" fill="#545971" /><path d="M403.561509 730.35135c-154.218148-7.206456-153.497503 30.267113-153.497502 30.267114s51.165834 54.048416 158.542021 50.445188c107.376187-4.323873 146.291047-49.724543 146.291047-49.724543s2.161937-24.501949-151.335566-30.987759z" fill="#DD6B73" /><path d="M221.95883 171.130402l426.622167 5.765164S751.633311 50.061949 735.779109 27.001292c-15.854202-23.060658-596.694517-27.384531-613.990011 2.161936-16.574848 30.267113 100.169732 141.967174 100.169732 141.967174z" fill="#545971" /><path d="M652.90487 186.263959L218.355602 180.498794l-2.161936-2.882582C187.367844 150.231681 95.125213 58.709696 114.582643 25.560001c3.603228-6.48581 9.368392-16.574848 134.040072-22.340013 85.036175-3.603228 201.780755-4.323873 306.27436-1.441291 177.999451 5.044519 185.205907 15.854202 188.809135 20.898721 17.295493 24.501949-47.562606 110.979415-87.918758 160.703958l-2.882582 2.882583z m-427.342812-23.781304l418.695066 5.044519c49.003898-60.534226 86.477466-121.068453 84.315529-134.760718-17.295493-7.206456-134.040073-15.133557-299.78855-15.133557-179.440742 0-285.375639 8.647747-299.067904 17.295494-4.323873 12.97162 32.42905 65.578745 95.845859 127.554262z" fill="#545971" /><path d="M110.979415 284.271754c5.044519 7.206456 294.744031 92.963276 294.744031 92.963276s284.654993-92.242631 290.420157-93.683922c5.765164-1.441291-46.841961-98.007795-46.841961-98.007795l-427.342812-13.692265c0-0.720646-116.023934 105.214251-110.979415 112.420706z" fill="#545971" /><path d="M405.723446 385.882777l-2.161937-0.720646c-292.582094-86.477466-297.626613-92.963276-299.78855-95.845858-5.044519-7.206456-9.368392-13.692265 112.420707-124.671681l2.882582-2.161937 435.990559 14.412911 2.161936 4.323874c51.88648 95.125213 49.724543 100.890377 47.562607 105.21425l-2.161937 4.323874-5.044519 1.441291c-7.206456 2.161937-211.869792 68.461327-289.699512 93.683922h-2.161936zM123.230389 279.94788C158.542021 293.640146 308.436296 339.040816 405.723446 367.145992c47.562606-15.133557 237.092387-77.109074 280.33112-90.080694-5.765164-14.412911-23.781303-50.445189-41.797442-82.874238L225.562058 180.498794c-43.238733 38.91486-88.639403 82.874238-102.331669 99.449086z" fill="#545971" /><path d="M101.611023 286.43369c3.603228 19.45743 304.112423 98.728441 304.112423 98.728441l5.044519-211.149147s-188.809135-7.206456-203.222046-2.161936c-18.016139 12.250974-108.817478 97.28715-105.934896 114.582642z" fill="#73798C" /><path d="M94.404567 207.16268H93.683922c-5.765164-0.720646-10.809683-5.765164-10.089038-11.530329 0-4.323873 7.206456-104.493605 20.898721-167.189768 1.441291-5.765164 7.206456-9.368392 12.97162-7.927101 5.765164 1.441291 9.368392 7.206456 7.927101 12.97162-12.97162 61.254872-20.178075 162.865895-20.178075 164.307186-0.720646 4.323873-5.044519 9.368392-10.809684 9.368392z" fill="#545971" /><path d="M86.477466 275.624007h-0.720645c-12.250974-0.720646-21.619367-10.809683-20.898721-23.060658 0-2.882582 2.882582-77.109074 10.809683-123.230389 2.161937-11.530329 12.97162-19.45743 25.222594-18.016139 11.530329 2.161937 19.45743 12.97162 18.016139 25.222595-7.206456 43.238733-10.089038 116.744579-10.089038 117.465225-1.441291 12.250974-10.809683 21.619367-22.340012 21.619366z" fill="#545971" /><path d="M695.422958 1020.771508c-3.603228 5.765164-18.016139 2.882582-25.94324-1.441291-7.206456-4.323873-16.574848-15.854202-13.692266-21.619367l374.015042-598.135808c3.603228-5.765164 5.765164-10.089038 12.97162-5.765164 7.206456 4.323873 4.323873 8.647747 1.441291 14.412911l-348.792447 612.548719z" fill="#545971" /><path d="M600.297745 916.277903c31.708404 18.016139 11.530329 5.044519 52.607125 23.781303 26.663885 11.530329 43.959379 19.45743 51.165834 23.060658 15.854202 7.206456 50.445189 25.94324 60.534227 4.323873 9.368392-20.898721-7.927101-28.105177-7.927101-28.105176s33.149695 8.647747 41.797442-10.809684c10.809683-23.781303-7.206456-36.752923-7.206456-36.752923s23.060658 8.647747 33.870341-14.412911c10.809683-24.501949-10.809683-36.032278-10.809683-36.032278l-49.724543-55.489707h-0.720646c0-3.603228 3.603228-5.765164 4.323873-6.48581 5.765164-2.161937 43.238733-1.441291 61.254872-25.94324 18.736784-24.501949-8.647747-86.477466-39.635505-60.534226-14.412911 11.530329-33.870341 19.45743-67.740682 40.356151-41.076796 25.222594-55.489708-10.089038-82.874238 17.295493-26.663885 25.222594-70.623264 147.732338-38.91486 165.748477z" fill="#FFFFFF" /><path d="M804.240436 833.403664c-0.720646 1.441291-13.692265-5.044519-20.898721-9.368392-7.206456-4.323873-18.736784-12.97162-18.016139-13.692265L856.126916 684.950681c0.720646-1.441291 1.441291-2.161937 8.647746 2.161936s6.48581 5.044519 5.765165 6.48581l-66.299391 139.805237z" fill="#545971" /><path d="M747.309437 987.621813c-14.412911 0-29.546468-7.206456-41.797442-12.97162-2.161937-0.720646-4.323873-2.161937-5.765164-2.882583-7.927101-3.603228-25.222594-10.809683-51.165834-23.060657l-5.044519-2.161937c-20.178075-9.368392-20.178075-9.368392-25.222594-11.530329l-21.619367-10.089037c-6.48581-2.882582-15.133557-10.089038-18.736784-26.663886-7.927101-43.238733 28.825822-131.15749 55.489707-157.821376 18.736784-19.45743 34.590986-15.854202 47.562607-12.97162 11.530329 2.161937 20.898721 4.323873 37.473568-5.765164 14.412911-8.647747 26.663885-15.854202 36.752924-20.898721 12.97162-7.206456 22.340012-12.250974 29.546467-18.016139 14.412911-11.530329 30.987759-11.530329 44.680024 1.441291 17.295493 16.574848 25.94324 53.327771 10.089038 74.226492-15.133557 20.178075-40.356151 25.94324-56.210353 28.105177 18.016139 15.854202 39.635505 36.032278 43.238733 43.959378 0.720646 0.720646 1.441291 2.882582 2.882582 4.323874 6.48581 7.927101 16.574848 21.619367 5.765165 46.121315-5.765164 12.250974-15.133557 18.736784-23.781303 21.619366 2.161937 8.647747 2.882582 18.736784-2.882583 30.267114-5.765164 12.97162-18.016139 17.295493-30.267113 18.736784 0.720646 5.044519 0 12.250974-3.603228 20.178075-2.882582 7.206456-7.927101 11.530329-15.133556 14.412911-4.323873 0.720646-7.927101 1.441291-12.250975 1.441292z m-142.687819-81.432948l21.619367 10.089038c5.044519 2.161937 5.044519 2.161937 25.222594 11.530329l5.044519 2.161936c26.663885 11.530329 43.959379 19.45743 51.165834 23.060658 2.161937 0.720646 3.603228 1.441291 6.48581 2.882582 10.089038 4.323873 28.825822 12.97162 37.473569 10.089038 0.720646-0.720646 2.161937-0.720646 2.882582-2.882582 1.441291-2.882582 2.882582-7.206456 1.441291-10.089038-0.720646-2.882582-3.603228-3.603228-3.603228-3.603228-5.044519-2.161937-7.927101-7.927101-5.765164-12.97162 1.441291-5.044519 7.206456-7.927101 12.250974-7.206455 5.044519 1.441291 25.222594 4.323873 29.546468-5.044519 6.48581-15.133557-2.161937-23.060658-3.603228-24.501949-4.323873-3.603228-5.044519-9.368392-2.882582-13.692265 2.882582-4.323873 7.927101-6.48581 12.97162-5.044519 2.882582 1.441291 14.412911 3.603228 20.178075-9.368392 5.765164-12.97162 2.161937-18.016139-2.882582-24.501949-2.161937-2.161937-3.603228-5.044519-5.044519-7.927101-2.882582-5.044519-28.105177-28.105177-49.003897-46.121316-2.161937-2.161937-3.603228-5.044519-3.603228-8.647746 0-7.206456 5.044519-12.97162 9.368392-15.133557 0.720646 0 0.720646-0.720646 1.441291-0.720645 2.882582-1.441291 5.765164-1.441291 10.809684-2.161937 12.250974-1.441291 35.311632-5.044519 46.84196-20.178075 7.927101-10.089038 3.603228-35.311632-7.927101-46.121316-5.765164-5.044519-10.089038-5.044519-15.854202 0-8.647747 7.206456-19.45743 12.97162-33.149695 20.898721-10.089038 5.765164-21.619367 11.530329-36.032278 20.178076-23.781303 14.412911-40.356151 10.809683-52.607125 7.927101-11.530329-2.161937-17.295493-3.603228-28.105177 7.206455-22.340012 22.340012-56.210353 104.493605-49.724543 139.084592 0 8.647747 3.603228 10.809683 5.044519 10.809683z" fill="#545971" /><path d="M823.697866 846.375284c-1.441291 2.882582-4.323873 3.603228-7.206456 2.882583l-67.740681-30.267114c-2.882582-1.441291-4.323873-4.323873-2.882583-7.206455 1.441291-2.882582 4.323873-3.603228 7.206456-2.882582l67.740682 30.267113c2.882582 1.441291 4.323873 4.323873 2.882582 7.206455" fill="#545971" /><path d="M818.653347 854.302385c-1.441291 0-2.882582 0-4.323873-0.720645l-67.740682-30.267113c-2.882582-1.441291-4.323873-3.603228-5.765165-5.765165-0.720646-2.161937-0.720646-5.044519 0-7.927101 2.161937-5.044519 8.647747-7.206456 13.692266-5.044519l67.740682 30.267114c5.044519 2.161937 7.927101 8.647747 5.765164 13.692265-1.441291 3.603228-5.765164 5.765164-9.368392 5.765164z m-67.740682-41.076796s-0.720646 0-0.720645 0.720645 0 0.720646 0.720645 1.441292l67.740682 30.267113h1.441291s0-0.720646-0.720645-1.441291l-68.461328-30.987759z" fill="#53586F" /><path d="M801.357854 896.099827c-1.441291 2.882582-4.323873 3.603228-7.206456 2.882583l-67.740682-30.267114c-2.882582-1.441291-4.323873-4.323873-2.882582-7.206455 1.441291-2.882582 4.323873-3.603228 7.206456-2.882582l67.740682 30.267113c2.882582 1.441291 4.323873 4.323873 2.882582 7.206455" fill="#545971" /><path d="M796.313335 904.026928c-1.441291 0-2.882582 0-4.323873-0.720645l-67.740682-30.267113c-5.044519-2.161937-7.927101-8.647747-5.765165-13.692266 0.720646-2.161937 2.882582-4.323873 5.765165-5.044519 2.882582-0.720646 5.765164-0.720646 7.927101 0l67.740682 30.267114c5.044519 2.161937 7.927101 8.647747 5.765164 13.692265-0.720646 2.161937-2.882582 4.323873-5.765164 5.044519-0.720646 0.720646-2.161937 0.720646-3.603228 0.720645z m-67.740682-41.076796c-0.720646 0-0.720646 0 0 0-0.720646 0.720646-0.720646 1.441291 0 1.441291l67.740682 30.267113h0.720646s0-0.720646-0.720646-1.441291l-67.740682-30.267113z" fill="#53586F" /><path d="M769.64945 945.103725c-1.441291 2.882582-4.323873 3.603228-7.206456 2.882582l-67.740682-30.267113c-2.882582-1.441291-4.323873-4.323873-2.882582-7.206456 1.441291-2.882582 4.323873-3.603228 7.206455-2.882582l67.740682 30.267113c2.161937 0.720646 3.603228 4.323873 2.882583 7.206456" fill="#545971" /><path d="M764.604931 952.31018c-1.441291 0-2.882582 0-4.323874-0.720645l-67.740681-30.267113c-2.161937-1.441291-4.323873-2.882582-5.765165-5.765165-1.441291-2.882582-0.720646-5.765164 0-7.927101 1.441291-2.161937 2.882582-4.323873 5.765165-5.044519 2.882582-0.720646 5.044519-0.720646 7.927101 0.720646l67.740681 30.267113c5.044519 2.161937 7.927101 8.647747 5.765165 13.692266-2.161937 2.882582-5.765164 5.044519-9.368392 5.044518z m-68.461328-41.076796h-0.720645c0 0.720646 0 0.720646 0.720645 1.441291l67.740682 30.267113h1.441291s0-0.720646-0.720645-1.441291l-68.461328-30.267113c0.720646 0 0 0 0 0z" fill="#53586F" /><path d="M727.131362 873.03917c-1.441291 0-2.882582 0-3.603228-0.720646-12.97162-5.044519-21.619367-17.295493-23.781303-31.708404-1.441291-14.412911 3.603228-28.105177 14.412911-36.032278 5.765164-4.323873 18.736784-10.809683 38.194214-2.161936 5.044519 2.161937 7.206456 7.927101 5.044519 12.97162-2.161937 5.044519-7.927101 7.206456-12.97162 5.044518-5.044519-2.161937-12.250974-4.323873-18.016139 0-4.323873 3.603228-7.206456 10.089038-5.765164 17.295494 0.720646 3.603228 2.161937 11.530329 10.809683 15.133556 5.044519 2.161937 7.927101 7.927101 5.765165 12.97162-2.161937 5.044519-5.765164 7.206456-10.089038 7.206456z" fill="#545971" /><path d="M698.30554 922.763713c-1.441291 0-2.882582 0-3.603228-0.720646-12.250974-5.044519-20.178075-15.133557-21.619366-28.105176-1.441291-14.412911 4.323873-29.546468 15.854202-38.194214 11.530329-8.647747 25.94324-9.368392 41.076796-2.882583 5.044519 2.161937 7.206456 7.927101 5.044519 12.97162-2.161937 5.044519-7.927101 7.206456-12.97162 5.044519-7.927101-3.603228-15.133557-3.603228-20.898721 0.720646-5.765164 4.323873-8.647747 12.250974-7.927101 19.45743 0.720646 4.323873 2.161937 9.368392 9.368392 12.250974 5.044519 2.161937 7.927101 7.927101 5.765165 12.97162-2.161937 4.323873-5.765164 6.48581-10.089038 6.48581z" fill="#545971" /><path d="M709.115223 974.650193c-1.441291 0-2.882582 0-3.603228-0.720646-12.97162-5.044519-20.898721-15.133557-23.060657-27.384531-1.441291-10.809683 3.603228-22.340012 12.250974-28.825822 9.368392-7.206456 21.619367-7.927101 34.590987-2.161937 5.044519 2.161937 7.206456 7.927101 5.044519 12.97162-2.161937 5.044519-7.927101 7.206456-12.97162 5.044519-5.765164-2.882582-10.809683-2.882582-14.412911 0-2.882582 2.161937-4.323873 5.765164-4.323874 10.089038 0.720646 5.044519 4.323873 8.647747 10.089038 11.530329 5.044519 2.161937 7.927101 7.927101 5.765164 12.97162-1.441291 4.323873-5.765164 6.48581-9.368392 6.48581z" fill="#545971" /><path d="M463.37509 491.817673c-2.882582 0-5.765164-0.720646-7.927101-2.882582-18.016139-18.016139-36.032278-25.94324-53.327771-25.222595-25.94324 1.441291-43.959379 23.781303-44.680024 24.501949-3.603228 4.323873-10.809683 5.765164-15.133557 2.161937-5.044519-3.603228-5.765164-10.089038-2.161936-15.133557 0.720646-1.441291 23.781303-30.267113 59.81358-32.42905 23.781303-1.441291 47.562606 9.368392 69.902619 31.708404 4.323873 4.323873 4.323873 10.809683 0 15.133557-0.720646 0.720646-3.603228 2.161937-6.48581 2.161937z" fill="#545971" /><path d="M255.829171 481.007989m-101.611023 0a101.611023 101.611023 0 1 0 203.222046 0 101.611023 101.611023 0 1 0-203.222046 0Z" fill="#FFFFFF" /><path d="M255.829171 593.428696c-61.975517 0-112.420706-50.445189-112.420706-112.420707S193.853653 367.866638 255.829171 367.866638s113.141352 50.445189 113.141352 113.141351c-0.720646 61.975517-51.165834 112.420706-113.141352 112.420707z m0-203.942692c-50.445189 0-90.80134 41.076796-90.80134 91.521985 0 50.445189 41.076796 90.80134 90.80134 90.80134 50.445189 0 91.521985-41.076796 91.521985-90.80134-0.720646-50.445189-41.076796-91.521985-91.521985-91.521985z" fill="#545971" /><path d="M317.084043 463.712496m-25.222594 0a25.222594 25.222594 0 1 0 50.445188 0 25.222594 25.222594 0 1 0-50.445188 0Z" fill="#545971" /><path d="M557.059012 481.007989m-101.611023 0a101.611023 101.611023 0 1 0 203.222046 0 101.611023 101.611023 0 1 0-203.222046 0Z" fill="#FFFFFF" /><path d="M557.059012 593.428696c-61.975517 0-113.141352-50.445189-113.141352-112.420707S494.362849 367.866638 557.059012 367.866638C619.034529 367.866638 670.200363 418.311826 670.200363 481.007989c0 61.975517-51.165834 112.420706-113.141351 112.420707z m0-203.942692c-50.445189 0-91.521985 41.076796-91.521985 91.521985 0 50.445189 41.076796 90.80134 91.521985 90.80134 50.445189 0 90.80134-41.076796 90.801339-90.80134 0.720646-50.445189-40.356151-91.521985-90.801339-91.521985z" fill="#545971" /><path d="M626.240985 468.757015m-25.222595 0a25.222594 25.222594 0 1 0 50.445189 0 25.222594 25.222594 0 1 0-50.445189 0Z" fill="#545971" /><path d="M43.959379 520.643495l-20.898721-6.48581c20.898721-66.299391 126.833617-63.416809 131.15749-63.416809l-0.720645 21.619367s-92.963276-2.882582-109.538124 48.283252zM757.398475 525.688014c-37.473569-61.254872-96.566504-53.327771-97.287149-53.327771l-2.882583-21.619367c2.882582-0.720646 74.226492-10.089038 118.906517 63.416809l-18.736785 11.530329z" fill="#545971" /></svg>