<?xml version="1.0" standalone="no"?><!DOCTYPE svg PUBLIC "-//W3C//DTD SVG 1.1//EN" "http://www.w3.org/Graphics/SVG/1.1/DTD/svg11.dtd"><svg class="icon" width="200px" height="200.00px" viewBox="0 0 1024 1024" version="1.1" xmlns="http://www.w3.org/2000/svg"><path d="M927.573333 492.373333c0 231.253333-194.56 418.133333-435.2 418.133334s-435.2-186.88-435.2-418.133334 194.56-418.133333 435.2-418.133333c240.64-0.853333 435.2 186.88 435.2 418.133333" fill="#FFE04A" /><path d="M492.373333 922.453333c-246.613333 0-448-192.853333-448-430.933333S244.906667 61.44 492.373333 61.44s448 192.853333 448 430.933333-201.386667 430.08-448 430.08z m0-836.266666c-232.96 0-423.253333 181.76-423.253333 405.333333s189.44 405.333333 423.253333 405.333333 423.253333-181.76 423.253334-405.333333S725.333333 86.186667 492.373333 86.186667z" fill="#545971" /><path d="M492.373333 778.24c-179.2 0-334.506667-57.173333-408.746666-180.053333 51.2 174.933333 214.186667 302.933333 408.746666 302.933333s357.546667-128 408.746667-302.933333c-74.24 123.733333-229.546667 180.053333-408.746667 180.053333" fill="#FFD05A" /><path d="M492.373333 704c-114.346667 0-164.693333-89.6-174.08-107.52-2.56-5.12-2.56-11.093333 0-16.213333 4.266667-7.68 14.506667-11.093333 23.04-5.973334 2.56 1.706667 5.973333 5.12 6.826667 7.68 10.24 21.333333 51.2 89.6 144.213333 89.6 92.16 0 133.12-68.266667 144.213334-88.746666 0.853333-1.706667 2.56-5.12 6.826666-7.68 7.68-4.266667 17.92-1.706667 23.04 5.973333 3.413333 5.12 2.56 11.946667 0 16.213333-13.653333 24.746667-63.146667 106.666667-174.08 106.666667zM725.333333 362.666667c-9.386667 0-17.066667-7.68-17.066666-17.066667 0-27.306667-26.453333-61.44-56.32-61.44s-56.32 34.133333-56.32 61.44c0 9.386667-7.68 17.066667-17.066667 17.066667s-17.066667-7.68-17.066667-17.066667c0-44.373333 39.253333-94.72 89.6-94.72s89.6 51.2 89.6 94.72c0.853333 9.386667-6.826667 17.066667-15.36 17.066667zM406.186667 362.666667c-9.386667 0-17.066667-7.68-17.066667-17.066667 0-27.306667-26.453333-61.44-56.32-61.44s-56.32 34.133333-56.32 61.44c0 9.386667-7.68 17.066667-17.066667 17.066667s-17.066667-7.68-17.066666-17.066667c0-44.373333 39.253333-94.72 89.6-94.72s89.6 51.2 89.6 94.72c0.853333 9.386667-5.973333 17.066667-15.36 17.066667z" fill="#545971" /><path d="M287.573333 452.266667c0 38.4-32.426667 69.973333-72.533333 69.973333s-72.533333-31.573333-72.533333-69.973333 32.426667-69.973333 72.533333-69.973334 72.533333 31.573333 72.533333 69.973334" fill="#FCBD83" /><path d="M842.24 452.266667c0 38.4-32.426667 69.973333-72.533333 69.973333s-72.533333-31.573333-72.533334-69.973333 32.426667-69.973333 72.533334-69.973334 72.533333 31.573333 72.533333 69.973334" fill="#FCBD83" /></svg>