<?xml version="1.0" standalone="no"?><!DOCTYPE svg PUBLIC "-//W3C//DTD SVG 1.1//EN" "http://www.w3.org/Graphics/SVG/1.1/DTD/svg11.dtd"><svg class="icon" width="200px" height="163.45px" viewBox="0 0 1253 1024" version="1.1" xmlns="http://www.w3.org/2000/svg"><path d="M963.107537 495.038833c0 219.927088-185.030908 397.654145-413.884926 397.654145s-413.884926-177.727057-413.884926-397.654145 185.030908-397.654145 413.884926-397.654144c228.042479 0 413.884926 177.727057 413.884926 397.654144" fill="#FFE04A" /><path d="M548.411072 904.866064C313.87628 904.866064 122.35306 720.646695 122.35306 495.038833s190.711682-409.827231 426.058012-409.827231c234.534792 0 426.058012 183.40783 426.058012 409.827231s-190.711682 409.827231-426.058012 409.827231z m0-796.119828C326.860906 108.746236 146.699232 282.415597 146.699232 495.038833s180.161674 385.481059 402.523379 385.481059c221.550166 0 402.523379-172.857822 402.523379-385.481059S770.772777 108.746236 548.411072 108.746236z" fill="#545971" /><path d="M325.237827 654.91203C226.230061 523.442701 184.030029 377.365668 235.96853 253.20019 131.279989 390.350293 123.976138 583.496592 231.099295 725.51593c107.123157 142.019337 294.588683 188.277065 455.273419 124.977017-133.092408 16.230781-262.12712-64.923126-361.134887-195.580917" fill="#FFD05A" /><path d="M655.534229 798.554446c12.984625 17.85386-12.984625 15.419242-30.026945 15.419242-16.230781-0.811539-31.650024-2.434617-21.911555-14.607703 10.550008-12.984625 38.953875-18.665399 51.9385-0.811539z" fill="#545971" /><path d="M640.114987 823.712157H625.507284c-14.607703-0.811539-28.403867-1.623078-33.273102-12.173086-1.623078-4.057695-2.434617-10.550008 4.057695-19.476938 7.303852-9.738469 21.100016-15.419242 34.89618-15.419242h0.811539c12.984625 0 24.346172 5.680773 31.650024 15.419242 5.680773 8.115391 6.492313 14.607703 3.246156 21.100016-4.057695 8.92693-15.419242 10.550008-26.780789 10.550008z m-25.96925-21.100016c2.434617 0 6.492313 0.811539 12.173086 0.811539h3.246156c4.869234 0 12.984625 0.811539 17.85386 0-4.057695-5.680773-10.550008-6.492313-15.419243-6.492312-7.303852 0-14.607703 2.434617-17.853859 5.680773zM297.645499 296.211761c-0.811539 0-2.434617 0-3.246156-0.811539-6.492313-1.623078-9.738469-8.92693-8.115391-14.607703 13.796164-45.446188 63.300048-71.415438 110.369314-58.430813 6.492313 1.623078 9.738469 8.115391 8.11539 14.607703-1.623078 6.492313-8.115391 9.738469-14.607703 8.11539-34.89618-9.738469-70.603899 9.738469-81.153907 42.200032-1.623078 5.680773-5.680773 8.92693-11.361547 8.92693zM762.657387 238.592487c-3.246156 0-6.492313-1.623078-8.92693-4.057695-24.346172-25.157711-64.923126-26.780789-91.703915-2.434618-4.869234 4.057695-12.173086 4.057695-17.042321-0.811539-4.057695-4.869234-4.057695-12.173086 0.811539-17.04232 36.519258-32.461563 92.515454-30.026946 124.977017 4.057695 4.869234 4.869234 4.057695 12.173086-0.811539 17.042321-1.623078 1.623078-4.057695 3.246156-7.303851 3.246156z" fill="#545971" /><path d="M506.21104 659.781265c0 36.519258-30.838485 66.546204-68.980821 66.546204s-68.980821-30.026946-68.980821-66.546204c0-36.519258 30.838485-66.546204 68.980821-66.546204s68.980821 30.026946 68.980821 66.546204" fill="#FFC37B" /><path d="M909.545959 619.204311c0 36.519258-30.838485 66.546204-68.980821 66.546204s-68.980821-30.026946-68.980821-66.546204c0-36.519258 30.838485-66.546204 68.980821-66.546204s68.980821 30.026946 68.980821 66.546204" fill="#FFC37B" /><path d="M222.983904 703.604375c-27.592328 15.419242-79.530829 8.115391-114.427009-15.419243-124.165478-70.603899-34.89618-312.442542 45.446188-264.561737 0 0 49.503883-29.215407 66.546204 19.476938 0 0 43.82311-28.403867 55.996196 19.476938 12.984625 51.938501-50.315422 36.519258-55.996196 119.296243 12.173086 27.592328 51.938501 74.661595 2.434617 121.730861" fill="#FFE04A" /><path d="M184.841568 723.892851c-27.592328 0-58.430813-8.92693-83.588524-25.157711C58.241473 673.577429 34.70684 627.319702 34.70684 568.07735c0-65.734665 30.026946-132.280869 68.980821-155.003963 16.230781-9.738469 34.084641-10.550008 50.315422-3.246156 9.738469-4.057695 29.215407-11.361547 47.880806-4.057695 9.738469 4.057695 17.85386 10.550008 24.346172 21.100015 9.738469-3.246156 22.723094-6.492313 35.707719-1.623078 12.984625 4.869234 21.911555 16.230781 26.780789 34.084641 8.115391 31.650024-8.115391 46.257727-22.723094 58.430813-14.607703 12.984625-30.026946 25.96925-33.273102 61.67697 1.623078 3.246156 4.057695 7.303852 5.680774 11.361547 15.419242 28.403867 41.388493 75.473134-7.303852 121.73086-0.811539 0.811539-1.623078 1.623078-2.434617 1.623079-12.173086 6.492313-27.592328 9.738469-43.82311 9.738468zM132.091528 429.304169c-5.680773 0-10.550008 1.623078-16.230781 4.869234-31.650024 17.85386-56.807735 77.907751-56.807735 133.903947 0 29.215407 7.303852 81.965446 55.184657 109.557774 0 0 0.811539 0 0.811539 0.811539 30.838485 20.288477 76.284673 27.592328 100.630845 15.419243 33.273102-32.461563 16.230781-64.111587 1.623078-91.703915-3.246156-5.680773-5.680773-10.550008-8.115391-16.230782-0.811539-1.623078-0.811539-4.057695-0.811539-5.680773 3.246156-48.692344 25.157711-67.357743 41.388493-81.153907 13.796164-11.361547 19.476938-16.230781 14.607703-34.084641-2.434617-9.738469-6.492313-15.419242-11.361547-17.85386-8.92693-3.246156-22.723094 3.246156-25.96925 5.680774-3.246156 2.434617-7.303852 2.434617-10.550008 1.623078-3.246156-1.623078-6.492313-4.057695-7.303852-7.303852-3.246156-9.738469-8.115391-16.230781-15.419242-18.665398-12.173086-4.057695-28.403867 2.434617-33.273102 5.680773-4.057695 2.434617-8.92693 2.434617-12.173086 0-5.680773-3.246156-10.550008-4.869234-16.230782-4.869234z" fill="#545971" /><path d="M158.060779 422.811856C132.091528 439.854177 99.629966 472.315739 108.556895 521.008084" fill="#FFE04A" /><path d="M108.556895 533.18117c-5.680773 0-10.550008-4.057695-12.173086-9.738469-7.303852-43.011571 12.173086-83.588524 55.184657-110.369314 5.680773-3.246156 12.984625-1.623078 17.042321 4.057696 3.246156 5.680773 1.623078 12.984625-4.057696 17.04232C145.076154 445.53495 112.614591 473.938818 120.729981 518.573466c0.811539 6.492313-3.246156 12.984625-9.738468 13.796165-0.811539 0.811539-1.623078 0.811539-2.434618 0.811539z" fill="#545971" /><path d="M223.795443 439.042638c17.04232-5.680773-69.79236 31.650024-55.996195 99.007766" fill="#FFE04A" /><path d="M167.799248 550.22349c-5.680773 0-10.550008-4.057695-12.173087-9.738469-5.680773-27.592328 0-68.980821 58.430814-107.934696 1.623078-2.434617 3.246156-4.057695 5.680773-4.869234 11.361547-4.057695 16.230781 3.246156 17.042321 5.680773 4.869234 9.738469-4.057695 16.230781-7.303852 17.85386-38.953875 25.96925-55.996196 54.373118-50.315422 84.400063 1.623078 6.492313-3.246156 12.984625-9.738469 14.607703h-1.623078z" fill="#545971" /><path d="M912.792115 526.688857c-27.592328 18.665399-85.211602 82.776985-30.026946 103.065462s52.75004-15.419242 102.253923-10.550008c49.503883 4.869234 34.89618-1.623078 82.776985-10.550008 74.661595-19.476938 14.607703-66.546204-11.361547-77.90775-25.96925-11.361547-116.050087-22.723094-143.642415-4.057696z" fill="#B83800" /><path d="M930.645974 295.400222C825.145895 340.84641 840.565138 413.884926 843.811294 451.215724c3.246156 36.519258 65.734665 65.734665 65.734665 65.734664s-90.892376 82.776985-32.461563 103.065462c58.430813 20.288477 72.226977-30.026946 109.557774-34.89618 36.519258-4.869234 37.330797 22.723094 88.457759 13.796165 79.530829-19.476938-12.173086-77.907751-12.173086-77.907751s77.907751-50.315422 68.980821-128.223174c-8.92693-77.907751-94.950071-142.830877-201.26169-97.384688z" fill="#DD6B73" /><path d="M922.530584 175.292439s43.82311-17.85386 115.238548-21.911555c147.700111 3.246156 155.003963 153.380884 144.453955 200.450151-11.361547 47.069266-68.169282 39.765414-108.746236 3.246156-41.388493-35.707719-106.311618-97.384689-133.903947-67.357743 4.869234 18.665399 27.592328 47.069266-18.665398 62.488509-45.446188 15.419242-65.734665-48.692344-58.430814-103.877001 4.869234-55.184657 60.053891-73.038516 60.053892-73.038517" fill="#FFE04A" /><path d="M1140.023055 398.465684c-23.534633 0-51.938501-11.361547-75.473134-32.461563l-8.92693-7.303852c-29.215407-25.157711-80.342368-71.415438-103.065462-64.111586 0 0.811539 0 0.811539 0.811539 1.623078 4.869234 11.361547 10.550008 27.592328 4.057696 43.011571-4.869234 11.361547-16.230781 19.476938-33.273102 25.157711-17.04232 5.680773-33.273102 3.246156-46.257727-7.303852-26.780789-21.911555-33.273102-70.603899-29.215407-109.557774 7.303852-60.053891 63.300048-81.153907 68.980821-83.588525 4.869234-1.623078 48.692344-18.665399 119.296244-22.723094h0.811539c52.75004 1.623078 94.138532 20.288477 122.5424 56.807735 39.765414 51.126961 41.388493 124.165478 33.273102 159.061658-4.869234 19.476938-17.04232 34.084641-34.896181 38.953876-5.680773 1.623078-12.173086 2.434617-18.665398 2.434617z m-182.596291-129.034712c34.89618 0 79.530829 39.765414 115.238548 71.415438l8.115391 7.303852c23.534633 20.288477 52.75004 30.838485 70.603899 24.346172 9.738469-3.246156 15.419242-10.550008 18.665398-21.911555 5.680773-25.157711 6.492313-91.703915-29.215406-137.961642-23.534633-30.026946-57.619274-46.257727-103.065462-47.069266-68.169282 3.246156-110.369314 20.288477-111.180853 21.100015h-0.811539c-1.623078 0.811539-47.069266 17.04232-53.561579 63.300048-4.869234 36.519258 4.057695 74.661595 20.288477 87.64622 6.492313 5.680773 13.796164 6.492313 22.723094 3.246156 10.550008-3.246156 17.04232-7.303852 19.476938-12.173086 2.434617-5.680773-0.811539-14.607703-4.057696-23.534633-1.623078-4.057695-3.246156-8.115391-4.057695-12.173086-0.811539-4.057695 0-8.115391 3.246156-11.361547 7.303852-8.115391 17.04232-12.173086 27.592329-12.173086z" fill="#545971" /><path d="M947.688295 507.211919c-47.880805 4.869234-41.388493 14.607703-41.388493 14.607704s26.780789-11.361547 88.457759-8.115391 70.603899 10.550008 70.603899 10.550008 0-4.057695-4.057695-5.680774c-32.461563-10.550008-65.734665-16.230781-113.61547-11.361547z" fill="#B83800" /><path d="M892.503638 572.135045c-5.680773 24.346172 3.246156 23.534633 3.246156 23.534633s-3.246156-17.04232 12.173086-43.82311c15.419242-26.780789 25.96925-32.461563 25.969251-32.461562s-9.738469 2.434617-12.173086 4.057695c-15.419242 11.361547-23.534633 24.346172-29.215407 48.692344zM1056.43453 548.600412c5.680773 16.230781-0.811539 18.665399-0.811539 18.665399s-0.811539-13.796164-13.796164-32.461563c-12.984625-18.665399-17.85386-21.100016-17.853859-21.100016s2.434617-0.811539 4.869234 0c12.984625 8.92693 21.911555 18.665399 27.592328 34.89618z" fill="#B83800" /><path d="M1023.161429 356.265652c15.419242 12.173086-17.04232 45.446188-17.042321 45.446188s56.807735-8.92693 54.373118 7.303852c-2.434617 16.230781-57.619274 12.984625-57.619274 12.984625v13.796164s29.215407-0.811539 29.215406 8.115391-29.215407 12.173086-29.215406 12.173086c0 0.811539 8.115391 39.765414-11.361547 39.765414s-13.796164-39.765414-13.796164-39.765414-26.780789-2.434617-26.78079-12.984625 26.780789-7.303852 26.78079-7.303852V422.000317s-62.488508 3.246156-62.488509-13.796164c0-16.230781 58.430813-6.492313 58.430813-6.492313s-60.053891-28.403867-29.215406-45.446188c31.650024-17.04232 39.765414 36.519258 43.01157 42.200032 0.811539-2.434617 0.811539-7.303852 5.680774-14.607703-0.811539 0 14.607703-39.765414 30.026946-27.592329z" fill="#FFE04A" /><path d="M944.442139 817.219845c-2.434617 0-4.869234-1.623078-5.680774-4.057696-11.361547-39.765414-18.665399-86.834681 16.230782-129.034712 2.434617-2.434617 5.680773-3.246156 8.926929-0.811539 2.434617 2.434617 3.246156 5.680773 0.811539 8.92693-31.650024 38.142336-25.157711 78.71929-13.796164 117.673165 0.811539 3.246156-0.811539 6.492313-4.057695 7.303852h-2.434617zM1003.684491 752.296719c-3.246156 0-5.680773-2.434617-5.680774-5.680774-3.246156-41.388493-0.811539-88.457759 42.200032-122.542399 2.434617-2.434617 6.492313-1.623078 8.92693 0.811539 2.434617 2.434617 1.623078 6.492313-0.811539 8.92693-38.142336 30.838485-40.576954 72.226977-37.330798 111.992391-0.811539 3.246156-4.057695 6.492313-7.303851 6.492313z" fill="#545971" /><path d="M532.180291 438.231098c0 47.069266-34.89618 86.023142-78.71929 86.023142-43.82311 0-78.71929-38.142336-78.71929-86.023142 0-47.069266 34.89618-86.023142 78.71929-86.023141 43.82311 0.811539 78.71929 38.953875 78.71929 86.023141" fill="#FFFFFF" /><path d="M453.461001 532.369631c-47.880805 0-86.834681-42.200032-86.834681-94.138533 0-51.938501 38.953875-94.138532 86.834681-94.138532 47.880805 0 86.834681 42.200032 86.83468 94.138532 0 51.938501-38.953875 94.138532-86.83468 94.138533z m0-171.234744c-38.953875 0-70.603899 34.89618-70.6039 77.907751s31.650024 77.907751 70.6039 77.90775 70.603899-34.89618 70.603899-77.90775-31.650024-77.907751-70.603899-77.907751z" fill="#545971" /><path d="M519.195665 467.446505c0 23.534633-17.04232 43.011571-38.953875 43.011571-21.100016 0-38.953875-19.476938-38.953875-43.011571s17.04232-43.011571 38.953875-43.011571c21.100016 0 38.953875 19.476938 38.953875 43.011571" fill="#545971" /><path d="M786.19202 438.231098c0 47.069266-34.89618 86.023142-78.71929 86.023142-43.82311 0-78.71929-38.142336-78.71929-86.023142 0-47.069266 34.89618-86.023142 78.71929-86.023141 43.82311 0.811539 78.71929 38.953875 78.71929 86.023141" fill="#FFFFFF" /><path d="M707.47273 532.369631c-47.880805 0-86.834681-42.200032-86.834681-94.138533 0-51.938501 38.953875-94.138532 86.834681-94.138532C755.353535 344.904105 794.30741 387.104137 794.30741 438.231098c0 51.938501-38.953875 94.138532-86.83468 94.138533z m0-171.234744c-38.953875 0-70.603899 34.89618-70.603899 77.907751s31.650024 77.907751 70.603899 77.90775S778.076629 481.242669 778.076629 438.231098c0-42.200032-31.650024-77.096212-70.603899-77.096211z" fill="#545971" /><path d="M773.207395 467.446505c0 23.534633-17.04232 43.011571-38.953876 43.011571-21.100016 0-38.953875-19.476938-38.953875-43.011571s17.04232-43.011571 38.953875-43.011571c21.911555 0 38.953875 19.476938 38.953876 43.011571" fill="#545971" /></svg>