<?xml version="1.0" standalone="no"?><!DOCTYPE svg PUBLIC "-//W3C//DTD SVG 1.1//EN" "http://www.w3.org/Graphics/SVG/1.1/DTD/svg11.dtd"><svg class="icon" width="200px" height="200.00px" viewBox="0 0 1024 1024" version="1.1" xmlns="http://www.w3.org/2000/svg"><path d="M942.933333 508.586667c0 231.253333-194.56 418.133333-435.2 418.133333s-435.2-186.88-435.2-418.133333 194.56-418.133333 435.2-418.133334c239.786667 0 435.2 187.733333 435.2 418.133334" fill="#FFE04A" /><path d="M506.88 939.52C260.266667 939.52 59.733333 746.666667 59.733333 508.586667S260.266667 77.653333 506.88 77.653333s448 192.853333 448 430.933334-200.533333 430.933333-448 430.933333z m0-836.266667c-232.96 0-423.253333 181.76-423.253333 405.333334s189.44 405.333333 423.253333 405.333333S930.133333 732.16 930.133333 508.586667 740.693333 103.253333 506.88 103.253333z" fill="#545971" /><path d="M506.026667 795.306667c-179.2 0-333.653333-57.173333-407.893334-180.053334 51.2 174.933333 214.186667 302.933333 407.893334 302.933334 193.706667 0 357.546667-128 407.893333-302.933334-73.386667 122.88-228.693333 180.053333-407.893333 180.053334" fill="#FFD05A" /><path d="M308.906667 769.706667c-3.413333 0-6.826667-0.853333-9.386667-3.413334-7.68-5.12-9.386667-15.36-4.266667-23.04 0.853333-0.853333 69.12-80.213333 203.946667-90.453333 133.973333-10.24 192 68.266667 194.56 71.68 5.12 7.68 3.413333 17.92-3.413333 23.04-7.68 5.12-17.92 3.413333-23.04-3.413333-1.706667-2.56-51.2-66.56-164.693334-58.026667-116.906667 9.386667-177.493333 75.093333-179.2 77.653333-5.12 3.413333-9.386667 5.973333-14.506666 5.973334zM229.546667 358.4h-11.946667c-6.826667 0-11.946667-5.973333-11.946667-13.653333 0-6.826667 6.826667-11.946667 13.653334-11.946667 31.573333 1.706667 55.466667-4.266667 70.826666-18.773333 17.92-16.213333 17.92-39.253333 17.92-39.253334 0-6.826667 5.973333-12.8 12.8-12.8s12.8 5.973333 12.8 12.8c0 1.706667 0 33.28-25.6 57.173334-19.626667 17.92-45.226667 26.453333-78.506666 26.453333zM785.066667 355.84c-47.786667 0-86.186667-12.8-114.346667-37.546667-49.493333-43.52-51.2-108.373333-51.2-110.933333 0-6.826667 5.12-12.8 12.8-12.8 6.826667 0 12.8 5.12 12.8 12.8 0 0.853333 1.706667 56.32 42.666667 93.013333 29.866667 26.453333 74.24 35.84 130.56 29.013334 6.826667-0.853333 12.8 4.266667 13.653333 11.093333 0.853333 6.826667-4.266667 12.8-11.093333 13.653333-12.8 0.853333-24.746667 1.706667-35.84 1.706667z" fill="#545971" /><path d="M436.906667 471.04c0 61.44-45.226667 110.933333-101.546667 110.933333-56.32 0-101.546667-49.493333-101.546667-110.933333s45.226667-110.933333 101.546667-110.933333c55.466667 0.853333 101.546667 50.346667 101.546667 110.933333" fill="#FFFFFF" /><path d="M335.36 590.506667c-60.586667 0-110.08-53.76-110.08-119.466667s49.493333-119.466667 110.08-119.466667 110.08 53.76 110.08 119.466667-49.493333 119.466667-110.08 119.466667z m0-221.013334c-51.2 0-93.013333 46.08-93.013333 102.4s41.813333 102.4 93.013333 102.4 93.013333-46.08 93.013333-102.4c0-57.173333-41.813333-102.4-93.013333-102.4z" fill="#545971" /><path d="M371.2 541.866667c0 22.186667-16.213333 40.96-36.693333 40.96s-36.693333-17.92-36.693334-40.96c0-22.186667 16.213333-40.96 36.693334-40.96s36.693333 17.92 36.693333 40.96" fill="#545971" /><path d="M781.653333 471.04c0 61.44-45.226667 110.933333-101.546666 110.933333-56.32 0-101.546667-49.493333-101.546667-110.933333s45.226667-110.933333 101.546667-110.933333c55.466667 0.853333 101.546667 50.346667 101.546666 110.933333" fill="#FFFFFF" /><path d="M680.106667 590.506667c-60.586667 0-110.08-53.76-110.08-119.466667s49.493333-119.466667 110.08-119.466667 110.08 53.76 110.08 119.466667-49.493333 119.466667-110.08 119.466667z m0-221.013334c-51.2 0-93.013333 46.08-93.013334 102.4s41.813333 102.4 93.013334 102.4 93.013333-46.08 93.013333-102.4c0-57.173333-41.813333-102.4-93.013333-102.4z" fill="#545971" /><path d="M715.946667 541.866667c0 22.186667-16.213333 40.96-36.693334 40.96s-36.693333-17.92-36.693333-40.96c0-22.186667 16.213333-40.96 36.693333-40.96s36.693333 17.92 36.693334 40.96" fill="#545971" /></svg>