<?xml version="1.0" standalone="no"?><!DOCTYPE svg PUBLIC "-//W3C//DTD SVG 1.1//EN" "http://www.w3.org/Graphics/SVG/1.1/DTD/svg11.dtd"><svg class="icon" width="200px" height="183.51px" viewBox="0 0 1116 1024" version="1.1" xmlns="http://www.w3.org/2000/svg"><path d="M572.664064 185.173333c-40.96 31.573333 206.506667 136.533333 267.946667 136.533334 61.44 0 314.026667-143.36 266.24-169.813334-94.72-52.053333-454.826667-28.16-534.186667 33.28z" fill="#3AC4D8" /><path d="M604.237397 208.213333c-34.986667 31.573333 179.2 136.533333 232.96 136.533334 53.76 0 273.066667-143.36 231.253334-169.813334-81.92-52.053333-395.093333-29.013333-464.213334 33.28z" fill="#B0F6FF" /><path d="M560.717397 185.173333C549.624064 196.266667 820.130731 446.293333 820.130731 446.293333l17.92 17.92S1116.237397 188.586667 1116.237397 159.573333c-105.813333 4.266667-327.68 29.013333-555.52 25.6z" fill="#3AC4D8" /><path d="M820.984064 804.693333c-10.24 12.8-136.533333 57.173333-133.12 73.386667 2.56 17.066667 42.666667 66.56 190.293333 59.733333 147.626667-6.826667 167.253333-69.12 170.666667-81.92 2.56-12.8-136.533333-38.4-147.626667-51.2-11.093333-12.8-32.426667-459.946667-32.426666-459.946666h-64c-0.853333 0 26.453333 447.146667 16.213333 459.946666z" fill="#3AC4D8" /><path d="M867.917397 820.053333c39.253333 6.826667 128.853333 31.573333 172.373334 46.08 2.56-12.8-121.173333-46.933333-144.213334-52.906666-17.066667-3.413333-27.306667-377.173333-27.306666-377.173334l-14.506667 5.12c-1.706667 0 23.893333 366.933333 13.653333 378.88zM617.037397 208.213333c-21.333333-0.853333 159.573333 182.613333 221.013334 182.613334 61.44 0 247.466667-210.773333 224.426666-206.506667-58.026667 11.093333-378.88 28.16-445.44 23.893333z" fill="#B0F6FF" /><path d="M667.384064 253.44c-14.506667 7.68 108.373333 136.533333 169.813333 136.533333 61.44 0 177.493333-145.066667 159.573334-145.066666-110.08 12.8-106.666667 62.293333-186.88 24.746666-66.56 7.68-27.306667-49.493333-142.506667-16.213333z" fill="#FFF9BB" /><path d="M705.784064 287.573333c-11.093333 11.946667 63.146667 89.6 130.56 103.253334 61.44 0 155.306667-133.12 120.32-118.613334-46.08 20.48-97.28 69.973333-122.88 29.013334-25.6-40.96-120.32-22.186667-128-13.653334z" fill="#F9BC00" /><path d="M64.930731 87.893333C17.144064 108.373333 229.624064 273.066667 289.357397 288.426667c59.733333 15.36 339.626667-58.88 300.373334-96.426667-77.653333-75.093333-431.786667-144.213333-524.8-104.106667z" fill="#3AC4D8" /><path d="M89.677397 117.76C47.864064 139.093333 228.770731 296.106667 280.824064 308.906667c52.053333 13.653333 300.373333-69.12 267.093333-105.813334-66.56-70.826667-375.466667-128-458.24-85.333333z" fill="#B0F6FF" /><path d="M58.104064 89.6c-13.653333 7.68 180.053333 313.173333 180.053333 313.173333l12.8 21.333334s339.626667-195.413333 346.453334-223.573334c-103.253333-22.186667-320-49.493333-539.306667-110.933333z" fill="#3AC4D8" /><path d="M147.704064 750.08C134.904064 759.466667 1.784064 770.56 0.077397 787.626667c-1.706667 17.066667 23.893333 75.093333 168.96 105.813333 144.213333 30.72 180.053333-24.746667 186.026667-36.693333 5.973333-11.946667-122.026667-71.68-129.706667-87.04-7.68-15.36 85.333333-453.12 85.333334-453.12l-61.44-16.213334c-0.853333 0.853333-88.746667 439.466667-101.546667 449.706667z" fill="#3AC4D8" /><path d="M189.517397 776.533333c36.693333 17.066667 116.906667 64 154.453334 88.746667 5.973333-11.946667-104.96-76.8-126.293334-87.893333-15.36-7.68 69.12-372.053333 69.12-372.053334l-15.36 1.706667S202.317397 767.146667 189.517397 776.533333zM102.477397 121.173333c-20.48-6.826667 108.373333 216.746667 167.253334 232.106667 58.88 15.36 293.546667-140.8 269.653333-142.506667-58.88-3.413333-373.76-69.12-436.906667-89.6z" fill="#B0F6FF" /><path d="M177.570731 222.72c-16.213333 2.56 28.16 110.08 86.186666 128.853333 58.026667 19.626667 264.533333-117.76 246.613334-123.733333-108.373333-22.186667-116.053333 47.786667-204.8 20.48-87.893333-28.16-7.68-20.48-128-25.6z" fill="#FFF9BB" /><path d="M189.517397 243.2c-13.653333 7.68 14.506667 75.093333 74.24 109.226667 58.026667 19.626667 250.88-108.373333 212.48-106.666667-50.346667 5.12-167.253333 78.506667-178.346666 32.426667-11.093333-46.08-98.986667-40.106667-108.373334-34.986667z" fill="#F9BC00" /></svg>