<?xml version="1.0" standalone="no"?><!DOCTYPE svg PUBLIC "-//W3C//DTD SVG 1.1//EN" "http://www.w3.org/Graphics/SVG/1.1/DTD/svg11.dtd"><svg class="icon" width="200px" height="183.35px" viewBox="0 0 1117 1024" version="1.1" xmlns="http://www.w3.org/2000/svg"><path d="M646.408249 202.415116s94.375604-55.591109 145.441856-21.331473 50.419843-14.86739 42.016536 49.773436c-8.403307 64.640825-58.823151 19.392247-42.662944 58.176742s-122.817567-5.817674-88.55793-3.232041c34.259637 1.939225 57.530334 38.784495 104.718136 42.016536 46.541394 3.232041-32.320412 35.552454-53.005476 76.276173-20.685064 41.370128-54.944701 54.944701-119.585527-0.646408s3.878449-94.375604 3.87845-94.375604l7.756899-106.657361z" fill="#FFFFFE" /><path d="M707.170624 448.05025c-21.97788 0-47.187802-12.928165-77.568989-38.784495-21.97788-18.745839-32.320412-38.784495-30.381188-58.176742 2.585633-24.563513 22.624289-40.72372 31.674004-46.541394l8.403307-106.657361 3.87845-1.939225c3.878449-2.585633 99.54687-58.176742 153.845163-21.331472 20.038656 13.574573 30.381188 12.281757 35.552454 12.281757 3.232041 0 7.756899-0.646408 10.98894 3.232041 3.878449 4.524858 3.232041 9.049715 1.292816 22.624289-0.646408 5.171266-1.939225 10.98894-2.585633 18.745839-5.171266 42.016536-28.441963 44.602169-41.370128 46.541394-1.292816 0-3.232041 0.646408-3.878449 0.646408 0 1.292816 0.646408 3.878449 2.585633 7.110491 5.171266 12.281757-1.292816 19.392247-3.87845 21.331472-3.878449 3.232041-9.049715 4.524858-15.513797 5.171266 8.403307 3.878449 18.099431 6.464082 29.088371 7.110491 5.817674 0.646408 18.745839 1.292816 21.331472 10.98894 3.232041 10.342532-7.110491 18.745839-25.209922 32.966821-15.513798 12.281757-34.906045 27.795555-43.309352 44.602169-11.635348 22.624289-25.85633 35.552454-43.955761 39.430903-3.878449 0-7.756899 0.646408-10.988941 0.646408z m-53.651884-241.110277l-8.403308 106.657361-3.878449 1.939225s-25.209922 14.86739-27.149146 36.84527c-1.292816 14.220981 7.110491 29.088371 25.209921 44.602169 31.027596 26.502738 55.591109 38.138087 74.336949 34.259638 12.928165-2.585633 23.917105-12.928165 32.966821-31.027596 9.696124-19.392247 30.381188-36.198862 47.187802-49.773435 5.817674-4.524858 12.928165-10.342532 16.806614-14.86739-1.292816 0-2.585633-0.646408-4.524858-0.646408-27.149146-1.939225-46.541394-14.220981-63.994416-25.209922-0.646408-0.646408-1.939225-1.292816-2.585633-1.939225-21.331472-4.524858-42.016536-11.635348-45.894986-14.86739-4.524858-3.232041-5.171266-7.756899-3.878449-10.98894 2.585633-6.464082 10.342532-6.464082 13.574573-5.817674 16.160206 1.292816 29.088371 8.403307 42.662944 16.160206 27.149146 5.171266 37.491678 1.939225 38.784495 0.646408 0 0 0-0.646408-0.646408-2.585633-3.232041-7.110491-5.817674-16.160206-1.939225-22.624288 3.878449-6.464082 10.342532-7.110491 16.806615-7.756899 11.635348-1.292816 23.270697-2.585633 27.149146-32.320413 1.292816-8.403307 1.939225-14.220981 2.585633-19.392247 0.646408-2.585633 0.646408-5.171266 1.292817-7.110491-7.756899 0-21.331472-1.292816-42.016536-14.86739-42.016536-26.502738-116.999893 11.635348-134.452916 20.685064z" fill="#545971" /><path d="M683.899927 378.884568c0 175.176635-147.381081 316.740042-329.668207 316.740042s-329.668207-141.563407-329.668207-316.740042 147.381081-316.740042 329.668207-316.740042 329.668207 141.563407 329.668207 316.740042" fill="#FFE04A" /><path d="M344.535597 705.320733C157.723613 705.320733 5.171266 559.232469 5.171266 378.884568S157.077205 52.448402 344.535597 52.448402s339.364331 146.088264 339.36433 326.436166-152.552347 326.436166-339.36433 326.436165z m0-633.480084C167.419736 71.840649 23.917105 209.525606 23.917105 378.884568s143.502631 307.043918 320.618492 307.043918 320.618491-137.684957 320.618491-307.043918S521.005049 71.840649 344.535597 71.840649z" fill="#545971" /><path d="M345.828413 605.127455c-131.220875 0-244.988726-39.430903-298.640611-123.463976 37.491678 119.585526 157.077205 207.497048 298.640611 207.497048 142.209815 0 261.795341-87.911522 298.640611-207.497048-53.651885 84.679481-167.419736 123.463976-298.640611 123.463976" fill="#FFD05A" /><path d="M212.021906 397.630407c-14.86739 0-30.381188-2.585633-47.834211-7.110491-5.171266-1.292816-7.756899-6.464082-6.464082-11.635348 1.292816-5.171266 6.464082-7.756899 11.635348-6.464083 34.906045 9.696124 63.994417 8.403307 84.679481-3.878449 25.209922-14.86739 31.027596-40.72372 31.027596-40.72372 1.292816-5.171266 6.464082-8.403307 11.635348-7.110491 5.171266 1.292816 8.403307 6.464082 7.110491 10.98894 0 1.292816-7.756899 34.259637-39.430903 53.005477-14.86739 8.403307-32.320412 12.928165-52.359068 12.928165zM534.579622 414.437021c-29.734779 0-54.298293-7.756899-72.397724-23.917105-31.674004-27.795555-32.320412-68.519274-32.320412-69.812091 0-5.171266 3.878449-9.696124 9.696123-9.696124 5.171266 0 9.696124 3.878449 9.696124 9.049716 0 0.646408 0.646408 34.259637 25.85633 56.237518 18.099431 16.160206 45.248577 21.97788 80.154623 18.09943 5.171266-0.646408 9.696124 3.232041 10.342532 8.403308 0.646408 5.171266-3.232041 9.696124-8.403307 10.342532-8.403307 0.646408-15.513798 1.292816-22.624289 1.292816z" fill="#545971" /><path d="M27.149146 255.420592c239.81746-93.082788 440.204018-65.287233 634.126493 25.209922 6.464082-4.524858-21.97788-266.320199-294.115754-272.137873-271.491465-5.817674-355.524537 246.927951-340.010739 246.927951z" fill="#FFFFFE" /><path d="M661.922047 289.680229l-4.524858-1.939225c-213.96113-100.193279-413.701279-107.950178-627.66241-24.563513l-1.292816 0.646408h-1.292817c-3.232041 0-6.464082-1.939225-8.403307-5.171266-6.464082-11.635348 9.696124-53.005476 29.73478-85.972297 32.320412-53.005476 127.342425-176.469452 319.325675-172.591002 205.557823 4.524858 272.784281 153.198755 291.53012 216.546763 0.646408 2.585633 18.099431 62.055192 6.464082 69.812091l-3.878449 3.232041zM316.093634 190.133359c111.182219 0 222.364438 25.85633 337.425106 78.215398-2.585633-25.209922-17.453023-92.43638-63.994417-150.613122C537.165255 52.448402 462.828306 18.188765 367.159885 16.24954 230.767745 13.663907 145.441856 77.658323 98.254054 131.956616 57.530334 178.49801 38.784495 225.039404 34.259637 243.785243c96.314829-35.552454 189.397617-53.651885 281.833997-53.651884z" fill="#545971" /><path d="M45.894986 213.404056c-2.585633 0-5.817674-1.292816-7.756899-3.87845-3.232041-4.524858-1.939225-10.342532 1.939224-13.574573 75.629765-56.237518 135.745732-69.165683 138.331366-69.812091 5.171266-1.292816 10.342532 1.939225 10.98894 7.110491 1.292816 5.171266-1.939225 10.342532-7.110491 10.98894-0.646408 0-59.469559 12.928165-131.220874 66.58005-1.292816 1.939225-3.232041 2.585633-5.171266 2.585633zM656.104373 237.967569c-2.585633 0-4.524858-0.646408-6.464083-2.585633-60.115967-58.823151-150.613122-70.458499-151.905938-70.458499-5.171266-0.646408-9.049715-5.171266-8.403308-10.342532 0.646408-5.171266 5.171266-9.049715 10.342532-8.403307 3.878449 0.646408 98.254054 12.928165 162.248471 76.276173 3.878449 3.878449 3.878449 9.696124 0 13.574573-1.292816 1.292816-3.878449 1.939225-5.817674 1.939225z" fill="#545971" /><path d="M410.469238 767.375925c-25.85633-21.331472-74.983357-23.270697-135.099324-1.939225C215.253947 786.121764 135.745732 815.856544 135.745732 815.856544l119.585526 124.110384 28.441963-5.817675-9.049715 23.917106 67.872866 53.651884s95.668421-121.524751 102.132503-164.187695c6.464082-42.016536-8.403307-58.823151-34.259637-80.154623z" fill="#C9A063" /><path d="M343.889188 1024L265.027382 961.2984l6.464083-16.160206-18.74584 3.878449-130.574466-136.39214 11.635349-4.524858c0.646408 0 80.154623-29.734779 139.624181-51.066252 62.055192-21.97788 113.767852-20.685064 142.856223 3.232041 26.502738 21.97788 44.602169 41.370128 37.491679 88.557931-6.464082 43.955761-100.193279 162.894879-104.071728 168.066144l-5.817675 7.110491zM284.41963 956.127134l56.883925 45.248577c29.088371-37.491678 91.143563-122.817567 95.668421-153.845163 5.817674-37.491678-5.817674-51.71266-31.674004-73.69054-23.917105-20.038656-71.751316-20.685064-127.342425-0.646409-45.894986 16.160206-103.42532 37.491678-127.342425 46.541394L258.5633 932.210029l38.784495-7.756899-12.928165 31.674004z" fill="#545971" /><path d="M199.740149 802.281971c-3.878449 1.292816-48.480619 18.099431-48.480619 18.099431L259.856116 932.210029l35.552454-7.110491-9.696124 31.027596 54.298293 45.248577s62.055192-85.325889 61.408784-88.55793c0-3.232041-194.568883-113.121444-201.679374-110.53581z" fill="#EAC088" /><path d="M380.08805 839.127241c-7.756899 7.756899-20.685064 8.403307-28.441963 0.646408-7.756899-7.756899-7.110491-20.038656 0.646409-28.441963l424.043811-426.629444c7.756899-7.756899 20.685064-8.403307 28.441963-0.646408 7.756899 7.756899 7.110491 20.038656-0.646408 28.441962l-424.043812 426.629445z" fill="#956134" /><path d="M600.513263 495.884461C553.971869 554.707611 575.303342 599.956189 618.612694 634.862234c43.955761 34.906045 119.585526 54.944701 139.624182-12.928165 20.038656-67.226458 23.917105-117.646301-9.049715-140.27059-32.966821-21.97788-102.132503-45.248577-148.673898 14.220982" fill="#FAE969" /><path d="M700.060134 674.939546c-30.381188 0-63.348008-15.513798-86.618706-33.613229-56.237518-45.248577-62.7016-95.668421-19.392247-150.613122 49.773435-63.348008 123.463976-39.430903 159.662837-14.86739 42.016536 28.441963 29.734779 91.143563 12.281757 148.673897-7.110491 24.563513-22.624289 40.72372-43.309353 47.187802-7.110491 1.939225-14.86739 3.232041-22.624288 3.232042z m-93.082788-174.530228c-37.491678 47.83421-32.320412 88.55793 16.806614 127.988834 24.563513 20.038656 64.640825 36.84527 94.375605 27.795554 16.160206-5.171266 27.149146-17.453023 32.96682-36.84527 21.97788-73.044132 20.038656-113.121444-6.464082-131.220874-81.447439-54.944701-132.513691 5.171266-137.684957 12.281756z" fill="#545971" /><path d="M347.12123 694.331793c-4.524858-24.563513 12.928165-62.055192 39.430903-83.386664 83.386664-76.922582 245.635135 49.773435 189.397617 98.900462 0 0 10.342532 44.602169-30.381188 45.248577 0 0 10.98894 40.077311-28.441963 37.491679-42.662944-2.585633-15.513798-47.187802-76.922581-71.104908-24.563513 3.232041-69.812091 21.97788-93.082788-27.149146" fill="#FFE04A" /><path d="M520.35864 802.928379h-3.878449c-26.502738-1.292816-32.966821-17.453023-38.784495-31.027596-5.817674-14.220981-12.281757-28.441963-38.784495-40.077312-3.232041 0.646408-6.464082 1.292816-10.342532 1.939225-25.209922 5.171266-67.872866 12.928165-90.497155-34.906045-0.646408-0.646408-0.646408-1.292816-0.646408-2.585633-5.171266-28.441963 13.574573-69.165683 42.662944-92.43638 29.088371-27.149146 70.458499-33.613229 115.060669-19.392247 49.773435 16.160206 93.082788 54.944701 100.839687 90.497155 3.232041 14.86739-0.646408 28.441963-9.696124 38.784494 1.292816 8.403307 1.292816 25.209922-8.403307 37.491679-5.171266 6.464082-12.281757 10.98894-21.331473 12.928165 0.646408 7.756899-0.646408 18.745839-7.11049 27.149146-7.110491 7.756899-16.160206 11.635348-29.088372 11.635349z m-80.154622-90.497155c1.292816 0 2.585633 0 3.878449 0.646408 36.198862 14.220981 45.248577 35.552454 51.71266 51.066252 5.817674 12.928165 7.756899 18.745839 21.97788 19.392247 7.756899 0.646408 13.574573-1.292816 16.160207-4.524857 5.171266-5.817674 2.585633-18.099431 1.939224-20.685064-0.646408-2.585633 0-5.817674 1.292817-8.403308 1.939225-2.585633 4.524858-3.878449 7.756899-3.878449 8.403307 0 14.220981-2.585633 17.453023-7.110491 6.464082-7.756899 4.524858-22.624289 3.878449-26.502738-0.646408-3.232041 0.646408-7.110491 3.232041-9.696124 7.110491-6.464082 9.696124-14.220981 7.756899-23.917105-5.817674-28.441963-45.248577-62.055192-87.911522-75.629765-21.97788-7.110491-63.994417-14.220981-96.314829 15.513798 0 0-0.646408 0-0.646408 0.646408-23.270697 18.099431-39.430903 51.066252-36.198862 72.397724 16.806614 33.613229 44.602169 27.795555 69.165683 23.270697 5.171266-0.646408 9.696124-1.939225 14.220981-2.585633h0.646409z" fill="#545971" /><path d="M575.94975 713.72404c-6.464082-23.917105-23.270697-56.237518-62.7016-61.408783" fill="#FFE04A" /><path d="M575.94975 723.420164c-4.524858 0-8.403307-2.585633-9.049716-7.110491-5.171266-18.099431-18.099431-49.127027-54.298293-54.298292-5.171266-0.646408-9.049715-5.817674-8.403307-10.988941 0.646408-5.171266 5.817674-9.049715 10.98894-8.403307 34.259637 4.524858 60.115967 29.734779 70.4585 68.519274 1.292816 5.171266-1.939225 10.342532-7.110491 11.635349-1.292816 0.646408-1.939225 0.646408-2.585633 0.646408z" fill="#545971" /><path d="M546.861379 759.619026c0.646408 14.220981-6.464082-60.762375-61.408784-66.580049" fill="#FFE04A" /><path d="M546.861379 771.254375c-7.110491 0-9.049715-7.756899-9.696124-10.342532-10.342532-36.198862-27.795555-55.591109-51.71266-58.823151-5.171266-0.646408-9.049715-5.171266-8.403307-10.98894s5.171266-9.049715 10.98894-8.403307c22.624289 2.585633 52.359068 16.806614 67.872866 70.458499 1.292816 1.292816 1.939225 3.232041 1.939225 5.817674 0 9.696124-6.464082 11.635348-8.403307 11.635348-1.292816 0.646408-1.939225 0.646408-2.585633 0.646409z" fill="#545971" /><path d="M352.938904 596.077739c-25.85633 0-40.077311-12.928165-40.72372-13.574573-3.878449-3.878449-3.878449-9.696124-0.646408-13.574573 3.878449-3.878449 9.696124-3.878449 13.574573-0.646409 0.646408 0 10.342532 9.049715 29.088371 8.403308 19.392247-0.646408 27.795555-8.403307 27.795555-9.049716 3.878449-3.232041 9.696124-3.232041 13.574573 0 3.878449 3.878449 3.878449 9.696124 0 13.574573-0.646408 1.939225-13.574573 14.220981-40.077311 14.86739h-2.585633z" fill="#545971" /></svg>