<?xml version="1.0" standalone="no"?><!DOCTYPE svg PUBLIC "-//W3C//DTD SVG 1.1//EN" "http://www.w3.org/Graphics/SVG/1.1/DTD/svg11.dtd"><svg class="icon" width="200px" height="180.12px" viewBox="0 0 1137 1024" version="1.1" xmlns="http://www.w3.org/2000/svg"><path d="M12.935182 426.666667c0 228.963696 192.633663 413.993399 430.891089 413.993399s430.891089-185.029703 430.891089-413.993399-192.633663-413.993399-430.891089-413.9934c-237.412541 0-430.891089 185.029703-430.891089 413.9934" fill="#FFE04A" /><path d="M443.826271 853.333333c-244.171617 0-443.564356-190.943894-443.564357-426.666666S199.654653 0 443.826271 0s443.564356 190.943894 443.564356 426.666667-198.547855 426.666667-443.564356 426.666666z m0-827.986798C213.172805 25.346535 25.608449 205.306931 25.608449 426.666667s187.564356 401.320132 419.062706 401.320132C675.32462 827.986799 862.888977 648.026403 862.888977 426.666667S675.32462 25.346535 443.826271 25.346535z" fill="#545971" /><path d="M448.050693 710.547855c176.580858 0 329.50495-56.607261 402.165017-178.270627-49.848185 173.20132-211.221122 299.933993-402.165017 299.933993S95.733861 705.478548 45.040792 532.277228c73.50495 121.663366 225.584158 178.270627 403.009901 178.270627" fill="#FFD05A" /><path d="M702.360924 153.768977c-3.379538 0-6.759076-0.844884-8.448845-3.379538-21.966997-21.966997-58.29703-21.966997-81.108911 0-5.069307 5.069307-12.673267 4.224422-17.742574-0.844885-5.069307-5.069307-4.224422-12.673267 0.844885-17.742574 32.950495-30.415842 84.488449-30.415842 115.749174 0.844885 5.069307 5.069307 5.069307 12.673267 0 17.742574-3.379538 1.689769-5.914191 3.379538-9.293729 3.379538zM314.558944 188.409241c-2.534653 0-4.224422-0.844884-6.759076-1.689769-5.914191-3.379538-7.60396-10.983498-4.224422-16.89769 26.191419-42.244224 83.643564-54.917492 126.732673-29.570957 5.914191 3.379538 7.60396 10.983498 4.224422 16.89769s-10.983498 7.60396-16.89769 4.224422c-32.105611-18.587459-74.349835-9.293729-93.782178 21.122113-1.689769 4.224422-5.069307 5.914191-9.293729 5.914191zM523.245413 504.39604c-6.759076 0-13.518152-4.224422-16.052806-10.983499-7.60396-22.811881-37.174917-49.0033-67.590759-51.537954-33.79538-2.534653-76.884488 10.138614-87.867987 32.105611-4.224422 8.448845-14.363036 11.828383-21.966996 7.60396-8.448845-4.224422-11.828383-14.363036-7.603961-21.966996 21.122112-41.39934 82.79868-53.227723 119.973598-50.69307 44.778878 3.379538 85.333333 40.554455 96.316831 73.504951 3.379538 8.448845-1.689769 17.742574-10.138614 21.122112-1.689769 0-3.379538 0.844884-5.069306 0.844885zM704.895578 455.392739h-1.689769c-9.293729-0.844884-16.052805-8.448845-15.207921-17.742574 2.534653-35.485149 42.244224-60.831683 68.435643-69.280528 32.950495-10.983498 70.125413 3.379538 87.867987 23.656766 5.914191 6.759076 5.069307 17.742574-1.689769 23.656765-6.759076 5.914191-17.742574 5.069307-23.656766-1.689769-10.138614-11.828383-34.640264-20.277228-52.382838-14.363036-20.277228 6.759076-43.933993 25.346535-45.623762 40.554455-0.844884 9.293729-7.60396 15.207921-16.052805 15.207921z" fill="#545971" /><path d="M75.456634 795.881188c2.534653-99.69637 95.471947-203.617162 224.739274-219.669967 129.267327-16.052805 239.947195 53.227723 219.669967 109.834984-20.277228 56.607261-175.735974-8.448845-175.735974-8.448845s67.590759 85.333333-16.052805 175.735973-256 42.244224-252.620462-57.452145z" fill="#FFE04A" /><path d="M213.172805 911.630363c-25.346535 0-49.848185-5.069307-70.970297-13.518152-49.848185-20.277228-78.574257-58.29703-77.729373-102.231023 2.534653-110.679868 108.145215-213.755776 234.033004-229.808581C397.357624 553.39934 482.690957 588.884488 516.486337 631.128713c15.207921 19.432343 20.277228 40.554455 13.518151 59.141914-4.224422 10.983498-11.828383 19.432343-22.811881 24.50165-35.485149 16.052805-101.386139-2.534653-139.40594-16.052805 15.207921 34.640264 28.726073 98.006601-32.105611 162.217822-33.79538 36.330033-79.419142 50.693069-122.508251 50.693069zM338.21571 584.660066c-11.828383 0-24.50165 0.844884-37.174918 2.534653C185.291617 601.557756 88.129901 695.339934 85.595248 795.881188c-0.844884 34.640264 22.811881 65.056106 64.211221 81.953795 49.0033 20.277228 123.353135 18.587459 169.821782-32.10561 76.039604-81.953795 17.742574-158.838284 15.207921-162.217822-3.379538-3.379538-3.379538-9.293729 0-12.673267 2.534653-4.224422 7.60396-5.069307 12.673267-3.379538 30.415842 12.673267 115.749175 41.39934 150.389439 26.191419 5.914191-2.534653 10.138614-6.759076 11.828383-11.828383 5.069307-15.207921-2.534653-29.570957-10.138614-38.864686-24.50165-30.415842-87.023102-58.29703-161.372937-58.29703z" fill="#545971" /><path d="M486.070495 967.392739l-72.660066-38.019802 536.50165-163.062706 55.762376 18.587459z" fill="#9E6D4C" /><path d="M1052.143102 474.825083l74.349835 22.811881-117.438944 308.382838-62.521452-36.330033z" fill="#844E36" /><path d="M981.172805 790.811881l111.524753-284.726072 33.795379-8.448845-117.438944 308.382838-573.676567 212.066007-32.105611-26.19142z" fill="#702F18" /><path d="M520.710759 934.442244c-0.844884 2.534653-3.379538 4.224422-6.759076 3.379538-3.379538-0.844884-5.914191-3.379538-5.069307-5.914191l31.260726-156.303631c0.844884-2.534653 3.379538-4.224422 6.759076-3.379538 3.379538 0.844884 5.914191 3.379538 5.069307 5.914192l-31.260726 156.30363z" fill="#D65A4D" /><path d="M572.248713 816.158416c-2.534653 13.518152-15.207921 21.966997-28.726073 20.277228l-16.89769-3.379538c-13.518152-2.534653-21.966997-15.207921-20.277227-28.726073 2.534653-13.518152 15.207921-21.966997 28.726072-20.277228l16.89769 3.379538c13.518152 2.534653 22.811881 15.207921 20.277228 28.726073z" fill="#D65A4D" /><path d="M563.799868 864.316832c-2.534653 13.518152-15.207921 21.966997-28.726073 20.277227l-16.897689-3.379538c-13.518152-2.534653-21.966997-15.207921-20.277228-28.726072 2.534653-13.518152 15.207921-21.966997 28.726072-20.277228l16.89769 3.379538c13.518152 2.534653 22.811881 15.207921 20.277228 28.726073z" fill="#D65A4D" /><path d="M539.298218 888.818482c-1.689769 0-3.379538 0-5.069307-0.844885l-16.89769-3.379538c-7.60396-1.689769-14.363036-5.914191-18.587459-11.828382-4.224422-5.914191-5.914191-14.363036-5.069307-21.966997 1.689769-7.60396 5.914191-14.363036 11.828383-18.587459 5.914191-4.224422 14.363036-5.914191 21.966997-5.069307l16.89769 3.379538c7.60396 1.689769 14.363036 5.914191 18.587458 11.828383 4.224422 5.914191 5.914191 14.363036 5.069307 21.966997-1.689769 7.60396-5.914191 14.363036-11.828382 18.587458-5.069307 4.224422-10.983498 5.914191-16.89769 5.914192z m-16.89769-52.382838c-4.224422 0-8.448845 0.844884-11.828383 3.379538-4.224422 3.379538-7.60396 7.60396-8.448845 13.518151-0.844884 5.069307 0 10.983498 3.379538 15.207921s7.60396 7.60396 13.518152 8.448845l16.89769 3.379538c5.069307 0.844884 10.983498 0 15.207921-3.379538s7.60396-7.60396 8.448845-13.518152c0.844884-5.069307 0-10.983498-3.379538-15.207921s-7.60396-7.60396-13.518152-8.448844l-16.89769-3.379538h-3.379538z" fill="#595757" /><path d="M555.351023 913.320132c-2.534653 13.518152-15.207921 21.966997-28.726073 20.277228l-16.897689-3.379538c-13.518152-2.534653-21.966997-15.207921-20.277228-28.726073 2.534653-13.518152 15.207921-21.966997 28.726073-20.277228l16.897689 3.379538c13.518152 2.534653 21.966997 15.207921 20.277228 28.726073z" fill="#D65A4D" /><path d="M530.849373 937.821782c-1.689769 0-3.379538 0-5.069307-0.844884l-16.89769-3.379538c-16.052805-2.534653-26.191419-17.742574-23.656765-33.79538 2.534653-16.052805 17.742574-26.191419 33.795379-23.656765l16.89769 3.379537c16.052805 2.534653 26.191419 17.742574 23.656766 33.79538-2.534653 14.363036-15.207921 24.50165-28.726073 24.50165z m-16.89769-52.382838c-9.293729 0-18.587459 6.759076-20.277228 16.89769-1.689769 10.983498 5.069307 21.966997 16.89769 23.656765l16.89769 3.379538c10.983498 1.689769 21.966997-5.069307 23.656766-16.897689 1.689769-10.983498-5.069307-21.966997-16.89769-23.656766l-16.89769-3.379538h-3.379538z" fill="#595757" /><path d="M584.077096 913.320132c-0.844884 2.534653-3.379538 4.224422-6.759076 3.379538-3.379538-0.844884-5.914191-3.379538-5.069307-5.914191l31.260726-156.303631c0.844884-2.534653 3.379538-4.224422 6.759076-3.379538 3.379538 0.844884 5.914191 3.379538 5.069307 5.914192L584.077096 913.320132z" fill="#D65A4D" /><path d="M635.61505 795.036304c-2.534653 13.518152-15.207921 21.966997-28.726073 20.277227l-16.89769-3.379538c-13.518152-2.534653-21.966997-15.207921-20.277228-28.726072 2.534653-13.518152 15.207921-21.966997 28.726073-20.277228l16.89769 3.379538c13.518152 2.534653 22.811881 15.207921 20.277228 28.726073z" fill="#D65A4D" /><path d="M627.166205 843.194719c-2.534653 13.518152-15.207921 21.966997-28.726073 20.277228l-16.89769-3.379538c-13.518152-2.534653-21.966997-15.207921-20.277227-28.726072 2.534653-13.518152 15.207921-21.966997 28.726072-20.277228l16.89769 3.379538c13.518152 2.534653 22.811881 15.207921 20.277228 28.726072z" fill="#D65A4D" /><path d="M602.664554 867.69637c-1.689769 0-3.379538 0-5.069306-0.844885l-16.89769-3.379538c-16.052805-2.534653-26.191419-17.742574-23.656766-33.795379 1.689769-7.60396 5.914191-14.363036 11.828383-18.587459 5.914191-4.224422 14.363036-5.914191 21.966997-5.069307l16.897689 3.379538c16.052805 2.534653 26.191419 17.742574 23.656766 33.795379-1.689769 7.60396-5.914191 14.363036-11.828383 18.587459-5.069307 4.224422-10.983498 5.914191-16.89769 5.914192z m-16.897689-52.382839c-4.224422 0-8.448845 0.844884-11.828383 3.379538-4.224422 3.379538-7.60396 7.60396-8.448845 13.518152-1.689769 10.983498 5.069307 21.966997 16.89769 23.656766l16.89769 3.379538c5.069307 0.844884 10.983498 0 15.20792-3.379538s7.60396-7.60396 8.448845-13.518152c1.689769-10.983498-5.069307-21.966997-16.89769-23.656766l-16.897689-3.379538h-3.379538z" fill="#595757" /><path d="M617.872475 891.353135c-2.534653 13.518152-15.207921 21.966997-28.726072 20.277228l-16.89769-3.379538c-13.518152-2.534653-21.966997-15.207921-20.277228-28.726073 2.534653-13.518152 15.207921-21.966997 28.726073-20.277227l16.89769 3.379538c14.363036 2.534653 22.811881 16.052805 20.277227 28.726072z" fill="#D65A4D" /><path d="M594.21571 915.854785c-1.689769 0-3.379538 0-5.069307-0.844884l-16.89769-3.379538c-16.052805-2.534653-26.191419-17.742574-23.656766-33.79538 1.689769-7.60396 5.914191-14.363036 11.828383-18.587458 5.914191-4.224422 14.363036-5.914191 21.966997-5.069307l16.89769 3.379538c16.052805 2.534653 26.191419 17.742574 23.656765 33.795379-3.379538 15.207921-15.207921 24.50165-28.726072 24.50165z m-16.89769-51.537953c-4.224422 0-8.448845 0.844884-11.828383 3.379538-4.224422 3.379538-7.60396 7.60396-8.448845 13.518151-1.689769 10.983498 5.069307 21.966997 16.89769 23.656766l16.89769 3.379538c10.983498 1.689769 21.966997-5.069307 23.656765-16.89769 1.689769-10.983498-5.069307-21.966997-16.897689-23.656765l-16.89769-3.379538h-3.379538z" fill="#595757" /><path d="M649.978086 889.663366c-0.844884 2.534653-3.379538 4.224422-6.759076 3.379538-3.379538-0.844884-5.914191-3.379538-5.069307-5.914191L668.565545 730.825083c0.844884-2.534653 3.379538-4.224422 6.759075-3.379538 3.379538 0.844884 5.914191 3.379538 5.069307 5.914191l-30.415841 156.30363z" fill="#D65A4D" /><path d="M701.51604 771.379538c-2.534653 13.518152-15.207921 21.966997-28.726073 20.277228l-16.89769-3.379538c-13.518152-2.534653-21.966997-15.207921-20.277227-28.726073 2.534653-13.518152 15.207921-21.966997 28.726072-20.277228l16.89769 3.379538c13.518152 2.534653 22.811881 15.207921 20.277228 28.726073z" fill="#D65A4D" /><path d="M693.067195 819.537954c-2.534653 13.518152-15.207921 21.966997-28.726073 20.277228l-16.89769-3.379538c-13.518152-2.534653-21.966997-15.207921-20.277227-28.726073 2.534653-13.518152 15.207921-21.966997 28.726072-20.277228l16.89769 3.379538c13.518152 2.534653 22.811881 15.207921 20.277228 28.726073z" fill="#D65A4D" /><path d="M668.565545 844.039604c-1.689769 0-3.379538 0-5.069307-0.844885l-16.89769-3.379537c-7.60396-1.689769-14.363036-5.914191-18.587459-11.828383s-5.914191-14.363036-5.069307-21.966997c2.534653-16.052805 17.742574-26.191419 33.79538-23.656766l16.897689 3.379538c16.052805 2.534653 26.191419 17.742574 23.656766 33.79538-2.534653 15.207921-15.207921 24.50165-28.726072 24.50165z m-16.89769-52.382838c-9.293729 0-18.587459 6.759076-20.277228 16.897689-0.844884 5.069307 0 10.983498 3.379538 15.207921s7.60396 7.60396 13.518152 8.448845l16.89769 3.379538c10.983498 1.689769 21.966997-5.069307 23.656765-16.89769 1.689769-10.983498-5.069307-21.966997-16.897689-23.656765l-16.89769-3.379538c-0.844884 0.844884-1.689769 0-3.379538 0z" fill="#595757" /><path d="M684.61835 868.541254c-2.534653 13.518152-15.207921 21.966997-28.726073 20.277228l-16.89769-3.379538c-13.518152-2.534653-21.966997-15.207921-20.277227-28.726073 2.534653-13.518152 15.207921-21.966997 28.726072-20.277227l16.89769 3.379538c13.518152 2.534653 21.966997 15.207921 20.277228 28.726072z" fill="#D65A4D" /><path d="M660.1167 893.042904c-1.689769 0-3.379538 0-5.069307-0.844884l-16.89769-3.379538c-7.60396-1.689769-14.363036-5.914191-18.587459-11.828383-4.224422-5.914191-5.914191-14.363036-5.069307-21.966997 2.534653-16.052805 17.742574-26.191419 33.79538-23.656765l16.89769 3.379538c7.60396 1.689769 14.363036 5.914191 18.587458 11.828382 4.224422 5.914191 5.914191 14.363036 5.069307 21.966997-3.379538 14.363036-15.207921 24.50165-28.726072 24.50165z m-16.89769-52.382838c-4.224422 0-8.448845 0.844884-11.828383 3.379538-4.224422 3.379538-7.60396 7.60396-8.448845 13.518152-0.844884 5.069307 0 10.983498 3.379538 15.207921s7.60396 7.60396 13.518152 8.448844l16.89769 3.379538c10.983498 1.689769 21.966997-5.069307 23.656765-16.897689 0.844884-5.069307 0-10.983498-3.379538-15.207921s-7.60396-7.60396-13.518151-8.448845l-16.89769-3.379538H643.21901z" fill="#595757" /><path d="M715.879076 866.851485c-0.844884 2.534653-3.379538 4.224422-6.759076 3.379538-3.379538-0.844884-5.914191-3.379538-5.069307-5.914191l29.570957-147.854786c0.844884-2.534653 3.379538-4.224422 6.759076-3.379538 3.379538 0.844884 5.914191 3.379538 5.069307 5.914192l-29.570957 147.854785z" fill="#D65A4D" /><path d="M765.727261 755.326733c-2.534653 12.673267-15.207921 21.122112-28.726073 18.587458l-16.89769-3.379538c-13.518152-2.534653-22.811881-14.363036-20.277227-27.036303 2.534653-12.673267 15.207921-21.122112 28.726072-18.587459l16.89769 3.379538c13.518152 1.689769 22.811881 14.363036 20.277228 27.036304zM757.278416 800.950495c-2.534653 12.673267-15.207921 21.122112-28.726073 18.587459l-16.89769-2.534654c-13.518152-2.534653-22.811881-14.363036-20.277227-27.036303 2.534653-12.673267 15.207921-21.122112 28.726072-18.587459l16.89769 3.379538c13.518152 1.689769 22.811881 13.518152 20.277228 26.191419z" fill="#D65A4D" /><path d="M733.62165 824.607261c-1.689769 0-3.379538 0-5.069307-0.844885l-16.89769-2.534653c-16.052805-2.534653-26.191419-16.89769-23.656765-32.105611 2.534653-15.207921 17.742574-25.346535 32.950495-21.966996l16.89769 3.379537c16.052805 2.534653 26.191419 16.89769 23.656765 32.105611-1.689769 7.60396-5.914191 13.518152-11.828383 17.742574-4.224422 2.534653-10.138614 4.224422-16.052805 4.224423z m-17.742574-49.848185c-9.293729 0-17.742574 6.759076-19.432343 15.207921-1.689769 10.138614 5.914191 20.277228 16.897689 22.811881l16.89769 2.534653c5.069307 0.844884 10.983498 0 15.207921-3.379538 4.224422-2.534653 7.60396-7.60396 8.448845-11.828382 1.689769-10.138614-5.914191-20.277228-16.89769-22.811882l-16.89769-3.379538c-1.689769 0.844884-2.534653 0.844884-4.224422 0.844885z" fill="#595757" /><path d="M749.674455 847.419142c-2.534653 12.673267-15.207921 21.122112-28.726072 18.587459l-16.89769-3.379538c-13.518152-2.534653-22.811881-14.363036-20.277228-27.036304 2.534653-12.673267 15.207921-21.122112 28.726073-18.587459l16.89769 2.534654c13.518152 2.534653 21.966997 15.207921 20.277227 27.881188z" fill="#D65A4D" /><path d="M726.01769 870.231023c-1.689769 0-3.379538 0-5.069307-0.844884l-16.89769-3.379538c-16.052805-2.534653-26.191419-16.89769-23.656766-32.105611 2.534653-15.207921 17.742574-25.346535 32.950495-21.966997l16.89769 2.534654c16.052805 2.534653 26.191419 16.89769 23.656766 32.10561-0.844884 6.759076-5.069307 13.518152-10.983498 17.742575-5.914191 4.224422-10.983498 5.914191-16.89769 5.914191z m-17.742574-49.848185c-9.293729 0-17.742574 6.759076-19.432344 15.207921-1.689769 10.138614 5.914191 20.277228 16.89769 22.811881l16.89769 3.379538c5.914191 0.844884 10.983498 0 16.052805-3.379538 4.224422-2.534653 6.759076-6.759076 7.60396-11.828383 1.689769-10.138614-5.914191-20.277228-16.897689-22.811881l-16.89769-2.534653c-1.689769 0-3.379538-0.844884-4.224422-0.844885z" fill="#595757" /><path d="M775.865875 846.574257c-0.844884 2.534653-3.379538 4.224422-6.759076 3.379538-3.379538-0.844884-5.914191-3.379538-5.069307-5.069307l28.726072-143.630363c0-2.534653 3.379538-4.224422 6.759076-3.379538 3.379538 0.844884 5.914191 3.379538 5.069307 5.069307l-28.726072 143.630363z" fill="#D65A4D" /><path d="M818.954983 776.448845c-2.534653 13.518152-15.207921 21.966997-28.726072 20.277228l-16.89769-3.379538c-13.518152-2.534653-21.966997-15.207921-20.277228-28.726073 2.534653-13.518152 15.207921-21.966997 28.726073-20.277228l16.89769 3.379538c13.518152 2.534653 22.811881 15.207921 20.277227 28.726073z" fill="#D65A4D" /><path d="M794.453333 800.950495c-1.689769 0-3.379538 0-5.069307-0.844884l-16.897689-3.379538c-16.052805-2.534653-26.191419-17.742574-23.656766-33.79538 2.534653-16.052805 17.742574-26.191419 33.795379-23.656766l16.89769 3.379538c16.052805 2.534653 26.191419 17.742574 23.656766 33.79538-2.534653 14.363036-15.207921 24.50165-28.726073 24.50165z m-16.897689-52.382838c-9.293729 0-18.587459 6.759076-20.277228 16.89769-1.689769 10.983498 5.069307 21.966997 16.89769 23.656765l16.897689 3.379538c10.983498 1.689769 21.966997-5.069307 23.656766-16.89769 1.689769-10.983498-5.069307-21.966997-16.89769-23.656765l-16.897689-3.379538h-3.379538z" fill="#595757" /><path d="M809.661254 824.607261c-2.534653 13.518152-15.207921 21.966997-28.726072 20.277227l-16.89769-3.379538c-13.518152-2.534653-21.966997-15.207921-20.277228-28.726072 2.534653-13.518152 15.207921-21.966997 28.726073-20.277228l16.897689 3.379538c14.363036 2.534653 22.811881 15.207921 20.277228 28.726073z" fill="#D65A4D" /><path d="M786.004488 849.108911c-1.689769 0-3.379538 0-5.069306-0.844885l-16.89769-3.379538c-7.60396-1.689769-14.363036-5.914191-18.587459-11.828382-4.224422-5.914191-5.914191-14.363036-5.069307-21.966997s5.914191-14.363036 11.828383-18.587459c5.914191-4.224422 14.363036-5.914191 21.966997-5.069307l16.897689 3.379538c16.052805 2.534653 26.191419 17.742574 23.656766 33.79538-3.379538 15.207921-15.207921 24.50165-28.726073 24.50165z m-16.897689-52.382838c-4.224422 0-8.448845 0.844884-11.828383 3.379538-4.224422 3.379538-7.60396 7.60396-8.448845 13.518151s0 10.983498 3.379538 15.207921 7.60396 7.60396 13.518152 8.448845l16.897689 3.379538c10.983498 1.689769 21.966997-5.069307 23.656766-16.89769 1.689769-10.983498-5.069307-21.966997-16.89769-23.656765l-16.897689-3.379538c-0.844884 0.844884-2.534653 0-3.379538 0z" fill="#595757" /><path d="M844.301518 824.607261c0 2.534653-3.379538 3.379538-6.759076 3.379538-3.379538-0.844884-5.914191-3.379538-5.069307-5.069307l27.881188-137.716172c0-2.534653 3.379538-3.379538 6.759076-3.379538 3.379538 0.844884 5.914191 3.379538 5.914192 5.069307l-28.726073 137.716172z" fill="#D65A4D" /><path d="M887.390627 754.481848c-2.534653 13.518152-15.207921 21.966997-28.726073 20.277228l-16.897689-3.379538c-13.518152-2.534653-21.966997-15.207921-20.277228-28.726073 2.534653-13.518152 15.207921-21.966997 28.726073-20.277227l16.897689 3.379538c13.518152 2.534653 22.811881 15.207921 20.277228 28.726072z" fill="#D65A4D" /><path d="M862.888977 778.983498c-1.689769 0-3.379538 0-5.069307-0.844884l-16.89769-3.379538c-16.052805-2.534653-26.191419-17.742574-23.656765-33.79538 2.534653-16.052805 17.742574-26.191419 33.795379-23.656765l16.89769 3.379538c16.052805 2.534653 26.191419 17.742574 23.656766 33.795379-2.534653 14.363036-15.207921 24.50165-28.726073 24.50165z m-16.89769-52.382838c-4.224422 0-8.448845 0.844884-11.828383 3.379538-4.224422 3.379538-7.60396 7.60396-8.448845 13.518152-1.689769 10.983498 5.069307 21.966997 16.89769 23.656766l16.89769 3.379537c10.983498 1.689769 21.966997-5.069307 23.656766-16.897689 1.689769-10.983498-5.069307-21.966997-16.89769-23.656766l-16.89769-3.379538H845.991287z" fill="#595757" /><path d="M878.941782 802.640264c-2.534653 13.518152-15.207921 21.966997-28.726072 20.277228l-16.89769-3.379538c-13.518152-2.534653-21.966997-15.207921-20.277228-28.726073 2.534653-13.518152 15.207921-21.966997 28.726073-20.277228l16.897689 3.379538c13.518152 2.534653 21.966997 15.207921 20.277228 28.726073z" fill="#D65A4D" /><path d="M854.440132 827.141914c-1.689769 0-3.379538 0-5.069307-0.844884l-16.89769-3.379538c-7.60396-1.689769-14.363036-5.914191-18.587458-11.828383-4.224422-5.914191-5.914191-14.363036-5.069307-21.966997 1.689769-7.60396 5.914191-14.363036 11.828382-18.587459 5.914191-4.224422 14.363036-5.914191 21.966997-5.069306l16.89769 3.379537c16.052805 2.534653 26.191419 17.742574 23.656766 33.79538-3.379538 14.363036-15.207921 24.50165-28.726073 24.50165z m-16.89769-52.382838c-4.224422 0-8.448845 0.844884-11.828383 3.379538-4.224422 3.379538-7.60396 7.60396-8.448844 13.518152-0.844884 5.069307 0 10.983498 3.379537 15.20792s7.60396 7.60396 13.518152 8.448845l16.89769 3.379538c10.983498 1.689769 21.966997-5.069307 23.656766-16.897689 0.844884-5.069307 0-10.983498-3.379538-15.207921s-7.60396-7.60396-13.518152-8.448845l-16.89769-3.379538H837.542442z" fill="#595757" /><path d="M904.288317 801.79538c0 2.534653-3.379538 3.379538-6.759076 2.534653-3.379538-0.844884-5.914191-2.534653-5.914191-5.069307l26.191419-131.80198c0-2.534653 3.379538-3.379538 6.759076-2.534654 3.379538 0.844884 5.914191 2.534653 5.914191 5.069307l-26.191419 131.801981z" fill="#D65A4D" /><path d="M946.532541 730.825083c-2.534653 13.518152-15.207921 21.966997-28.726072 20.277227l-16.89769-3.379538c-13.518152-2.534653-21.966997-15.207921-20.277228-28.726072 2.534653-13.518152 15.207921-21.966997 28.726073-20.277228l16.89769 3.379538c14.363036 2.534653 22.811881 15.207921 20.277227 28.726073z" fill="#D65A4D" /><path d="M922.875776 755.326733c-1.689769 0-3.379538 0-5.069307-0.844885l-16.89769-3.379538c-16.052805-2.534653-26.191419-17.742574-23.656766-33.795379 1.689769-7.60396 5.914191-14.363036 11.828383-18.587459 5.914191-4.224422 14.363036-5.914191 21.966997-5.069307l16.89769 3.379538c7.60396 1.689769 14.363036 5.914191 18.587458 11.828383 4.224422 5.914191 5.914191 14.363036 5.069307 21.966997-1.689769 7.60396-5.914191 14.363036-11.828383 18.587458-5.914191 4.224422-10.983498 5.914191-16.897689 5.914192z m-16.89769-52.382839c-4.224422 0-8.448845 0.844884-11.828383 3.379538-4.224422 3.379538-7.60396 7.60396-8.448845 13.518152-1.689769 10.983498 5.069307 21.966997 16.89769 23.656766l16.89769 3.379538c5.069307 0.844884 10.983498 0 15.20792-3.379538s7.60396-7.60396 8.448845-13.518152c0.844884-5.069307 0-10.983498-3.379538-15.207921s-7.60396-7.60396-13.518151-8.448845l-16.89769-3.379538h-3.379538z" fill="#595757" /><path d="M938.083696 778.983498c-2.534653 13.518152-15.207921 21.966997-28.726072 20.277228l-16.89769-3.379538c-13.518152-2.534653-21.966997-15.207921-20.277228-28.726072 2.534653-13.518152 15.207921-21.966997 28.726073-20.277228l16.89769 3.379538c13.518152 2.534653 22.811881 16.052805 20.277227 28.726072z" fill="#D65A4D" /><path d="M914.426931 804.330033c-1.689769 0-3.379538 0-5.069307-0.844884l-16.89769-3.379538c-16.052805-2.534653-26.191419-17.742574-23.656766-33.79538 1.689769-7.60396 5.914191-14.363036 11.828383-18.587459 5.914191-4.224422 14.363036-5.914191 21.966997-5.069307l16.89769 3.379538c16.052805 2.534653 26.191419 17.742574 23.656765 33.79538-1.689769 7.60396-5.914191 14.363036-11.828383 18.587459-5.914191 3.379538-11.828383 5.914191-16.897689 5.914191z m-16.89769-52.382838c-4.224422 0-8.448845 0.844884-11.828383 3.379538-4.224422 3.379538-7.60396 7.60396-8.448845 13.518151-1.689769 10.983498 5.069307 21.966997 16.89769 23.656766l16.89769 3.379538c5.069307 0.844884 10.983498 0 15.207921-3.379538s7.60396-7.60396 8.448844-13.518152c1.689769-10.983498-5.069307-21.966997-16.897689-23.656765l-16.89769-3.379538h-3.379538z" fill="#595757" /><path d="M960.895578 786.587459c0 2.534653-3.379538 3.379538-6.759076 2.534653-3.379538-0.844884-5.914191-2.534653-5.914192-5.069307l26.191419-127.577557c0-2.534653 3.379538-3.379538 6.759076-2.534654 3.379538 0.844884 5.914191 2.534653 5.914192 5.069307l-26.191419 127.577558z" fill="#D65A4D" /><path d="M1003.984686 715.617162c-2.534653 13.518152-15.207921 21.966997-28.726072 20.277227l-16.89769-3.379538c-13.518152-2.534653-21.966997-15.207921-20.277228-28.726072 2.534653-13.518152 15.207921-21.966997 28.726073-20.277228l16.89769 3.379538c13.518152 2.534653 22.811881 15.207921 20.277227 28.726073z" fill="#D65A4D" /><path d="M979.483036 740.118812c-1.689769 0-3.379538 0-5.069307-0.844885l-16.897689-3.379538c-7.60396-1.689769-14.363036-5.914191-18.587459-11.828382-4.224422-5.914191-5.914191-14.363036-5.069307-21.966997 2.534653-16.052805 17.742574-26.191419 33.795379-23.656766l16.89769 3.379538c16.052805 2.534653 26.191419 17.742574 23.656766 33.79538-1.689769 7.60396-5.914191 14.363036-11.828383 18.587458-5.069307 4.224422-10.983498 5.914191-16.89769 5.914192z m-16.897689-52.382838c-9.293729 0-18.587459 6.759076-20.277228 16.897689-0.844884 5.069307 0 10.983498 3.379538 15.207921s7.60396 7.60396 13.518152 8.448845l16.897689 3.379538c5.069307 0.844884 10.983498 0 15.207921-3.379538s7.60396-7.60396 8.448845-13.518152c1.689769-10.983498-5.069307-21.966997-16.89769-23.656765l-16.89769-3.379538c-0.844884 0.844884-1.689769 0-3.379537 0z" fill="#595757" /><path d="M995.535842 764.620462c-2.534653 13.518152-15.207921 21.966997-28.726073 20.277228l-16.89769-3.379538c-13.518152-2.534653-21.966997-15.207921-20.277228-28.726073 2.534653-13.518152 15.207921-21.966997 28.726073-20.277228l16.89769 3.379538c13.518152 2.534653 21.966997 15.207921 20.277228 28.726073z" fill="#D65A4D" /><path d="M971.034191 789.122112c-1.689769 0-3.379538 0-5.069307-0.844884l-16.897689-3.379538c-7.60396-1.689769-14.363036-5.914191-18.587459-11.828383-4.224422-5.914191-5.914191-14.363036-5.069307-21.966997 2.534653-16.052805 17.742574-26.191419 33.79538-23.656765l16.897689 3.379538c16.052805 2.534653 26.191419 17.742574 23.656766 33.795379-2.534653 14.363036-15.207921 24.50165-28.726073 24.50165z m-16.897689-52.382838c-9.293729 0-18.587459 6.759076-20.277228 16.89769-0.844884 5.069307 0 10.983498 3.379538 15.20792s7.60396 7.60396 13.518152 8.448845l16.897689 3.379538c10.983498 1.689769 21.966997-5.069307 23.656766-16.897689 1.689769-10.983498-5.069307-21.966997-16.89769-23.656766l-16.897689-3.379538h-3.379538z" fill="#595757" /><path d="M1075.799868 630.283828l-9.293729 24.501651-579.590759 190.099009 13.518151-41.399339z" fill="#844E36" /><path d="M1059.747063 613.386139l-10.138614 24.50165-580.435644 189.254125 13.518152-41.39934z" fill="#702F18" /><path d="M583.232211 773.069307c-0.844884 2.534653-3.379538 4.224422-6.759076 3.379538-3.379538-0.844884-5.914191-3.379538-5.069307-5.914192l36.330033-172.356435c0.844884-2.534653 3.379538-4.224422 6.759076-3.379538 3.379538 0.844884 5.914191 3.379538 5.069307 5.914191l-36.330033 172.356436z" fill="#D65A4D" /><path d="M638.149703 638.732673c-2.534653 13.518152-15.207921 21.966997-28.726073 19.432344l-16.897689-3.379538c-13.518152-2.534653-21.966997-16.052805-19.432344-28.726073 2.534653-13.518152 16.052805-21.966997 28.726073-19.432343l16.89769 3.379538c14.363036 2.534653 22.811881 15.207921 19.432343 28.726072zM628.855974 686.891089c-2.534653 13.518152-16.052805 21.966997-29.570957 19.432343l-16.89769-3.379538c-13.518152-2.534653-21.966997-16.052805-19.432344-28.726072 2.534653-13.518152 16.052805-21.966997 28.726073-19.432343l16.89769 3.379538c14.363036 2.534653 22.811881 15.207921 20.277228 28.726072z" fill="#D65A4D" /><path d="M604.354323 710.547855c-1.689769 0-4.224422 0-5.914191-0.844885l-16.89769-3.379538c-7.60396-1.689769-14.363036-5.914191-18.587459-12.673267-4.224422-6.759076-5.914191-14.363036-4.224422-21.966997 3.379538-15.207921 18.587459-25.346535 33.79538-21.966996l16.897689 3.379538c15.207921 3.379538 25.346535 18.587459 21.966997 33.795379-1.689769 7.60396-5.914191 14.363036-12.673267 18.587459-3.379538 4.224422-8.448845 5.069307-14.363037 5.069307z m-16.897689-52.382838c-9.293729 0-17.742574 6.759076-20.277228 16.052805-0.844884 5.069307 0 10.983498 2.534653 15.207921 3.379538 4.224422 7.60396 7.60396 12.673268 8.448844l16.89769 3.379538c5.069307 0.844884 10.983498 0 15.20792-2.534653s7.60396-7.60396 8.448845-12.673267c2.534653-10.983498-5.069307-21.966997-16.052805-24.501651l-16.89769-3.379537h-2.534653z" fill="#595757" /><path d="M618.71736 735.049505c-2.534653 13.518152-16.052805 21.966997-29.570957 19.432343l-16.89769-3.379538c-13.518152-2.534653-21.966997-16.052805-19.432343-28.726072 2.534653-13.518152 16.052805-21.966997 28.726072-19.432344l16.89769 3.379538c14.363036 2.534653 22.811881 16.052805 20.277228 28.726073z" fill="#D65A4D" /><path d="M594.21571 759.551155c-1.689769 0-4.224422 0-5.914192-0.844884l-16.89769-3.379538c-15.207921-3.379538-25.346535-18.587459-21.966996-33.79538 3.379538-15.207921 18.587459-25.346535 33.795379-21.966997l16.89769 3.379538c15.207921 3.379538 25.346535 18.587459 21.966997 33.79538-1.689769 7.60396-5.914191 14.363036-12.673268 18.587459-4.224422 2.534653-9.293729 4.224422-15.20792 4.224422z m-16.052806-53.227723c-9.293729 0-17.742574 6.759076-20.277227 16.052806-2.534653 10.983498 5.069307 21.966997 16.052805 24.50165l16.89769 3.379538c5.069307 0.844884 10.983498 0 15.20792-2.534654 4.224422-3.379538 7.60396-7.60396 8.448845-12.673267 2.534653-10.983498-5.069307-21.966997-16.052805-24.50165l-16.89769-3.379538c-0.844884-0.844884-2.534653-0.844884-3.379538-0.844885z" fill="#595757" /><path d="M647.443432 753.636964c-0.844884 2.534653-3.379538 4.224422-6.759076 3.379538-3.379538-0.844884-5.914191-3.379538-5.069306-5.914192l36.330033-172.356435c0.844884-2.534653 3.379538-4.224422 6.759075-3.379538 3.379538 0.844884 5.914191 3.379538 5.069307 5.914191L647.443432 753.636964z" fill="#D65A4D" /><path d="M702.360924 619.30033c-2.534653 13.518152-16.052805 21.966997-28.726073 19.432343l-16.897689-3.379538c-13.518152-2.534653-21.966997-16.052805-19.432344-28.726072 2.534653-13.518152 16.052805-21.966997 28.726073-19.432344l16.89769 3.379538c13.518152 2.534653 21.966997 15.207921 19.432343 28.726073zM692.22231 667.458746c-2.534653 13.518152-16.052805 21.966997-29.570957 19.432343l-16.89769-3.379538c-13.518152-2.534653-21.966997-16.052805-19.432343-28.726072 2.534653-13.518152 16.052805-21.966997 28.726073-19.432344l16.89769 3.379538c14.363036 2.534653 22.811881 15.207921 20.277227 28.726073z" fill="#D65A4D" /><path d="M668.565545 691.115512c-1.689769 0-4.224422 0-5.914192-0.844885l-16.89769-3.379538c-7.60396-1.689769-14.363036-5.914191-18.587458-12.673267-4.224422-6.759076-5.914191-14.363036-4.224423-21.966997 3.379538-15.207921 18.587459-25.346535 33.79538-21.966997l16.897689 3.379538c15.207921 3.379538 25.346535 18.587459 21.966997 33.79538-1.689769 7.60396-5.914191 14.363036-12.673267 18.587459-3.379538 3.379538-9.293729 5.069307-14.363036 5.069307z m-16.89769-52.382839c-9.293729 0-17.742574 6.759076-20.277228 16.052806-0.844884 5.069307 0 10.983498 2.534654 15.20792s7.60396 7.60396 12.673267 8.448845l16.89769 3.379538c5.069307 0.844884 10.983498 0 15.20792-2.534653 4.224422-3.379538 7.60396-7.60396 8.448845-12.673268 2.534653-10.983498-5.069307-21.966997-16.052805-24.50165l-16.89769-3.379538H651.667855z" fill="#595757" /><path d="M682.083696 715.617162c-2.534653 13.518152-16.052805 21.966997-29.570957 19.432343l-16.897689-3.379538c-13.518152-2.534653-21.966997-16.052805-19.432344-28.726073 2.534653-13.518152 16.052805-21.966997 28.726073-19.432343l16.89769 3.379538c14.363036 2.534653 22.811881 16.052805 20.277227 28.726073z" fill="#D65A4D" /><path d="M658.426931 740.118812c-1.689769 0-4.224422 0-5.914192-0.844885l-16.897689-3.379538c-7.60396-1.689769-14.363036-5.914191-18.587459-12.673267-4.224422-6.759076-5.914191-14.363036-4.224423-21.966997 3.379538-15.207921 18.587459-25.346535 33.79538-21.966996l16.89769 3.379538c15.207921 3.379538 25.346535 18.587459 21.966996 33.795379-1.689769 7.60396-5.914191 14.363036-12.673267 18.587459-3.379538 3.379538-9.293729 5.069307-14.363036 5.069307z m-16.89769-53.227723c-9.293729 0-17.742574 6.759076-20.277228 16.052805-0.844884 5.069307 0 10.983498 2.534654 15.207921 3.379538 4.224422 7.60396 7.60396 12.673267 8.448845l16.89769 3.379538c5.069307 0.844884 10.983498 0 15.207921-2.534653 4.224422-3.379538 7.60396-7.60396 8.448844-12.673268 2.534653-10.983498-5.069307-21.966997-16.052805-24.50165l-16.89769-3.379538h-2.534653z" fill="#595757" /><path d="M713.344422 731.669967c-0.844884 2.534653-3.379538 4.224422-6.759075 3.379538-3.379538-0.844884-5.914191-3.379538-5.069307-5.914191l36.330033-172.356436c0.844884-2.534653 3.379538-4.224422 6.759076-3.379538 3.379538 0.844884 5.914191 3.379538 5.069306 5.914191l-36.330033 172.356436z" fill="#D65A4D" /><path d="M769.106799 598.178218c-2.534653 13.518152-16.052805 21.966997-28.726073 19.432343l-16.89769-3.379538c-13.518152-2.534653-21.966997-16.052805-19.432343-28.726073 2.534653-13.518152 16.052805-21.966997 28.726073-19.432343l16.897689 3.379538c13.518152 1.689769 21.966997 15.207921 19.432344 28.726073z" fill="#D65A4D" /><path d="M758.968185 646.336634c-2.534653 13.518152-16.052805 21.966997-29.570957 19.432343l-16.89769-3.379538c-13.518152-2.534653-21.966997-16.052805-19.432343-28.726073 2.534653-13.518152 16.052805-21.966997 28.726072-19.432343l16.89769 3.379538c14.363036 1.689769 22.811881 15.207921 20.277228 28.726073z" fill="#D65A4D" /><path d="M734.466535 669.993399c-1.689769 0-4.224422 0-5.914192-0.844884l-16.89769-3.379538c-7.60396-1.689769-14.363036-5.914191-18.587458-12.673267-4.224422-6.759076-5.914191-14.363036-4.224423-21.966997 1.689769-7.60396 5.914191-14.363036 12.673268-18.587459 6.759076-4.224422 14.363036-5.914191 21.966996-4.224422l16.89769 3.379538c15.207921 3.379538 25.346535 18.587459 21.966997 33.795379-1.689769 7.60396-5.914191 14.363036-12.673268 18.587459-4.224422 4.224422-9.293729 5.914191-15.20792 5.914191z m-16.052806-53.227722c-4.224422 0-7.60396 0.844884-10.983498 3.379538-4.224422 3.379538-7.60396 7.60396-8.448845 12.673267-0.844884 5.069307 0 10.983498 2.534654 15.207921 3.379538 4.224422 7.60396 7.60396 12.673267 8.448845l16.89769 3.379537c5.069307 0.844884 10.983498 0 15.20792-2.534653 4.224422-3.379538 7.60396-7.60396 8.448845-12.673267 0.844884-5.069307 0-10.983498-2.534653-15.207921-3.379538-4.224422-7.60396-7.60396-12.673267-8.448845l-16.89769-3.379538c-1.689769 0-3.379538-0.844884-4.224423-0.844884z" fill="#595757" /><path d="M748.829571 694.49505c-2.534653 13.518152-16.052805 21.966997-29.570957 19.432343l-16.89769-3.379538c-13.518152-2.534653-21.966997-16.052805-19.432343-28.726073 2.534653-13.518152 16.052805-21.966997 28.726072-19.432343l16.89769 3.379538c14.363036 2.534653 22.811881 15.207921 20.277228 28.726073z" fill="#D65A4D" /><path d="M724.327921 718.151815c-1.689769 0-4.224422 0-5.914192-0.844884l-16.897689-3.379538c-15.207921-3.379538-25.346535-18.587459-21.966997-33.79538 1.689769-7.60396 5.914191-14.363036 12.673267-18.587459 6.759076-4.224422 14.363036-5.914191 21.966997-4.224422l16.89769 3.379538c7.60396 1.689769 14.363036 5.914191 18.587458 12.673267 4.224422 6.759076 5.914191 14.363036 4.224423 21.966997-3.379538 13.518152-16.052805 22.811881-29.570957 22.811881z m-16.052805-52.382838c-4.224422 0-7.60396 0.844884-10.983499 3.379538-4.224422 3.379538-7.60396 7.60396-8.448845 12.673267-2.534653 10.983498 5.069307 21.966997 16.052806 24.50165l16.897689 3.379538c10.983498 2.534653 21.966997-5.069307 24.50165-16.052805 0.844884-5.069307 0-10.983498-2.534653-15.207921-3.379538-4.224422-7.60396-7.60396-12.673267-8.448845l-16.89769-3.379538c-3.379538-0.844884-5.069307-0.844884-5.914191-0.844884z" fill="#595757" /><path d="M780.090297 710.547855c-0.844884 2.534653-3.379538 4.224422-6.759076 3.379538-3.379538-0.844884-5.914191-3.379538-5.069307-5.914192l33.79538-163.90759c0.844884-2.534653 3.379538-4.224422 6.759076-3.379538 3.379538 0.844884 5.914191 3.379538 5.069307 5.914191l-33.79538 163.907591z" fill="#D65A4D" /><path d="M833.31802 583.815182c-2.534653 12.673267-15.207921 20.277228-28.726073 17.742574l-16.89769-3.379538c-13.518152-2.534653-21.966997-15.207921-19.432343-27.881188 2.534653-12.673267 15.207921-20.277228 28.726073-17.742575l16.89769 3.379538c13.518152 2.534653 21.966997 15.207921 19.432343 27.881189z" fill="#D65A4D" /><path d="M824.02429 629.438944c-2.534653 12.673267-15.207921 20.277228-28.726072 17.742574l-16.89769-3.379538c-13.518152-2.534653-21.966997-15.207921-19.432343-27.881188 2.534653-12.673267 15.207921-20.277228 28.726072-17.742574l16.89769 3.379538c13.518152 2.534653 21.966997 15.207921 19.432343 27.881188z" fill="#D65A4D" /><path d="M800.367525 652.250825c-1.689769 0-4.224422 0-5.914192-0.844884l-16.897689-3.379538c-15.207921-3.379538-25.346535-17.742574-22.811882-32.950495 1.689769-7.60396 5.914191-13.518152 12.673268-17.742575s14.363036-5.069307 21.122112-3.379538l16.89769 3.379538c15.207921 3.379538 25.346535 17.742574 22.811881 32.950495-1.689769 7.60396-5.914191 13.518152-12.673267 17.742575-4.224422 2.534653-9.293729 4.224422-15.207921 4.224422z m-17.742575-50.693069c-4.224422 0-7.60396 0.844884-10.983498 3.379538-4.224422 2.534653-7.60396 6.759076-8.448845 11.828383-2.534653 10.138614 5.069307 20.277228 16.052806 22.811881l16.897689 3.379538c5.069307 0.844884 10.983498 0 15.207921-2.534654s7.60396-6.759076 8.448845-11.828383c2.534653-10.138614-5.069307-20.277228-16.052805-22.811881l-16.89769-3.379538c-0.844884-0.844884-2.534653-0.844884-4.224423-0.844884z" fill="#595757" /><path d="M814.730561 675.062706c-2.534653 12.673267-15.207921 20.277228-28.726073 17.742575l-16.897689-3.379538c-13.518152-2.534653-21.966997-15.207921-19.432344-27.881189 2.534653-12.673267 15.207921-20.277228 28.726073-17.742574l16.89769 3.379538c13.518152 2.534653 21.966997 15.207921 19.432343 27.881188z" fill="#D65A4D" /><path d="M791.073795 697.874587c-1.689769 0-4.224422 0-5.914191-0.844884l-16.89769-3.379538c-7.60396-1.689769-14.363036-5.914191-18.587459-11.828383-4.224422-5.914191-5.914191-13.518152-4.224422-21.122112 1.689769-7.60396 5.914191-13.518152 12.673267-17.742574s14.363036-5.069307 21.122113-3.379538l16.897689 3.379538c7.60396 1.689769 14.363036 5.914191 18.587459 11.828383 4.224422 5.914191 5.914191 13.518152 4.224422 21.122112-2.534653 12.673267-14.363036 21.966997-27.881188 21.966996z m-17.742574-50.693069c-4.224422 0-7.60396 0.844884-10.983498 3.379538-4.224422 2.534653-7.60396 6.759076-8.448845 11.828383-0.844884 5.069307 0 10.138614 3.379538 14.363036s7.60396 7.60396 12.673267 8.448845l16.89769 3.379538c10.983498 2.534653 21.966997-4.224422 23.656766-14.363036 0.844884-5.069307 0-10.138614-3.379538-14.363037s-7.60396-7.60396-12.673268-8.448844l-16.897689-3.379538c-0.844884 0-2.534653-0.844884-4.224423-0.844885z" fill="#595757" /><path d="M840.92198 691.960396c-0.844884 2.534653-3.379538 3.379538-6.759076 3.379538-3.379538-0.844884-5.914191-3.379538-5.069307-5.914191l32.950495-159.683169c0.844884-2.534653 3.379538-3.379538 6.759076-3.379538 3.379538 0.844884 5.914191 3.379538 5.069307 5.914192l-32.950495 159.683168z" fill="#D65A4D" /><path d="M885.700858 605.782178c-2.534653 13.518152-16.052805 21.966997-29.570957 19.432343l-16.89769-3.379538c-13.518152-2.534653-21.966997-16.052805-19.432343-28.726072 2.534653-13.518152 16.052805-21.966997 28.726073-19.432343l16.897689 3.379538c14.363036 2.534653 23.656766 16.052805 20.277228 28.726072z" fill="#D65A4D" /><path d="M862.044092 630.283828c-1.689769 0-4.224422 0-5.914191-0.844884l-16.89769-3.379538c-15.207921-3.379538-25.346535-18.587459-21.966996-33.79538 1.689769-7.60396 5.914191-14.363036 12.673267-18.587458 6.759076-4.224422 14.363036-5.914191 21.966997-4.224423l16.897689 3.379538c7.60396 1.689769 14.363036 5.914191 18.587459 12.673267 4.224422 6.759076 5.914191 14.363036 4.224423 21.966997-1.689769 7.60396-5.914191 14.363036-12.673268 18.587459-5.914191 2.534653-11.828383 4.224422-16.89769 4.224422z m-16.897689-53.227722c-4.224422 0-7.60396 0.844884-10.983499 3.379538-4.224422 3.379538-7.60396 7.60396-8.448845 12.673267-2.534653 10.983498 5.069307 21.966997 16.052806 24.50165l16.897689 3.379538c5.069307 0.844884 10.983498 0 15.207921-2.534653 4.224422-3.379538 7.60396-7.60396 8.448845-12.673268 0.844884-5.069307 0-10.983498-2.534653-15.207921-3.379538-4.224422-7.60396-7.60396-12.673268-8.448844l-16.897689-3.379538c-2.534653-1.689769-3.379538-1.689769-5.069307-1.689769z" fill="#595757" /><path d="M875.562244 654.785479c-2.534653 13.518152-16.052805 21.966997-29.570957 19.432343l-16.89769-3.379538c-13.518152-2.534653-21.966997-16.052805-19.432343-28.726073 2.534653-13.518152 16.052805-21.966997 28.726073-19.432343l16.89769 3.379538c15.207921 1.689769 23.656766 15.207921 20.277227 28.726073z" fill="#D65A4D" /><path d="M851.905479 678.442244c-1.689769 0-4.224422 0-5.914192-0.844884l-16.89769-3.379538c-15.207921-3.379538-25.346535-18.587459-21.966996-33.79538 1.689769-7.60396 5.914191-14.363036 12.673267-18.587459 6.759076-4.224422 14.363036-5.914191 21.966997-4.224422l16.897689 3.379538c15.207921 3.379538 25.346535 18.587459 22.811882 33.79538-4.224422 14.363036-16.052805 23.656766-29.570957 23.656765z m-16.89769-53.227723c-4.224422 0-7.60396 0.844884-10.983499 3.379538-4.224422 3.379538-7.60396 7.60396-8.448844 12.673268-2.534653 10.983498 5.069307 21.966997 16.052805 24.50165l16.89769 3.379538c10.983498 2.534653 21.966997-5.069307 24.50165-16.052805 2.534653-10.983498-5.069307-21.966997-16.052806-24.501651l-16.897689-3.379538c-2.534653 0.844884-3.379538 0-5.069307 0z" fill="#595757" /><path d="M909.357624 672.528053c-0.844884 2.534653-3.379538 3.379538-6.759076 2.534653-3.379538-0.844884-5.914191-3.379538-5.069307-5.069307l32.10561-153.768977c0.844884-2.534653 3.379538-3.379538 6.759076-2.534653 3.379538 0.844884 5.914191 3.379538 5.069307 5.069307l-32.10561 153.768977z" fill="#D65A4D" /><path d="M954.981386 586.349835c-2.534653 13.518152-16.052805 21.966997-29.570957 19.432343l-16.89769-3.379538c-13.518152-2.534653-21.966997-16.052805-19.432343-28.726072 2.534653-13.518152 16.052805-21.966997 28.726073-19.432344l16.897689 3.379538c14.363036 1.689769 22.811881 15.207921 20.277228 28.726073z" fill="#D65A4D" /><path d="M931.32462 610.006601c-1.689769 0-4.224422 0-5.914191-0.844885l-16.89769-3.379538c-7.60396-1.689769-14.363036-5.914191-18.587458-12.673267-4.224422-6.759076-5.914191-14.363036-4.224423-21.966997 1.689769-7.60396 5.914191-14.363036 12.673267-18.587459 6.759076-4.224422 14.363036-5.914191 21.966997-4.224422l16.89769 3.379538c15.207921 3.379538 25.346535 18.587459 21.966997 33.795379-1.689769 7.60396-5.914191 14.363036-12.673268 18.587459-4.224422 4.224422-10.138614 5.914191-15.207921 5.914192z m-16.897689-53.227723c-4.224422 0-7.60396 0.844884-10.983499 3.379538-4.224422 3.379538-7.60396 7.60396-8.448845 12.673267-0.844884 5.069307 0 10.983498 2.534654 15.207921 3.379538 4.224422 7.60396 7.60396 12.673267 8.448845l16.89769 3.379538c5.069307 0.844884 10.983498 0 15.207921-2.534654 4.224422-3.379538 7.60396-7.60396 8.448845-12.673267 2.534653-10.983498-5.069307-21.966997-16.052806-24.50165l-16.897689-3.379538c-0.844884 0.844884-2.534653 0-3.379538 0z" fill="#595757" /><path d="M944.842772 634.508251c-2.534653 13.518152-16.052805 21.966997-29.570957 19.432343l-16.89769-3.379538c-13.518152-2.534653-21.966997-16.052805-19.432343-28.726073 2.534653-13.518152 16.052805-21.966997 28.726073-19.432343l16.89769 3.379538c14.363036 1.689769 22.811881 15.207921 20.277227 28.726073z" fill="#D65A4D" /><path d="M921.186007 658.165017c-1.689769 0-4.224422 0-5.914192-0.844885l-16.89769-3.379538c-15.207921-3.379538-25.346535-18.587459-21.966996-33.795379 1.689769-7.60396 5.914191-14.363036 12.673267-18.587459 6.759076-4.224422 14.363036-5.914191 21.966997-4.224423l16.89769 3.379538c7.60396 1.689769 14.363036 5.914191 18.587458 12.673268 4.224422 6.759076 5.914191 14.363036 4.224423 21.966996-4.224422 13.518152-16.89769 22.811881-29.570957 22.811882z m-16.89769-53.227723c-4.224422 0-7.60396 0.844884-10.983499 3.379538-4.224422 3.379538-7.60396 7.60396-8.448844 12.673267-2.534653 10.983498 5.069307 21.966997 16.052805 24.50165l16.89769 3.379538c10.983498 2.534653 21.966997-5.069307 24.50165-16.052805 0.844884-5.069307 0-10.983498-2.534654-15.207921-3.379538-4.224422-7.60396-7.60396-12.673267-8.448845l-16.89769-3.379538c-3.379538 0-4.224422-0.844884-5.914191-0.844884z" fill="#595757" /><path d="M970.189307 650.561056c-0.844884 2.534653-3.379538 3.379538-6.759076 2.534654-3.379538-0.844884-5.914191-3.379538-5.069307-5.069307l30.415842-147.854786c0.844884-2.534653 3.379538-3.379538 6.759076-2.534653 3.379538 0.844884 5.914191 3.379538 5.069307 5.069307l-30.415842 147.854785z" fill="#D65A4D" /><path d="M1014.968185 564.382838c-2.534653 13.518152-16.052805 21.966997-29.570957 19.432344l-16.89769-3.379538c-13.518152-2.534653-21.966997-16.052805-19.432343-28.726073 2.534653-13.518152 16.052805-21.966997 28.726072-19.432343l16.89769 3.379538c15.207921 2.534653 23.656766 15.207921 20.277228 28.726072z" fill="#D65A4D" /><path d="M991.311419 588.039604c-1.689769 0-4.224422 0-5.914191-0.844885l-16.89769-3.379537c-15.207921-3.379538-25.346535-18.587459-21.966997-33.79538 1.689769-7.60396 5.914191-14.363036 12.673268-18.587459 6.759076-4.224422 14.363036-5.914191 21.966996-4.224422l16.89769 3.379538c7.60396 1.689769 14.363036 5.914191 18.587459 12.673267 4.224422 6.759076 5.914191 14.363036 4.224422 21.966997-1.689769 7.60396-5.914191 14.363036-12.673267 18.587459-5.914191 2.534653-10.983498 4.224422-16.89769 4.224422z m-16.89769-52.382838c-4.224422 0-7.60396 0.844884-10.983498 3.379538-4.224422 3.379538-7.60396 7.60396-8.448845 12.673267-2.534653 10.983498 5.069307 21.966997 16.052805 24.50165l16.89769 3.379538c5.069307 0.844884 10.983498 0 15.207921-2.534653 4.224422-3.379538 7.60396-7.60396 8.448845-12.673268 0.844884-5.069307 0-10.983498-2.534654-15.207921-3.379538-4.224422-7.60396-7.60396-12.673267-8.448844l-16.89769-3.379538c-1.689769-1.689769-3.379538-1.689769-5.069307-1.689769z" fill="#595757" /><path d="M1005.674455 612.541254c-2.534653 13.518152-16.052805 21.966997-29.570957 19.432343l-16.897689-3.379538c-13.518152-2.534653-21.966997-16.052805-19.432344-28.726072 2.534653-13.518152 16.052805-21.966997 28.726073-19.432343l16.89769 3.379538c14.363036 2.534653 22.811881 15.207921 20.277227 28.726072z" fill="#D65A4D" /><path d="M981.172805 636.19802c-1.689769 0-4.224422 0-5.914191-0.844885l-16.89769-3.379538c-7.60396-1.689769-14.363036-5.914191-18.587459-12.673267-4.224422-6.759076-5.914191-14.363036-4.224422-21.966997 3.379538-15.207921 18.587459-25.346535 33.795379-21.966996l16.89769 3.379538c15.207921 3.379538 25.346535 18.587459 21.966997 33.795379-1.689769 14.363036-13.518152 23.656766-27.036304 23.656766z m-16.897689-52.382838c-9.293729 0-17.742574 6.759076-20.277228 16.052805-0.844884 5.069307 0 10.983498 2.534653 15.207921 3.379538 4.224422 7.60396 7.60396 12.673268 8.448844l16.897689 3.379538c10.983498 2.534653 21.966997-5.069307 24.501651-16.052805 2.534653-10.983498-5.069307-21.966997-16.052806-24.50165l-16.89769-3.379538c0 0.844884-1.689769 0.844884-3.379537 0.844885z" fill="#595757" /><path d="M1027.641452 637.887789c-0.844884 2.534653-3.379538 3.379538-6.759076 2.534653-3.379538-0.844884-5.914191-3.379538-5.069307-5.069307l29.570957-144.475247c0.844884-2.534653 3.379538-3.379538 6.759076-2.534654 3.379538 0.844884 5.914191 3.379538 5.069307 5.069307l-29.570957 144.475248z" fill="#D65A4D" /><path d="M1072.42033 550.864686c-2.534653 13.518152-16.052805 21.966997-29.570957 19.432344l-16.89769-3.379538c-13.518152-2.534653-21.966997-16.052805-19.432343-28.726073 2.534653-13.518152 16.052805-21.966997 28.726073-19.432343l16.897689 3.379538c14.363036 2.534653 23.656766 15.207921 20.277228 28.726072z" fill="#D65A4D" /><path d="M1048.763564 574.521452c-1.689769 0-4.224422 0-5.914191-0.844884l-16.89769-3.379538c-15.207921-3.379538-25.346535-18.587459-21.966997-33.79538 1.689769-7.60396 5.914191-14.363036 12.673268-18.587459s14.363036-5.914191 21.966996-4.224422l16.89769 3.379538c7.60396 1.689769 14.363036 5.914191 18.587459 12.673267 4.224422 6.759076 5.914191 14.363036 4.224422 21.966997-1.689769 7.60396-5.914191 14.363036-12.673267 18.587459-5.914191 3.379538-11.828383 4.224422-16.89769 4.224422z m-16.897689-52.382838c-4.224422 0-7.60396 0.844884-10.983499 3.379538-4.224422 3.379538-7.60396 7.60396-8.448845 12.673267-2.534653 10.983498 5.069307 21.966997 16.052806 24.50165l16.897689 3.379538c5.069307 0.844884 10.983498 0 15.207921-2.534653 4.224422-3.379538 7.60396-7.60396 8.448845-12.673268 0.844884-5.069307 0-10.983498-2.534653-15.20792-3.379538-4.224422-7.60396-7.60396-12.673268-8.448845l-16.897689-3.379538c-2.534653-1.689769-3.379538-1.689769-5.069307-1.689769z" fill="#595757" /><path d="M1062.281716 599.023102c-2.534653 13.518152-16.052805 21.966997-29.570957 19.432344l-16.89769-3.379538c-13.518152-2.534653-21.966997-16.052805-19.432343-28.726073 2.534653-13.518152 16.052805-21.966997 28.726073-19.432343l16.897689 3.379538c15.207921 2.534653 23.656766 16.052805 20.277228 28.726072z" fill="#D65A4D" /><path d="M1038.62495 623.524752c-1.689769 0-4.224422 0-5.914191-0.844884l-16.89769-3.379538c-15.207921-3.379538-25.346535-18.587459-21.966996-33.79538 1.689769-7.60396 5.914191-14.363036 12.673267-18.587458 6.759076-4.224422 14.363036-5.914191 21.966997-4.224423l16.897689 3.379538c15.207921 3.379538 25.346535 18.587459 22.811882 33.79538-4.224422 13.518152-16.052805 23.656766-29.570958 23.656765z m-16.897689-53.227722c-4.224422 0-7.60396 0.844884-10.983499 3.379538-4.224422 3.379538-7.60396 7.60396-8.448845 12.673267-0.844884 5.069307 0 10.983498 2.534654 15.207921 3.379538 4.224422 7.60396 7.60396 12.673267 8.448845l16.89769 3.379538c10.983498 2.534653 21.966997-5.069307 24.50165-16.052806 2.534653-10.983498-5.069307-21.966997-16.052805-24.50165l-16.89769-3.379538c-0.844884 0.844884-2.534653 0.844884-4.224422 0.844885z" fill="#595757" /><path d="M562.110099 648.026403l-126.732673 372.594059-77.729373-54.917492 119.973597-349.782178 574.521452-141.095709 74.349835 22.811881z" fill="#844E36" /><path d="M595.060594 673.372937L482.690957 1000.343234l-47.313531 17.742575 125.887789-370.059406 565.227722-150.389439-10.138614 26.191419z" fill="#702F18" /><path d="M562.110099 648.026403l-84.488449-32.105611 574.521452-141.095709 74.349835 22.811881z" fill="#9E6D4C" /></svg>