<?xml version="1.0" standalone="no"?><!DOCTYPE svg PUBLIC "-//W3C//DTD SVG 1.1//EN" "http://www.w3.org/Graphics/SVG/1.1/DTD/svg11.dtd"><svg class="icon" width="200px" height="179.18px" viewBox="0 0 1143 1024" version="1.1" xmlns="http://www.w3.org/2000/svg"><path d="M212.631291 883.652229c38.276665 3.002091 86.310126 4.503137 123.085745-22.515685 130.590974-82.557512-97.567969-280.695541-181.626526-224.406328 0 0-54.788167-29.270391-70.549147 24.016731 0 0-48.783984-28.519868-59.291304 24.016731-11.257843 57.039736 41.278756 40.528233 66.796532 125.337313 29.270391 65.295487 108.075289 73.551238 121.5847 73.551238" fill="#FFE04A" /><path d="M247.155341 897.16164c-12.008365 0-23.266208-0.750523-34.52405-1.501045-6.754706 0-97.567969-6.004183-131.341497-80.305944 0-0.750523 0-0.750523-0.750522-1.501045-12.008365-38.276665-29.270391-54.037644-43.530325-67.547056-15.76098-15.010457-30.771436-28.519868-24.016731-63.794441 3.752614-18.763071 12.758888-31.521959 25.517777-36.775619 13.509411-6.004183 28.519868-3.002091 38.276664 0 6.004183-11.257843 14.259934-19.513594 24.767254-24.016731 19.513594-8.255751 41.278756-1.501046 51.035553 2.251569 27.018822-14.259934 64.544964-10.50732 106.574243 10.507319 58.540781 29.270391 123.085745 94.565878 126.087837 156.108751 1.501046 32.272482-13.509411 60.041827-44.280848 79.55542-27.018822 21.014639-60.79235 27.018822-93.815355 27.018822zM102.304434 806.348377c28.519868 62.293396 108.075289 66.04601 111.07738 66.04601h0.750523c40.528233 3.752614 82.557512 3.752614 114.829994-20.264117 0 0 0.750523 0 0.750523-0.750523 24.016731-15.010457 35.274573-35.274573 33.773527-59.291304-2.251569-51.786076-60.041827-110.326857-113.328948-137.345679-37.526142-18.763071-69.798624-21.765162-89.312218-9.006274-3.752614 2.251569-7.505228 2.251569-11.257842 0.750523-6.004183-3.002091-24.767254-10.50732-38.276665-4.503137-7.505228 3.002091-12.758888 10.50732-16.511502 21.765162-0.750523 3.002091-3.752614 6.004183-6.754706 7.505228-3.002091 1.501046-6.754706 0.750523-9.756797-0.750522-4.503137-3.002091-19.513594-9.006274-30.020913-4.503137-6.004183 3.002091-10.50732 9.756797-12.758889 21.014639-4.503137 22.515685 2.251569 29.270391 17.262026 42.779802 15.010457 13.509411 36.025096 33.023005 49.534507 76.553329z" fill="#545971" /><path d="M149.587373 635.22917c29.270391 16.511502 48.033462 33.773528 75.052283 69.048101" fill="#FFE04A" /><path d="M224.639656 715.535114c-3.002091 0-6.754706-1.501046-9.006274-4.503137-27.018822-34.524051-45.03137-50.28503-72.050192-66.04601-5.25366-3.002091-7.505228-9.756797-4.503137-15.010457s9.756797-7.505228 15.010457-4.503137c30.020913 17.262025 49.534507 35.274573 78.804898 71.29967 3.752614 4.503137 3.002091 12.008365-1.501046 15.760979-1.501046 2.251569-4.503137 3.002091-6.754706 3.002092z" fill="#545971" /><path d="M79.038226 656.994333c-18.763071-5.25366 60.79235 32.272482 88.561695 82.557512" fill="#FFE04A" /><path d="M167.599921 751.56021c-3.752614 0-7.505228-2.251569-9.756797-6.004183-18.012548-32.272482-60.041827-60.041827-78.054375-72.050192-10.50732-7.505228-18.012548-12.008365-13.509411-21.014639 1.501046-3.002091 5.25366-9.006274 16.511502-5.25366 3.002091 0.750523 6.004183 3.002091 6.754706 6.004182 0.750523 0.750523 1.501046 1.501046 3.002091 1.501046 19.513594 12.758888 65.295487 42.779802 85.559603 80.305944 3.002091 5.25366 0.750523 12.008365-4.503137 15.010456-2.251569 0.750523-3.752614 1.501046-6.004182 1.501046z" fill="#545971" /><path d="M587.142187 194.672265c18.763071-9.006274 20.264117-54.788167 109.576334-46.532416 90.06274 8.255751 170.368684 41.278756 228.909465 3.002091 58.540781-37.526142-199.639075-30.771436-277.693449-19.513594-78.054375 12.008365-64.544964 63.043918-60.79235 63.043919z" fill="#7B99C7" /><path d="M587.142187 203.678539c-6.754706 0-12.008365-6.754706-12.758888-18.012548-0.750523-9.006274 0-52.536599 72.050192-63.043919 21.765162-3.002091 281.446064-25.517776 296.456521 13.509411 2.251569 5.25366 1.501046 14.259934-12.008366 23.266208-45.781893 29.270391-102.821629 19.513594-163.613978 9.006274-23.266208-3.752614-47.282939-8.255751-71.29967-10.507319-61.542873-6.004183-77.303852 15.010457-88.561695 30.020913-4.503137 6.004183-9.006274 12.008365-15.760979 15.76098h-4.503137z m38.276665-57.039736C611.90944 151.892463 601.402121 159.397691 596.898984 168.403965c-0.750523 1.501046-1.501046 3.002091-1.501046 3.752615 6.004183-8.255751 15.010457-18.012548 30.020914-25.517777z m54.788167-9.006274c5.25366 0 11.257843 0.750523 18.012548 0.750523 25.517776 2.251569 49.534507 6.754706 72.800715 10.50732 59.291304 10.50732 110.326857 19.513594 150.104567-6.004183 0.750523-0.750523 1.501046-0.750523 2.251569-1.501046-23.266208-9.006274-146.351953-13.509411-243.169399-3.752614z" fill="#545971" /><path d="M608.156826 152.642986c19.513594-3.002091 53.287121-57.039736 109.576335-8.255751S807.045378 265.971934 874.592434 246.45834C942.139489 226.944747 757.510871 124.873641 695.217475 104.609524c-63.043918-20.264117-90.06274 46.532416-87.060649 48.033462z" fill="#7B99C7" /><path d="M852.076748 259.217229c-40.528233 0-69.048101-31.521959-99.069014-64.544964-13.509411-14.259934-27.018822-30.020913-42.029279-42.779802-36.025096-31.521959-59.291304-15.010457-80.305944-0.750523-8.255751 5.25366-15.010457 10.50732-21.765162 11.257843l-3.752614 0.750523-3.002091-1.501046c-8.255751-5.25366-3.752614-15.010457-1.501046-20.264117 11.257843-24.767254 44.280847-61.542873 96.066923-45.03137 42.029279 13.509411 201.14012 92.314309 200.389598 137.345679 0 6.004183-3.002091 17.262025-21.765163 22.515685-6.754706 2.251569-15.010457 3.002091-23.266208 3.002092zM671.951267 115.116844c15.010457 0 32.272482 6.004183 51.786076 22.515685 15.76098 14.259934 30.020913 29.270391 43.530325 44.280847 34.524051 38.276665 61.542873 68.297578 104.322674 55.53869 3.752614-0.750523 8.255751-3.002091 8.255751-5.253659 0-24.767254-128.339405-99.819537-187.630709-119.333132-17.262025-5.25366-32.272482-4.503137-46.532416 3.752615-3.752614 2.251569-7.505228 5.25366-10.50732 8.255751 10.50732-5.25366 22.515685-9.756797 36.775619-9.756797z" fill="#545971" /><path d="M453.549122 148.890372c3.752614 0.750523 27.769345-33.773528 105.82372-34.524051 75.802807-1.501046 72.050192 34.524051 105.82372 45.03137-15.010457-39.027188 53.287121-47.282939 42.779802-84.058557C698.219567 38.563515 664.446039 21.301489 626.919897 12.295215c-37.526142-9.006274-114.829994 0.750523-147.852999 30.771437-33.773528 29.270391-28.519868 104.322674-25.517776 105.82372z" fill="#E4C694" /><path d="M680.957541 173.657625l-18.012548-5.25366c-14.259934-4.503137-22.515685-12.008365-30.771436-19.513593-13.509411-12.758888-27.018822-25.517776-72.800715-24.767254-59.291304 0.750523-85.559603 21.765162-95.316401 29.270391-4.503137 3.002091-7.505228 6.004183-12.758888 4.503137-6.004183-1.501046-7.505228-7.505228-7.505228-9.006274-3.002091-15.010457-4.503137-82.557512 29.270391-112.578426C509.838335 3.288941 590.894801-5.717333 629.171466 3.288941 679.456496 15.297307 707.976364 37.812992 717.733161 72.337042c6.754706 24.016731-11.257843 38.276665-24.767254 49.534507-16.511502 13.509411-23.266208 21.014639-18.012548 33.773528l6.004182 18.012548zM563.125456 104.609524c50.28503 0 67.547055 16.511502 81.806989 30.020914 3.002091 3.002091 6.004183 6.004183 9.756797 8.255751 2.251569-15.76098 15.76098-26.268299 26.268299-35.274573 13.509411-11.257843 21.765162-18.763071 18.763071-30.020914-7.505228-27.769345-31.521959-45.781893-75.052283-55.53869-34.524051-8.255751-108.075289 0-139.597248 28.519868-21.014639 18.012548-24.767254 60.79235-24.016731 82.557512 15.010457-10.50732 45.03137-26.268299 99.069015-27.018822 0.750523-1.501046 1.501046-1.501046 3.002091-1.501046z" fill="#545971" /><path d="M452.048076 154.894554c12.008365-3.752614 24.767254-12.008365 70.549147-17.262025 51.035553-1.501046 95.3164 2.251569 136.595156 21.765162 6.004183-0.750523-14.259934-47.282939-66.046009-51.786075-51.786076-4.503137-53.287121-2.251569-91.563787 7.505228s-51.786076 39.77771-49.534507 39.77771z" fill="#7B99C7" /><path d="M657.691334 169.154488l-2.251569-0.750523c-42.029279-20.264117-88.561695-21.765162-132.092019-21.014639-35.274573 3.752614-49.534507 9.756797-60.041827 13.509411-3.002091 1.501046-5.25366 2.251569-8.255752 3.002091l-2.251568 0.750523-9.756797-1.501045-0.750523-8.255752c-0.750523-9.756797 18.763071-39.77771 57.039736-48.783984l10.50732-3.002091c30.020913-7.505228 36.775619-9.006274 84.058557-4.503137 48.783984 3.752614 75.802807 43.530325 75.802807 59.291304 0 6.754706-4.503137 10.50732-9.756797 11.257842h-2.251568zM542.110817 127.875732c33.023005 0 66.796533 3.002091 99.819537 14.259934-9.006274-10.50732-24.767254-22.515685-49.534507-24.767254-45.03137-3.752614-50.28503-2.251569-78.054375 4.503137l-10.50732 3.002092c-10.50732 2.251569-18.763071 6.754706-25.517777 11.257842 10.50732-3.002091 24.016731-5.25366 42.779802-7.505228h0.750523c6.754706 0 13.509411-0.750523 20.264117-0.750523z" fill="#545971" /><path d="M647.934537 122.622072c0.750523-3.002091 10.50732-12.008365 17.262025-21.014639 6.004183-10.50732 20.264117-21.765162 34.52405-27.018822 0.750523-1.501046-28.519868-0.750523-39.77771 9.006274-11.257843 9.006274-9.006274 5.25366-12.758888 14.259934-4.503137 9.006274 0 25.517776 0.750523 24.767253zM629.171466 91.850636c0.750523-3.002091 7.505228-17.262025 14.259934-27.018822 6.754706-10.50732 18.763071-18.012548 32.272482-23.266208 0.750523-1.501046-22.515685-6.754706-33.773528 3.002091C631.423034 54.324494 630.672511 55.075017 626.919897 64.081291c-4.503137 8.255751 1.501046 27.769345 2.251569 27.769345zM504.584675 54.324494c-1.501046 3.752614-5.25366 8.255751-9.006274 20.264117-5.25366 13.509411-2.251569 24.767254 3.002091 33.023005-0.750523 1.501046-18.763071 0-18.763071-13.509412s1.501046-14.259934 6.004183-25.517776c4.503137-9.756797 18.012548-15.010457 18.763071-14.259934z" fill="#B48A64" /><path d="M932.382692 536.910679c0 203.391689-171.119207 367.75619-382.766647 367.75619s-382.766647-164.364501-382.766647-367.75619 171.119207-367.75619 382.766647-367.756191c210.896917 0 382.766647 165.115024 382.766647 367.756191" fill="#FFE04A" /><path d="M548.865522 915.924711c-216.9011 0-394.02449-169.618161-394.02449-379.014032 0-208.645349 176.372867-379.014033 394.02449-379.014033 216.9011 0 394.02449 169.618161 394.02449 379.014033s-176.372867 379.014033-394.02449 379.014032z m0-735.51238C343.972788 180.412331 176.606195 340.273695 176.606195 536.910679s166.61607 356.498348 372.259327 356.498347c204.892735 0 372.259327-159.861364 372.259327-356.498347S754.50878 180.412331 548.865522 180.412331z" fill="#545971" /><path d="M195.369266 404.818659c6.004183 3.002091 100.57006-105.073197 385.018215-75.052284 285.198678 30.020913 343.73946 135.844634 349.743642 134.343588 6.004183-0.750523-24.016731-132.092019-63.043918-183.878095-38.276665-51.035553-72.050192-81.806989-141.848816-105.82372-68.297578-23.266208-141.848816-25.517776-196.636983-24.767254-55.53869 0.750523-143.349862 8.255751-218.402146 72.800716-59.291304 51.786076-121.5847 179.374958-114.829994 182.377049z" fill="#E4C694" /><path d="M929.380601 473.86676c-4.503137 0-7.505228-3.002091-12.758889-8.255751-63.794441-66.796533-177.873912-109.576334-337.735276-126.087837-158.360319-16.511502-282.94711 6.004183-369.257236 67.547056-8.255751 6.004183-12.758888 9.006274-18.012548 6.004182-3.002091-1.501046-5.25366-4.503137-6.004183-8.255751-2.251569-17.262025 62.293396-140.347771 118.582608-189.131755 85.559603-74.301761 189.882278-75.052284 224.406329-75.052284 57.039736-0.750523 130.590974 2.251569 199.639074 25.517777 72.800715 24.767254 107.324766 57.039736 146.351954 108.825811 22.515685 30.020913 39.77771 81.806989 48.783984 109.576335 0.750523 3.002091 21.014639 69.798624 15.76098 82.557512l-2.251569 5.25366-6.004183 1.501045h-1.501045zM482.819512 315.506442c30.771436 0 63.794441 1.501046 98.318492 5.253659 154.607704 16.511502 267.936653 57.039736 336.984754 120.083654-8.255751-38.276665-30.020913-116.33104-58.540781-153.857181-37.526142-49.534507-69.048101-78.804898-137.345679-102.071106-66.796533-22.515685-138.846725-24.767254-193.634892-24.767254-56.289213 0.750523-140.347771 8.255751-212.397963 70.549147-42.779802 36.775619-86.310126 114.079471-103.572152 152.356136 69.798624-45.03137 160.611887-67.547055 270.188221-67.547055z" fill="#545971" /><path d="M211.130245 383.053497c17.262025-12.008365 140.347771-82.557512 350.494165-63.043918 210.146394 19.513594 315.970115 78.054375 364.003576 125.337313 10.50732 0-91.563786-143.349862-215.400054-164.364501-119.333131-19.513594-201.890643-28.519868-312.2175-10.50732-110.326857 18.763071-191.383324 111.827903-186.880187 112.578426zM314.702397 275.728731c5.25366 0 5.25366-10.50732 33.773528-32.272482 27.769345-21.014639 51.786076-28.519868 66.046009-30.020913 2.251569-1.501046-36.775619-7.505228-59.291304 3.752614-17.262025 10.50732-23.266208 16.511502-27.769345 24.016731-3.752614 8.255751-18.012548 34.524051-12.758888 34.52405z" fill="#B48A64" /><path d="M829.561063 338.022127c0.750523-5.25366 3.752614-16.511502-6.004182-57.790259-10.50732-40.528233-24.767254-45.781893-36.025097-63.794441 0-2.251569 44.280847 27.769345 75.052284 72.800715 31.521959 45.03137 63.043918 153.106659 63.043918 153.106659S840.818906 340.273695 829.561063 338.022127zM689.213293 295.992848c1.501046-6.754706 6.004183-13.509411 7.505228-37.526142 3.752614-24.767254-2.251569-47.282939-11.257842-67.547055 0-3.002091 24.767254 6.004183 27.018822 32.272482 2.251569 26.268299 1.501046 28.519868-2.251569 48.033461-3.752614 20.264117-21.014639 26.268299-21.014639 24.767254z" fill="#B48A64" /><path d="M259.91423 509.141334c-3.002091 0-5.25366-0.750523-8.255751-2.251569-6.754706-4.503137-9.006274-13.509411-4.503138-20.264117 1.501046-2.251569 30.771436-47.282939 83.308035-56.289212 34.524051-6.004183 69.798624 6.004183 105.073198 33.773527 6.004183 5.25366 7.505228 14.259934 2.251568 20.264117s-14.259934 7.505228-20.264116 2.251568c-28.519868-22.515685-56.289213-32.272482-81.80699-27.769345-39.77771 6.754706-63.043918 42.779802-63.043918 42.779802-3.002091 5.25366-8.255751 7.505228-12.758888 7.505229zM641.930354 466.361532c-3.002091 0-5.25366-0.750523-8.255751-2.251569-6.754706-4.503137-9.006274-13.509411-4.503137-20.264116 1.501046-2.251569 30.771436-47.282939 83.308035-56.289213 34.524051-6.004183 69.798624 6.004183 105.073197 33.773528 6.004183 5.25366 7.505228 14.259934 2.251568 20.264116-5.25366 6.004183-14.259934 7.505228-20.264116 2.251569-28.519868-22.515685-56.289213-32.272482-81.806989-27.769345-39.77771 6.754706-63.043918 42.779802-63.043919 42.779801-3.002091 5.25366-8.255751 7.505228-12.758888 7.505229z" fill="#545971" /><path d="M545.112908 780.080078c-156.859273 0-292.703907-51.035553-357.999393-159.861365 44.280847 155.358227 187.630709 269.437699 357.999393 269.437699 169.618161 0 312.968023-114.079471 357.999393-269.437699C837.816814 729.795048 701.972181 780.080078 545.112908 780.080078" fill="#FFD05A" /><path d="M559.372842 807.0989C293.687757 834.868245 278.677301 599.954597 278.677301 599.954597s111.07738 34.524051 278.443972 9.006274C724.487866 583.443094 804.043287 518.147608 804.043287 518.147608c0 2.251569 21.014639 261.93247-244.670445 288.951292z" fill="#545971" /><path d="M517.343563 820.608311c-67.547055 0-123.085745-18.012548-166.61607-54.788167C274.174164 701.27518 267.419458 603.707211 267.419458 599.954597s1.501046-7.505228 4.503137-9.756797c3.002091-2.251569 6.754706-3.002091 10.50732-2.251569 0.750523 0 111.07738 33.023005 273.940835 8.255752 162.112933-24.767254 240.917831-87.811172 241.668354-88.561695 3.752614-3.002091 9.006274-3.752614 12.758888-0.750523 3.752614 2.251569 5.25366 6.004183 5.25366 9.756797v0.750523c1.501046 45.781893-3.752614 273.190313-255.928287 299.458612-15.010457 3.002091-29.270391 3.752614-42.779802 3.752614z m-225.156851-205.643257c5.25366 28.519868 21.765162 90.813263 73.551238 134.343588 46.532416 39.77771 111.827903 55.53869 192.133846 47.282938C764.265576 774.826418 791.284399 605.95878 793.535967 539.162247c-33.023005 21.014639-109.576334 61.542873-234.163125 80.305944-132.842542 20.264117-229.659988 3.752614-267.18613-4.503137z" fill="#545971" /><path d="M283.180438 602.206165C526.349837 649.489104 799.54015 523.401267 799.54015 523.401267s-5.25366 48.783984-7.505229 55.53869c-1.501046 6.754706-72.800715 63.043918-248.423059 87.06065-175.622344 24.016731-235.664171-23.266208-242.418876-32.272482-6.754706-9.006274-24.016731-30.771436-18.012548-31.52196z" fill="#FFFFFF" /><path d="M505.335198 791.33792c-69.048101 0-125.337314-18.012548-166.61607-54.788167-69.048101-60.041827-72.800715-147.852999-72.800716-151.605613s1.501046-6.754706 4.503137-9.006274c3.002091-2.251569 6.754706-3.002091 10.50732-1.501046 0.750523 0 111.07738 33.023005 273.940836 8.255752C716.982638 557.925318 795.787536 494.8814 796.538058 494.130877c3.752614-3.002091 9.006274-3.752614 12.758889-0.750523 3.752614 2.251569 6.004183 6.004183 5.25366 10.50732v0.750523c0 42.779802-10.50732 258.179856-263.433516 284.448155-15.76098 1.501046-30.771436 2.251569-45.781893 2.251568zM289.935143 599.954597c4.503137 26.268299 18.012548 80.305944 63.794441 120.083654 45.781893 39.77771 111.07738 55.53869 195.135938 46.532416 39.77771-3.752614 232.66208-34.524051 242.418877-241.668354-33.023005 21.014639-109.576334 60.79235-234.163126 79.555421-132.842542 20.264117-229.659988 3.752614-267.18613-4.503137z" fill="#545971" /><path d="M549.616045 693.019429c-186.129664 17.262025-179.374958 62.293396-179.374958 62.293395s69.798624 57.039736 198.888552 33.773528c128.339405-22.515685 167.366593-84.058558 167.366592-84.058558s-0.750523-29.270391-186.880186-12.008365z" fill="#DD6B73" /><path d="M915.120667 682.512109c-43.530325-18.012548-173.370775-28.519868-181.626527-24.767254-9.006274 3.752614-46.532416 3.002091-91.563786 49.534508-44.280847 46.532416-56.289213 66.796533-64.544964 114.079471-8.255751 47.282939-2.251569 180.125481 13.509411 189.882278 15.76098 10.50732 84.058558-26.268299 96.066923-43.530325 11.257843-17.262025-21.765162-199.639075-3.752614-236.414694 18.012548-36.775619 24.767254-50.28503 93.064832-43.530324 68.297578 6.754706 142.599339 183.127572 165.115024 183.127572s63.794441-44.280847 64.544964-68.297578c0.750523-24.767254-47.282939-102.071106-90.813263-120.083654z" fill="#F8FEFF" /><path d="M598.400029 1024c-6.004183 0-10.50732-1.501046-13.509411-3.752614-24.767254-16.511502-24.767254-163.613979-18.012548-201.890643 8.255751-49.534507 21.014639-71.29967 67.547056-120.083654 39.027188-40.528233 72.800715-47.282939 89.312217-51.035553 2.251569-0.750523 4.503137-0.750523 5.25366-1.501046 15.010457-6.754706 149.354045 7.505228 190.632801 24.767254 46.532416 19.513594 98.318492 100.57006 97.567969 130.590973-1.501046 30.771436-48.033462 79.555421-75.802807 79.555421-13.509411 0-25.517776-17.262025-52.536599-60.041827-30.020913-47.282939-75.802807-119.333131-113.328948-123.085745-60.79235-6.004183-64.544964 2.251569-81.806989 36.775619-9.006274 18.012548-3.002091 88.561695 2.251568 139.597248 6.004183 65.295487 7.505228 88.561695 0.750523 98.318491-8.255751 12.008365-32.272482 27.018822-51.035553 36.025096-20.264117 11.257843-35.274573 15.76098-47.282939 15.76098z m-0.750522-21.765162c12.758888 3.002091 69.048101-25.517776 79.55542-39.777711 3.002091-9.006274-0.750523-51.035553-3.752614-84.80908-6.754706-75.052284-10.50732-129.089928 0-151.605613 20.264117-40.528233 30.771436-57.039736 104.322675-49.534508 48.783984 4.503137 93.815355 75.802807 129.84045 132.842543 12.758888 20.264117 28.519868 45.03137 35.274574 49.534507 15.76098-2.251569 51.035553-38.276665 51.786076-57.790259 0.750523-18.012548-42.779802-92.314309-83.308035-108.825811-41.278756-17.262025-160.611887-26.268299-174.121299-24.767254-2.251569 0.750523-5.25366 1.501046-9.006274 2.251569-14.259934 3.002091-43.530325 9.006274-78.054375 44.280847-43.530325 45.03137-54.037644 63.043918-61.542873 108.075289-8.255751 48.783984-0.750523 163.613979 9.006275 180.125481z" fill="#545971" /><path d="M737.246754 681.761586c-43.530325-18.012548-123.085745 89.312218-119.333131 161.36241 3.752614 72.050192 36.025096 92.314309 58.540781 80.305944 4.503137-15.76098-27.769345-174.871821-9.756796-211.64744 18.012548-36.775619 24.767254-50.28503 93.064831-43.530325 68.297578 6.754706 144.850908 140.347771 161.36241 140.347771 33.773528 0 24.767254-30.771436-7.505228-69.048101-33.023005-38.276665-132.842542-39.027188-176.372867-57.790259z" fill="#F6F7E7" /><path d="M700.471135 666.751129c75.052284-45.781893 123.836268-15.010457 158.360319 40.528234 34.524051 54.788167 46.532416 145.60143-33.773528 159.861364-80.305944 14.259934-138.846725 11.257843-159.861364-30.020914-21.765162-42.029279-39.027188-124.586791 35.274573-170.368684" fill="#FFE04A" /><path d="M750.005643 885.903798c-42.029279 0-78.054375-10.50732-95.316401-44.280847-23.266208-45.03137-41.278756-135.094111 39.777711-184.628618 70.549147-42.779802 128.339405-28.519868 173.370775 43.530324 23.266208 36.775619 38.276665 92.314309 20.264117 132.092019-10.50732 24.016731-32.272482 39.77771-61.542873 45.031371-25.517776 4.503137-51.786076 8.255751-76.553329 8.255751z m18.012548-229.659988c-18.763071 0-39.027188 6.754706-61.542873 20.264116-82.557512 50.28503-37.526142 144.100385-31.521959 154.607705 16.511502 31.521959 62.293396 39.027188 148.603522 24.016731 22.515685-3.752614 37.526142-14.259934 45.03137-31.52196 14.259934-32.272482 0-79.555421-18.763071-111.07738-24.016731-37.526142-51.035553-56.289213-81.806989-56.289212z" fill="#545971" /><path d="M750.005643 883.652229c-41.278756 0-76.553329-9.756797-93.815355-42.779801-23.266208-44.280847-40.528233-132.842542 39.027187-181.626527 69.048101-42.029279 126.83836-27.769345 170.368684 42.779802 22.515685 36.775619 37.526142 90.813263 20.264117 129.840451-10.50732 23.266208-31.521959 38.276665-60.041827 43.530324-24.767254 5.25366-51.035553 8.255751-75.802806 8.255751z m18.012548-229.659988c-18.763071 0-39.77771 6.754706-62.293396 21.01464-84.058558 51.786076-38.276665 147.102476-32.272482 157.609795 17.262025 33.023005 63.043918 40.528233 150.104568 25.517777 23.266208-3.752614 39.027188-15.010457 46.532416-33.023005 14.259934-33.023005 0-81.056466-19.513594-112.578426-24.016731-39.027188-51.035553-58.540781-82.557512-58.540781z" fill="#545971" /><path d="M945.892103 804.096809c-5.25366 0-9.756797-3.752614-11.257842-8.255752-6.754706-24.767254-18.012548-44.280847-40.528234-69.048101-4.503137-4.503137-3.752614-12.008365 0.750523-15.760979 4.503137-4.503137 12.008365-3.752614 15.76098 0.750523 24.767254 27.018822 38.276665 49.534507 45.781893 78.054375 1.501046 6.004183-2.251569 12.008365-8.255751 13.509411-0.750523 0.750523-1.501046 0.750523-2.251569 0.750523z" fill="#545971" /></svg>