<?xml version="1.0" standalone="no"?><!DOCTYPE svg PUBLIC "-//W3C//DTD SVG 1.1//EN" "http://www.w3.org/Graphics/SVG/1.1/DTD/svg11.dtd"><svg class="icon" width="200px" height="163.71px" viewBox="0 0 1251 1024" version="1.1" xmlns="http://www.w3.org/2000/svg"><path d="M799.869781 452.266667s151.893333 19.626667 285.013334-23.04c177.493333-41.813333 179.2 101.546667 116.053333 204.8S991.016448 856.746667 764.883115 833.706667l-7.68-0.853334c-226.133333-23.893333-345.6-170.666667-385.706667-285.013333s-9.386667-254.293333 156.16-176.64C685.523115 443.733333 799.869781 452.266667 799.869781 452.266667" fill="#FFE700" /><path d="M822.056448 839.68c-18.773333 0-37.546667-0.853333-57.173333-3.413333h-7.68C537.043115 813.226667 412.456448 673.28 368.936448 548.693333c-22.186667-63.146667-25.6-144.213333 17.066667-182.613333 21.333333-19.626667 64-34.986667 143.36 2.56 155.306667 71.68 269.653333 80.213333 270.506666 80.213333 1.706667 0 152.746667 18.773333 283.306667-23.04 85.333333-20.48 123.733333 3.413333 140.8 27.306667 34.133333 46.933333 13.653333 125.44-21.333333 182.613333-60.586667 102.4-192 203.946667-380.586667 203.946667zM444.029781 352.426667c-21.333333 0-39.253333 5.973333-53.76 18.773333-40.106667 36.693333-36.693333 114.346667-15.36 175.786667 42.666667 122.026667 166.4 260.266667 383.146667 282.453333l6.826667 0.853333c216.746667 22.186667 365.226667-87.04 432.64-197.973333 33.28-55.466667 52.906667-130.56 21.333333-174.933333-23.04-31.573333-69.12-40.106667-133.973333-24.746667-131.413333 40.96-281.6 23.04-285.866667 23.04s-118.613333-10.24-273.066667-81.066667c-30.72-14.506667-58.026667-22.186667-81.92-22.186666z" fill="#BA7106" /><path d="M885.203115 536.746667s135.68 29.013333 65.706666 122.026666c-69.973333 92.16-283.306667 163.84-532.48-25.6 0 0 190.293333 315.733333 615.253334 151.893334 314.88-209.066667 214.186667-410.453333 57.173333-360.106667-157.013333 50.346667-205.653333 111.786667-205.653333 111.786667z" fill="#FFC729" /><path d="M490.109781 353.28s52.053333 172.373333 294.4 197.12c242.346667 25.6 306.346667-126.293333 306.346667-126.293333s-248.32 95.573333-600.746667-70.826667z" fill="#F99E26" /><path d="M495.229781 454.826667c-3.413333 29.013333-29.013333 49.493333-58.026666 46.933333-29.013333-3.413333-49.493333-29.013333-46.933334-58.026667 3.413333-29.013333 29.013333-49.493333 58.026667-46.933333 29.013333 3.413333 49.493333 29.866667 46.933333 58.026667zM500.349781 559.786667c-1.706667 17.066667-17.066667 29.866667-34.986666 28.16-17.066667-1.706667-29.866667-17.066667-28.16-34.986667 1.706667-17.066667 17.066667-29.866667 34.986666-28.16 17.92 2.56 30.72 17.92 28.16 34.986667zM546.429781 513.706667c-0.853333 10.24-10.24 17.066667-19.626666 16.213333-10.24-0.853333-17.066667-10.24-16.213334-19.626667 0.853333-10.24 10.24-17.066667 19.626667-16.213333 10.24 0.853333 17.066667 9.386667 16.213333 19.626667z" fill="#FFF9BB" /><path d="M822.056448 843.093333c-18.773333 0-38.4-0.853333-58.026667-3.413333H756.349781C532.776448 815.786667 404.776448 672.426667 360.403115 546.133333c-23.04-65.706667-26.453333-151.04 19.626666-192.853333 23.893333-21.333333 69.973333-38.4 153.6 0.853333 153.6 70.826667 266.24 79.36 267.093334 79.36h0.853333c1.706667 0 150.186667 18.773333 279.893333-22.186666h0.853334c90.453333-21.333333 131.413333 5.12 150.186666 30.72 36.693333 50.346667 16.213333 133.12-20.48 192.853333-64 104.106667-197.973333 208.213333-389.973333 208.213333zM444.029781 355.84c-19.626667 0-34.986667 5.12-47.786666 16.213333C364.669781 401.066667 359.549781 469.333333 384.296448 537.6c41.813333 119.466667 162.986667 254.293333 375.466667 276.48l7.68 0.853333c212.48 22.186667 358.4-85.333333 424.106666-193.706666 37.546667-62.293333 46.933333-129.706667 21.333334-164.693334-20.48-28.16-63.146667-35.84-123.733334-21.333333-133.12 42.666667-280.746667 24.746667-290.133333 23.893333-8.533333-0.853333-120.32-10.24-275.626667-81.92-30.72-14.506667-57.173333-21.333333-79.36-21.333333z" fill="#545971" /><path d="M790.483115 547.84c158.72 16.213333 190.293333-12.8 190.293333-12.8C971.389781 443.733333 898.003115 368.64 800.723115 358.4c-92.16-9.386667-175.786667 43.52-208.213334 123.733333 0.853333 0 39.253333 49.493333 197.973334 65.706667z" fill="#FFE700" /><path d="M878.376448 556.373333c-23.893333 0-52.906667-1.706667-87.893333-5.12-157.866667-16.213333-197.973333-64.853333-199.68-66.56l-0.853334-1.706666 0.853334-1.706667c33.28-83.626667 120.32-135.68 211.626666-125.44 96.426667 10.24 173.226667 85.333333 182.613334 180.053333v1.706667l-1.706667 0.853333c-0.853333 0.853333-21.333333 17.92-104.96 17.92z m-281.6-75.093333c7.68 7.68 54.613333 48.64 193.706667 63.146667 137.386667 14.506667 179.2-5.973333 186.88-11.093334-10.24-89.6-84.48-162.133333-176.64-171.52-87.893333-8.533333-170.666667 40.106667-203.946667 119.466667z" fill="#BA7106" /><path d="M795.603115 358.4s51.2 29.013333 29.013333 99.84c-17.92 68.266667-175.786667 60.586667-231.253333 24.746667 0 0 53.76 51.2 180.906666 64.853333 127.146667 12.8 176.64 6.826667 204.8-12.8-0.853333-0.853333-9.386667-147.626667-183.466666-176.64z" fill="#FFC729" /><path d="M768.296448 423.253333c-2.56 22.186667-22.186667 37.546667-43.52 35.84-22.186667-2.56-37.546667-22.186667-35.84-43.52 2.56-22.186667 22.186667-37.546667 43.52-35.84 22.186667 1.706667 37.546667 21.333333 35.84 43.52zM807.549781 430.08c-0.853333 9.386667-9.386667 16.213333-18.773333 15.36-9.386667-0.853333-16.213333-9.386667-15.36-18.773333 0.853333-9.386667 9.386667-16.213333 18.773333-15.36 10.24 0.853333 17.066667 9.386667 15.36 18.773333z" fill="#FFF9BB" /><path d="M652.243115 452.266667m-17.066667 0a17.066667 17.066667 0 1 0 34.133333 0 17.066667 17.066667 0 1 0-34.133333 0Z" fill="#FFF9BB" /><path d="M719.656448 484.693333c-0.853333 6.826667-6.826667 11.093333-13.653333 11.093334-6.826667-0.853333-11.093333-6.826667-11.093334-12.8 0.853333-6.826667 6.826667-11.093333 12.8-11.093334 8.533333 0 12.8 5.973333 11.946667 12.8z" fill="#FFF9BB" /><path d="M878.376448 562.346667c-23.893333 0-53.76-1.706667-88.746667-5.12-161.28-17.066667-203.093333-67.413333-204.8-69.12l-4.266666-5.12 2.56-5.973334c34.133333-86.186667 124.586667-139.946667 219.306666-130.56 99.84 10.24 179.2 88.746667 189.44 186.026667l0.853334 5.12-4.266667 3.413333c-3.413333 3.413333-25.6 21.333333-110.08 21.333334zM606.163115 477.866667c13.653333 11.946667 62.293333 44.373333 186.026666 57.173333 119.466667 12.8 164.693333-1.706667 178.346667-7.68-11.946667-84.48-81.92-151.04-169.813333-160.426667-83.626667-7.68-162.133333 37.546667-194.56 110.933334z" fill="#545971" /><path d="M729.896448 400.213333l63.146667-109.226666-55.466667 113.493333L858.749781 372.053333l-119.466666 40.106667 109.226666 64-112.64-56.32 31.573334 122.026667-40.106667-119.466667-64 109.226667L719.656448 418.133333l-122.026667 32.426667 119.466667-40.106667-108.373333-64 112.64 56.32-31.573334-122.026666z" fill="#FFFFFF" /><path d="M511.443115 411.306667c3.413333 28.16 33.28 54.613333 53.76 70.826666 60.586667 49.493333 140.8 70.826667 217.6 80.213334 82.773333 10.24 244.906667 11.946667 285.866666-86.186667 5.12-12.8-15.36-17.92-20.48-5.973333-31.573333 76.8-179.2 79.36-250.026666 72.533333-74.24-7.68-152.746667-26.453333-212.48-72.533333-16.213333-11.946667-49.493333-41.813333-52.053334-58.88-2.56-13.653333-23.893333-13.653333-22.186666 0z" fill="#545971" /><path d="M260.563115 121.173333s73.386667 9.386667 138.24-11.093333c86.186667-20.48 87.04 49.493333 56.32 99.84-30.72 50.346667-102.4 108.373333-211.626667 97.28h-3.413333c-110.08-11.093333-168.106667-82.773333-187.733334-138.24-19.626667-57.173333-4.266667-124.586667 75.946667-87.04 76.8 34.986667 132.266667 39.253333 132.266667 39.253333" fill="#FFE700" /><path d="M270.803115 311.466667c-9.386667 0-17.92-0.853333-28.16-1.706667h-3.413334c-107.52-11.093333-168.106667-80.213333-190.293333-140.8-11.093333-31.573333-12.8-71.68 8.533333-90.453333 11.946667-10.24 33.28-18.773333 72.533334 0 75.093333 34.133333 130.56 39.253333 130.56 39.253333 0.853333 0 73.386667 9.386667 137.386666-11.093333 42.666667-10.24 62.293333 1.706667 70.826667 13.653333 17.066667 23.04 6.826667 62.293333-10.24 90.453333-30.72 50.346667-94.72 100.693333-187.733333 100.693334z m-183.466667-237.226667c-10.24 0-18.773333 2.56-24.746667 8.533333-16.213333 14.506667-18.773333 48.64-6.826666 83.626667 20.48 58.88 80.213333 125.44 184.32 136.533333h3.413333c104.106667 11.093333 176.64-41.813333 209.066667-95.573333 18.773333-31.573333 23.04-64.853333 10.24-82.773333-10.24-14.506667-32.426667-18.773333-63.146667-11.093334-64 20.48-136.533333 11.093333-139.946667 11.093334-2.56 0-58.026667-5.12-133.12-39.253334-14.506667-7.68-28.16-11.093333-39.253333-11.093333z" fill="#BA7106" /><path d="M302.376448 162.133333s65.706667 14.506667 32.426667 58.88-137.386667 79.36-258.56-11.946666c0 0 93.013333 153.6 299.52 73.386666C528.509781 180.906667 479.869781 82.773333 403.069781 107.52 325.416448 132.266667 302.376448 162.133333 302.376448 162.133333z" fill="#FFC729" /><path d="M110.376448 73.386667s25.6 83.626667 143.36 96.426666C371.496448 181.76 403.069781 108.373333 403.069781 108.373333s-122.026667 45.226667-292.693333-34.986666z" fill="#F99E26" /><path d="M86.483115 120.32m-25.6 0a25.6 25.6 0 1 0 51.2 0 25.6 25.6 0 1 0-51.2 0Z" fill="#FFF9BB" /><path d="M100.136448 171.52m-15.36 0a15.36 15.36 0 1 0 30.72 0 15.36 15.36 0 1 0-30.72 0Z" fill="#FFF9BB" /><path d="M128.296448 150.186667m-8.533333 0a8.533333 8.533333 0 1 0 17.066666 0 8.533333 8.533333 0 1 0-17.066666 0Z" fill="#FFF9BB" /><path d="M270.803115 317.44c-9.386667 0-18.773333-0.853333-29.013334-1.706667h-3.413333c-111.786667-11.946667-174.933333-83.626667-197.973333-146.773333-11.946667-34.133333-12.8-78.506667 11.093333-100.693333 13.653333-11.946667 38.4-21.333333 81.92-0.853334 73.386667 34.133333 127.146667 38.4 128 38.4h0.853333c0.853333 0 71.68 8.533333 133.12-10.24h0.853334c46.933333-11.093333 69.12 3.413333 79.36 17.066667C495.229781 139.093333 484.989781 182.613333 466.216448 213.333333 434.643115 265.386667 367.229781 317.44 270.803115 317.44z m-183.466667-236.373333c-6.826667 0-13.653333 1.706667-18.773333 5.973333-13.653333 11.946667-15.36 42.666667-4.266667 73.386667 19.626667 56.32 76.8 119.466667 176.64 130.56h3.413333C344.189781 301.226667 413.309781 250.88 444.029781 199.68c17.066667-27.306667 21.333333-58.026667 11.093334-72.533333S420.136448 115.2 402.216448 119.466667c-64.853333 20.48-136.533333 11.946667-143.36 11.093333-5.12-0.853333-60.586667-5.973333-136.533333-40.106667-10.24-5.12-23.04-9.386667-34.986667-9.386666z" fill="#545971" /><path d="M256.296448 167.253333c76.8 7.68 93.013333-5.973333 93.013333-5.973333-5.12-44.373333-40.96-81.066667-87.893333-85.333333-45.226667-4.266667-85.333333 21.333333-101.546667 59.733333 0 0 18.773333 23.893333 96.426667 31.573333z" fill="#FFE700" /><path d="M298.963115 173.226667c-11.946667 0-25.6-0.853333-43.52-2.56-77.653333-7.68-97.28-32.426667-98.133334-33.28l-1.706666-0.853334 0.853333-1.706666c16.213333-40.96 59.733333-66.56 104.96-62.293334 47.786667 5.12 85.333333 42.666667 90.453333 88.746667v1.706667l-1.706666 0.853333c-0.853333 1.706667-11.093333 9.386667-51.2 9.386667z m-134.826667-38.4c5.12 5.12 29.013333 23.04 92.16 29.013333 61.44 6.826667 83.626667-1.706667 88.746667-4.266667-5.12-42.666667-40.106667-75.946667-84.48-81.066666-40.96-3.413333-81.066667 18.773333-96.426667 56.32z" fill="#BA7106" /><path d="M258.003115 75.093333s24.746667 14.506667 13.653333 48.64c-8.533333 33.28-85.333333 29.866667-112.64 11.946667 0 0 25.6 24.746667 87.893333 31.573333 61.44 6.826667 86.186667 3.413333 99.84-5.973333 0.853333-0.853333-3.413333-71.68-88.746666-86.186667z" fill="#FFC729" /><path d="M245.203115 106.666667c-0.853333 10.24-10.24 17.92-21.333334 17.066666-10.24-0.853333-18.773333-10.24-17.066666-21.333333 0.853333-10.24 10.24-18.773333 21.333333-17.066667 10.24 1.706667 17.92 11.093333 17.066667 21.333334z" fill="#FFF9BB" /><path d="M256.296448 109.226667m-8.533333 0a8.533333 8.533333 0 1 0 17.066666 0 8.533333 8.533333 0 1 0-17.066666 0Z" fill="#FFF9BB" /><path d="M188.883115 121.173333m-8.533334 0a8.533333 8.533333 0 1 0 17.066667 0 8.533333 8.533333 0 1 0-17.066667 0Z" fill="#FFF9BB" /><path d="M216.189781 136.533333m-5.973333 0a5.973333 5.973333 0 1 0 11.946667 0 5.973333 5.973333 0 1 0-11.946667 0Z" fill="#FFF9BB" /><path d="M298.963115 180.053333c-11.946667 0-26.453333-0.853333-44.373334-2.56-79.36-8.533333-100.693333-33.28-103.253333-35.84l-3.413333-5.12 2.56-5.12c17.92-44.373333 64-71.68 111.786666-66.56 51.2 5.12 92.16 45.226667 97.28 95.573334l0.853334 5.12-4.266667 3.413333c-4.266667 2.56-17.066667 11.093333-57.173333 11.093333z m-126.293334-47.786666c9.386667 5.973333 32.426667 18.773333 84.48 23.893333 48.64 5.12 70.826667 0.853333 80.213334-1.706667-6.826667-36.693333-38.4-64.853333-76.8-69.12-36.693333-3.413333-71.68 15.36-87.893334 46.933334z" fill="#545971" /><path d="M226.429781 95.573333l30.72-52.906666-27.306666 55.466666 59.733333-16.213333-58.026667 19.626667 52.906667 31.573333-55.466667-27.306667 15.36 58.88-18.773333-58.026666-31.573333 52.906666 27.306666-54.613333-58.88 15.36 58.026667-19.626667-52.906667-30.72 54.613334 27.306667-15.36-59.733333z" fill="#FFFFFF" /><path d="M115.496448 104.106667c10.24 52.053333 98.986667 71.68 139.093333 75.946666 40.96 4.266667 120.32 4.266667 140.8-43.52 5.12-12.8-12.8-23.04-18.773333-11.093333-17.066667 39.253333-86.186667 36.693333-119.466667 33.28-32.426667-3.413333-112.64-17.92-121.173333-60.586667-2.56-13.653333-23.04-7.68-20.48 5.973334z" fill="#545971" /><path d="M500.349781 552.96s166.4 21.333333 313.173334-24.746667c195.413333-46.08 197.12 110.933333 128 225.28C872.403115 866.986667 710.269781 998.4 461.949781 972.8l-7.68-0.853333c-248.32-25.6-379.733333-187.733333-424.106666-313.173334-44.373333-126.293333-10.24-280.746667 171.52-194.56 173.226667 79.36 298.666667 88.746667 298.666666 88.746667" fill="#FFE700" /><path d="M524.243115 978.773333c-20.48 0-40.96-0.853333-62.293334-3.413333l-7.68-0.853333c-241.493333-24.746667-378.88-179.2-426.666666-315.733334-24.746667-69.12-28.16-157.866667 18.773333-200.533333 23.893333-21.333333 69.973333-38.4 157.013333 2.56 170.666667 78.506667 296.106667 88.746667 297.813334 88.746667 1.706667 0 167.253333 20.48 311.466666-24.746667 93.866667-22.186667 135.68 4.266667 154.453334 29.866667 37.546667 51.2 15.36 137.386667-23.04 200.533333-67.413333 111.786667-211.626667 223.573333-419.84 223.573333z m-414.72-535.893333c-23.893333 0-43.52 6.826667-58.88 20.48-32.426667 29.013333-49.493333 99.84-17.066667 192.853333 47.786667 133.973333 182.613333 285.866667 420.693333 310.613334l7.68 0.853333c238.08 24.746667 401.92-96.426667 476.16-217.6 51.2-84.48 48.64-157.866667 23.04-192.853333s-75.946667-44.373333-147.626666-27.306667c-144.213333 45.226667-309.76 25.6-314.88 24.746667-4.266667 0-129.706667-11.093333-300.373334-88.746667-32.426667-15.36-63.146667-23.04-88.746666-23.04z" fill="#BA7106" /><path d="M594.216448 645.12s149.333333 32.426667 72.533333 133.973333c-76.8 101.546667-310.613333 180.053333-585.386666-27.306666 0 0 209.92 347.306667 676.693333 166.4 346.453333-229.546667 235.52-451.413333 62.293333-395.946667-172.373333 55.466667-226.133333 122.88-226.133333 122.88z" fill="#FFC729" /><path d="M160.723115 443.733333s57.173333 189.44 323.413333 217.6c266.24 27.306667 337.066667-139.093333 337.066667-139.093333S547.283115 626.346667 160.723115 443.733333z" fill="#F99E26" /><path d="M164.989781 555.52c-3.413333 31.573333-31.573333 54.613333-63.146666 51.2s-54.613333-31.573333-51.2-63.146667c3.413333-31.573333 31.573333-54.613333 63.146666-51.2s54.613333 31.573333 51.2 63.146667zM171.816448 670.72c-1.706667 18.773333-18.773333 33.28-38.4 30.72-18.773333-1.706667-32.426667-18.773333-30.72-37.546667 1.706667-18.773333 18.773333-33.28 38.4-30.72 18.773333 1.706667 32.426667 18.773333 30.72 37.546667zM222.163115 619.52c-0.853333 11.093333-11.093333 18.773333-22.186667 17.92-11.093333-0.853333-18.773333-11.093333-17.92-21.333333 0.853333-11.093333 11.093333-18.773333 22.186667-17.92 11.093333 0.853333 18.773333 11.093333 17.92 21.333333z" fill="#FFF9BB" /><path d="M524.243115 981.333333c-20.48 0-41.813333-0.853333-64-3.413333l-7.68-0.853333c-245.76-25.6-385.706667-182.613333-434.346667-321.706667-25.6-72.533333-29.013333-165.546667 21.333333-210.773333 25.6-23.04 75.946667-41.813333 167.253334 0.853333 169.813333 78.506667 293.546667 87.893333 294.4 87.893333h0.853333c1.706667 0 165.546667 20.48 308.053333-24.746666h0.853334c98.133333-23.04 143.36 5.12 163.84 33.28 39.253333 54.613333 17.066667 145.066667-22.186667 209.92-69.973333 115.2-216.746667 229.546667-428.373333 229.546666z m-414.72-535.893333c-21.333333 0-39.253333 5.973333-52.906667 18.773333-34.986667 31.573333-40.96 107.52-14.506667 183.466667 46.08 131.413333 179.2 280.746667 413.866667 304.64l7.68 0.853333c233.813333 23.893333 395.093333-93.866667 467.626667-213.333333 41.813333-69.12 52.053333-144.213333 23.893333-182.613333-23.04-31.573333-69.973333-40.106667-137.386667-23.893334-145.92 46.08-307.2 26.453333-318.293333 25.6-9.386667-0.853333-132.266667-11.093333-302.933333-89.6-33.28-16.213333-62.293333-23.893333-87.04-23.893333z" fill="#545971" /><path d="M490.109781 657.92c174.08 17.92 209.066667-13.653333 209.066667-13.653333-10.24-100.693333-91.306667-183.466667-197.12-194.56-101.546667-10.24-193.706667 47.786667-228.693333 135.68 0 0 42.666667 54.613333 216.746666 72.533333z" fill="#FFE700" /><path d="M586.536448 666.453333c-26.453333 0-58.026667-1.706667-97.28-5.973333-173.226667-17.92-217.6-70.826667-219.306667-73.386667l-0.853333-1.706666 0.853333-1.706667C306.643115 491.52 402.216448 435.2 502.056448 445.44c105.813333 11.093333 190.293333 93.866667 200.533333 197.12v1.706667l-1.706666 0.853333c0 2.56-23.04 21.333333-114.346667 21.333333z m-309.76-81.92c8.533333 8.533333 58.88 52.906667 213.333333 69.12 151.893333 16.213333 197.12-6.826667 205.653334-11.946666C684.669781 542.72 602.749781 463.36 501.203115 452.266667 404.776448 442.88 312.616448 497.493333 276.776448 584.533333z" fill="#BA7106" /><path d="M495.229781 448.853333s56.32 32.426667 31.573334 109.226667c-19.626667 75.093333-193.706667 66.56-254.293334 27.306667 0 0 58.88 56.32 198.826667 70.826666 139.946667 15.36 194.56 8.533333 225.28-13.653333 0 0-9.386667-160.426667-201.386667-193.706667z" fill="#FFC729" /><path d="M465.363115 520.533333c-2.56 23.893333-23.893333 41.813333-47.786667 39.253334s-41.813333-23.893333-39.253333-47.786667c2.56-23.893333 23.893333-41.813333 47.786666-39.253333 24.746667 2.56 41.813333 23.893333 39.253334 47.786666zM509.736448 528.213333c-0.853333 10.24-10.24 17.92-20.48 17.066667s-17.92-10.24-17.066667-20.48 10.24-17.92 20.48-17.066667 17.92 10.24 17.066667 20.48zM356.989781 554.666667c-0.853333 10.24-10.24 17.92-20.48 17.066666-10.24-0.853333-17.92-10.24-17.066666-20.48s10.24-17.92 20.48-17.066666c11.093333 0 18.773333 9.386667 17.066666 20.48zM412.456448 587.946667c-0.853333 7.68-7.68 12.8-14.506667 11.946666s-12.8-7.68-11.946666-14.506666c0.853333-7.68 6.826667-12.8 14.506666-11.946667s12.8 7.68 11.946667 14.506667z" fill="#FFF9BB" /><path d="M586.536448 672.426667c-26.453333 0-58.88-1.706667-97.28-5.973334-176.64-17.92-222.72-73.386667-224.426667-75.946666l-3.413333-4.266667 2.56-5.973333c37.546667-94.72 136.533333-153.6 239.786667-142.506667 109.226667 11.093333 196.266667 97.28 207.36 203.946667l0.853333 5.12-4.266667 3.413333c-4.266667 2.56-29.013333 22.186667-121.173333 22.186667z m-300.373333-91.306667c14.506667 12.8 67.413333 49.493333 205.653333 64 133.12 13.653333 183.466667-2.56 197.12-8.533333-12.8-93.866667-90.453333-168.106667-187.733333-178.346667-92.16-9.386667-179.2 40.96-215.04 122.88z" fill="#545971" /><path d="M423.549781 494.933333l69.973334-119.466666-62.293334 124.586666 134.826667-34.986666-131.413333 43.52 119.466666 70.826666-124.586666-62.293333 34.986666 133.973333-43.52-131.413333-70.826666 119.466667 62.293333-123.733334-133.973333 34.986667 130.56-44.373333-119.466667-69.973334L414.163115 497.493333l-34.986667-133.973333z" fill="#FFFFFF" /><path d="M184.616448 507.733333c3.413333 29.866667 37.546667 59.733333 58.88 76.8 69.12 55.466667 160.426667 79.36 246.613333 88.746667 89.6 10.24 261.973333 10.24 304.64-94.72 5.12-12.8-15.36-17.92-20.48-5.973333-34.133333 83.626667-192 87.893333-269.653333 81.066666-81.92-6.826667-169.813333-28.16-237.226667-77.653333-18.773333-13.653333-58.88-47.786667-61.44-69.12-1.706667-12.8-23.04-12.8-21.333333 0.853333z" fill="#545971" /></svg>